<svg width="50" height="50" viewBox="0 0 50 50" fill="none" xmlns="http://www.w3.org/2000/svg">
<g clip-path="url(#clip0_21_5614)">
<path d="M49.998 19.5407H-0.00195312V9.4832C-0.00195312 9.00713 0.384081 8.62109 0.860155 8.62109H49.1359C49.612 8.62109 49.998 9.00713 49.998 9.4832L49.998 19.5407Z" fill="#82AFFF"/>
<path d="M49.1358 41.3795H0.860155C0.384081 41.3795 -0.00195312 40.9934 -0.00195312 40.5174V30.46H49.998V40.5174C49.998 40.9935 49.6119 41.3795 49.1358 41.3795Z" fill="#82AFFF"/>
<path d="M49.9999 19.54H0V30.459H49.9999V19.54Z" fill="#F5F5F5"/>
<path d="M29.3103 24.7844H26.2064C26.2643 24.7404 26.3101 24.6972 26.3516 24.6563C26.4273 24.5822 26.4876 24.5233 26.6474 24.4576C26.8082 24.3902 26.8924 24.3894 26.9989 24.3878C27.1272 24.3869 27.2725 24.3845 27.5099 24.2867C27.747 24.1882 27.8505 24.0871 27.9419 23.9979C28.0177 23.9238 28.0779 23.8649 28.2382 23.7983C28.3976 23.7318 28.4815 23.731 28.5875 23.7302C28.7155 23.7284 28.8606 23.7268 29.098 23.6283L28.9322 23.2309C28.7727 23.2974 28.6889 23.2982 28.5829 23.299C28.4549 23.3008 28.3098 23.3023 28.0727 23.4001C27.8358 23.4986 27.7322 23.5997 27.6408 23.6889C27.565 23.763 27.5048 23.8219 27.3449 23.8876C27.1842 23.955 27.1 23.9558 26.9934 23.9574C26.8651 23.9583 26.7198 23.9607 26.4824 24.0593C26.2455 24.1569 26.1419 24.2589 26.0505 24.348C25.9759 24.4206 25.9142 24.4787 25.7608 24.5435L28.2003 22.1044L27.8955 21.7996L25.6997 23.9952C25.7094 23.9234 25.712 23.8596 25.7126 23.8017C25.7139 23.6947 25.7147 23.6113 25.7812 23.4506C25.8477 23.2898 25.9066 23.23 25.9808 23.1543C26.0709 23.0625 26.1724 22.9582 26.2708 22.7208C26.3688 22.4834 26.3706 22.3386 26.3719 22.2106C26.3731 22.1046 26.374 22.0203 26.44 21.8604C26.5065 21.7005 26.565 21.6407 26.6391 21.5649C26.7288 21.4731 26.8302 21.3695 26.9284 21.133L26.5303 20.9681C26.4638 21.128 26.4053 21.1878 26.3311 21.2636C26.2415 21.3554 26.1401 21.459 26.0419 21.6955C25.9438 21.9329 25.9421 22.0777 25.9408 22.2057C25.9395 22.3117 25.9387 22.396 25.8726 22.5559C25.8061 22.7166 25.7473 22.7765 25.673 22.8521C25.583 22.9439 25.4815 23.0482 25.3831 23.2856C25.2851 23.523 25.2833 23.6687 25.2817 23.7967C25.2809 23.9005 25.2779 23.9844 25.2157 24.1385V20.6895H24.7847V23.7933C24.7407 23.7357 24.6976 23.69 24.6571 23.6486C24.5827 23.5728 24.5241 23.5122 24.4575 23.3523C24.391 23.1916 24.3897 23.1074 24.3885 23.0004C24.3872 22.8724 24.3855 22.7268 24.2871 22.4894C24.1891 22.2528 24.0875 22.1493 23.9978 22.0574C23.9237 21.9816 23.8653 21.9219 23.7987 21.7619C23.7327 21.602 23.7318 21.5178 23.7306 21.4117C23.7293 21.2837 23.7276 21.139 23.6295 20.9023L23.2313 21.0673C23.2974 21.2272 23.2982 21.3106 23.2995 21.4166C23.3008 21.5446 23.3024 21.6894 23.4006 21.9268C23.4986 22.1633 23.6002 22.2668 23.6898 22.3587C23.764 22.4345 23.8224 22.4942 23.889 22.6542C23.9555 22.8149 23.9567 22.8991 23.958 23.0061C23.9593 23.1342 23.9609 23.2798 24.0594 23.5172C24.1574 23.7546 24.259 23.8581 24.3486 23.9499C24.4217 24.0241 24.4795 24.0861 24.5443 24.2392L22.1047 21.7998L21.7999 22.1046L24.2357 24.5401C24.1021 24.4795 24.0377 24.4237 23.9677 24.3558C23.8756 24.2657 23.7716 24.1639 23.5333 24.0653C23.2959 23.9677 23.1507 23.9651 23.0223 23.9635C22.9153 23.9626 22.8312 23.961 22.6691 23.8936C22.507 23.8271 22.4465 23.7683 22.3694 23.6934C22.2773 23.6041 22.1728 23.5023 21.9342 23.4029C21.6959 23.3044 21.5502 23.3027 21.4215 23.3011C21.3142 23.2993 21.2296 23.2977 21.0675 23.2304L20.9025 23.6294C21.1408 23.7279 21.2865 23.7296 21.4152 23.7312C21.5226 23.733 21.6071 23.7346 21.7692 23.8019C21.9317 23.8684 21.9923 23.9273 22.0693 24.0022C22.1614 24.0923 22.2659 24.1933 22.5041 24.2919C22.7424 24.3912 22.8881 24.393 23.0164 24.3946C23.1233 24.3964 23.2074 24.3971 23.3687 24.4644C23.53 24.5309 23.5902 24.5898 23.6664 24.6641C23.7056 24.7024 23.7493 24.7431 23.8022 24.7845H20.6895V25.2155H24.1322C23.9962 25.2673 23.9111 25.2738 23.8136 25.2753C23.6852 25.2762 23.5399 25.2786 23.3021 25.3764C23.0644 25.4749 22.9599 25.5766 22.8678 25.666C22.7911 25.7409 22.731 25.7998 22.5697 25.8663C22.4076 25.9337 22.323 25.9353 22.2157 25.937C22.0869 25.9388 21.9413 25.9403 21.703 26.0389C21.4644 26.1382 21.36 26.2392 21.2678 26.3293C21.1907 26.4042 21.1302 26.4631 20.9681 26.5296L21.133 26.9286C21.3713 26.8293 21.4757 26.7283 21.5678 26.6382C21.6448 26.5633 21.7054 26.5044 21.8679 26.4379C22.03 26.3705 22.1145 26.3688 22.2219 26.3672C22.3507 26.3654 22.4963 26.3639 22.7351 26.2644C22.9725 26.1659 23.0765 26.0648 23.1686 25.9748C23.2447 25.9007 23.3054 25.8418 23.4671 25.7752C23.6278 25.7078 23.7125 25.707 23.819 25.7054C23.8735 25.7051 23.935 25.7015 24.0015 25.6933L21.7994 27.895L22.1042 28.1998L24.5389 25.7655C24.4789 25.8985 24.4235 25.9627 24.3554 26.0329C24.2657 26.1247 24.1643 26.229 24.0657 26.4664C23.9671 26.7038 23.965 26.8504 23.9639 26.9782C23.9621 27.0851 23.9614 27.1692 23.8943 27.3309C23.8274 27.4934 23.7681 27.554 23.6935 27.6307C23.6035 27.7224 23.502 27.8276 23.4031 28.0659C23.3042 28.3042 23.3024 28.4499 23.3009 28.5786C23.2991 28.6855 23.2979 28.7705 23.2311 28.9321L23.6292 29.0971C23.7281 28.8588 23.7299 28.7131 23.7314 28.5844C23.7332 28.4774 23.7344 28.3925 23.8013 28.2308C23.8682 28.0683 23.9275 28.0078 24.002 27.9311C24.0921 27.8393 24.1935 27.7342 24.2925 27.4959C24.391 27.2585 24.3932 27.1119 24.3943 26.9841C24.3961 26.8771 24.3968 26.7931 24.4639 26.6313C24.5304 26.4697 24.5893 26.4099 24.6638 26.3333C24.702 26.294 24.7428 26.2502 24.7842 26.1971V29.3101H25.2152V25.8676C25.2666 26.0033 25.2731 26.0882 25.2746 26.186C25.2759 26.3141 25.2779 26.4597 25.3765 26.6971C25.4745 26.9353 25.5764 27.0397 25.6661 27.1314C25.7405 27.2081 25.7995 27.2686 25.8664 27.4303C25.9333 27.5919 25.9346 27.6769 25.9362 27.7838C25.938 27.9126 25.9395 28.0582 26.0385 28.2965C26.1374 28.5347 26.2388 28.64 26.3289 28.7317C26.4033 28.8084 26.4627 28.8689 26.5297 29.0314L26.9278 28.8665C26.8289 28.6282 26.7275 28.5229 26.6374 28.4312C26.563 28.3546 26.5036 28.294 26.4366 28.1315C26.3697 27.9699 26.3684 27.8848 26.3668 27.778C26.365 27.6492 26.3635 27.5036 26.2645 27.2653C26.166 27.027 26.0646 26.9226 25.9749 26.8309C25.9005 26.7543 25.8415 26.6937 25.7746 26.5321C25.7077 26.3714 25.7068 26.2872 25.7051 26.1802C25.7045 26.1258 25.701 26.0642 25.6928 25.9977L27.8951 28.1999L28.1999 27.8951L26.0044 25.7C26.0757 25.7095 26.1395 25.7123 26.1971 25.7131C26.3035 25.714 26.3874 25.7148 26.5481 25.7812C26.7089 25.8486 26.7691 25.9066 26.8453 25.9815C26.9371 26.0708 27.041 26.1725 27.2785 26.2712C27.5155 26.3688 27.6607 26.3705 27.7887 26.3714C27.8947 26.3731 27.9785 26.3738 28.1385 26.4404C28.2984 26.506 28.3582 26.565 28.434 26.6391C28.5258 26.7284 28.6294 26.8302 28.8663 26.9288L29.0312 26.5298C28.8713 26.4641 28.8115 26.4052 28.7357 26.331C28.6439 26.2418 28.5403 26.14 28.3034 26.0414C28.0665 25.9437 27.9212 25.9421 27.7932 25.9412C27.6872 25.9394 27.6034 25.9388 27.4434 25.8722C27.2827 25.8057 27.2224 25.7475 27.1463 25.6725C27.0545 25.5833 26.9506 25.4815 26.7131 25.3838C26.4757 25.2845 26.3305 25.2827 26.202 25.2819C26.0975 25.2802 26.0129 25.2782 25.8579 25.2154H29.31V24.7844H29.3103Z" fill="#F09146"/>
<path d="M24.999 27.1553C26.1893 27.1553 27.1543 26.1903 27.1543 25C27.1543 23.8097 26.1893 22.8447 24.999 22.8447C23.8087 22.8447 22.8438 23.8097 22.8438 25C22.8438 26.1903 23.8087 27.1553 24.999 27.1553Z" fill="#FFE15A"/>
</g>
<defs>
<clipPath id="clip0_21_5614">
<rect width="50" height="50" fill="white"/>
</clipPath>
</defs>
</svg>
