<svg width="50" height="50" viewBox="0 0 50 50" fill="none" xmlns="http://www.w3.org/2000/svg">
<g clip-path="url(#clip0_21_5603)">
<path d="M49.1378 41.3796H0.862108C0.386034 41.3796 0 40.9936 0 40.5175V9.4832C0 9.00713 0.386034 8.62109 0.862108 8.62109H49.1379C49.614 8.62109 50 9.00713 50 9.4832V40.5175C49.9999 40.9937 49.6139 41.3796 49.1378 41.3796Z" fill="#4173CD"/>
<path d="M49.9999 31.0342H0V32.7583H49.9999V31.0342Z" fill="#FFE15A"/>
<path d="M49.9999 34.4824H0V36.2065H49.9999V34.4824Z" fill="#FFE15A"/>
<path d="M6.36992 17.1813L3.16211 16.0859L6.36992 14.9906L7.46532 11.7832L8.56063 14.9906L11.7684 16.0859L8.56063 17.1813L7.46532 20.3888L6.36992 17.1813Z" fill="#FF4B55"/>
<path d="M7.46542 12.3602L8.41405 15.138L11.1919 16.0866L8.41405 17.0352L7.46542 19.8131L6.51679 17.0352L3.73896 16.0866L6.51679 15.138L7.46542 12.3602ZM7.46542 11.207L7.11269 12.2396L6.22324 14.8444L3.61855 15.7339L2.58594 16.0866L3.61855 16.4391L6.22324 17.3286L7.11269 19.9333L7.46542 20.9659L7.81815 19.9333L8.70761 17.3286L11.3123 16.4391L12.3449 16.0866L11.3123 15.7341L8.70761 14.8446L7.81815 12.2399L7.46542 11.207Z" fill="#F5F5F5"/>
</g>
<defs>
<clipPath id="clip0_21_5603">
<rect width="50" height="50" fill="white"/>
</clipPath>
</defs>
</svg>
