<svg width="30" height="27" viewBox="0 0 30 27" fill="none" xmlns="http://www.w3.org/2000/svg">
<path d="M6.35992 20.8293C6.3197 20.868 6.28807 20.9138 6.26687 20.964C6.24567 21.0142 6.23531 21.0678 6.23641 21.1218C6.2375 21.1758 6.25002 21.2291 6.27324 21.2785C6.29646 21.3279 6.32992 21.3726 6.37168 21.4098C6.41179 21.4468 6.4593 21.476 6.51149 21.4957C6.56369 21.5155 6.61953 21.5254 6.67582 21.5249C6.73436 21.5252 6.79239 21.5147 6.8466 21.494C6.9008 21.4733 6.95012 21.4428 6.99172 21.4043C7.03194 21.3656 7.06357 21.3198 7.08477 21.2696C7.10597 21.2194 7.11633 21.1657 7.11523 21.1117C7.11414 21.0577 7.10162 21.0045 7.0784 20.9551C7.05518 20.9056 7.02172 20.861 6.97996 20.8238C6.89651 20.7483 6.78473 20.7066 6.66874 20.7077C6.55274 20.7087 6.44183 20.7524 6.35992 20.8293Z" fill="white"/>
<path d="M7.58316 19.6522C7.54244 19.6904 7.51026 19.7359 7.48848 19.7859C7.46671 19.8359 7.45577 19.8894 7.45632 19.9434C7.45687 19.9974 7.46888 20.0507 7.49167 20.1003C7.51446 20.1499 7.54755 20.1948 7.58904 20.2323C7.67117 20.3054 7.77984 20.3467 7.89318 20.3479C7.98048 20.3475 8.06573 20.323 8.13814 20.2773C8.21055 20.2317 8.26688 20.1669 8.3 20.0913C8.33313 20.0157 8.34156 19.9326 8.32423 19.8524C8.30691 19.7723 8.2646 19.6988 8.20266 19.6412C8.16138 19.6036 8.11252 19.574 8.05893 19.5541C8.00534 19.5343 7.94808 19.5246 7.89046 19.5256C7.83284 19.5266 7.776 19.5384 7.72326 19.5601C7.67051 19.5818 7.62289 19.6131 7.58316 19.6522Z" fill="white"/>
<path d="M8.79982 18.4697C8.75961 18.5083 8.72799 18.5541 8.7068 18.6042C8.6856 18.6544 8.67525 18.708 8.67635 18.762C8.67744 18.8159 8.68995 18.8691 8.71317 18.9185C8.73638 18.9679 8.76983 19.0125 8.81158 19.0497C8.85164 19.0868 8.89913 19.1161 8.95133 19.1359C9.00352 19.1557 9.05939 19.1657 9.11571 19.1653C9.17436 19.166 9.23257 19.1557 9.28684 19.1349C9.34112 19.1141 9.39036 19.0832 9.43161 19.0442C9.47312 19.0056 9.506 18.9596 9.52833 18.909C9.55066 18.8584 9.56199 18.8041 9.56166 18.7493C9.56133 18.6945 9.54935 18.6404 9.52642 18.59C9.50348 18.5396 9.47006 18.494 9.42809 18.4558C9.38612 18.4176 9.33645 18.3877 9.28198 18.3677C9.22751 18.3477 9.16934 18.3381 9.11085 18.3393C9.05236 18.3406 8.99473 18.3528 8.94133 18.3752C8.88793 18.3976 8.83982 18.4297 8.79982 18.4697Z" fill="white"/>
<path d="M23.3289 4.95189C23.2886 4.99053 23.2569 5.03627 23.2356 5.08648C23.2143 5.13668 23.2039 5.19035 23.2049 5.24436C23.2059 5.29837 23.2184 5.35164 23.2417 5.40109C23.2649 5.45054 23.2983 5.49519 23.3401 5.53243C23.3803 5.56932 23.4278 5.59843 23.48 5.6181C23.5322 5.63776 23.588 5.6476 23.6443 5.64703C23.7318 5.64873 23.8178 5.62551 23.8909 5.58045C23.9641 5.5354 24.0209 5.47062 24.0538 5.39469C24.0868 5.31876 24.0944 5.23525 24.0755 5.1552C24.0567 5.07516 24.0124 5.00235 23.9484 4.9464C23.9074 4.90852 23.8589 4.8786 23.8055 4.85836C23.7521 4.83813 23.695 4.82797 23.6374 4.82848C23.5799 4.82899 23.523 4.84017 23.47 4.86135C23.4171 4.88253 23.3691 4.91329 23.3289 4.95189Z" fill="white"/>
<path d="M24.8615 4.47047C24.9205 4.47058 24.979 4.45946 25.0333 4.43778C25.0876 4.4161 25.1366 4.38432 25.1774 4.34435C25.2173 4.30551 25.2487 4.25968 25.2697 4.20949C25.2908 4.15929 25.301 4.10571 25.2999 4.0518C25.2988 3.99789 25.2864 3.94472 25.2634 3.89531C25.2403 3.8459 25.2071 3.80121 25.1656 3.76382C25.1242 3.72642 25.0752 3.69705 25.0216 3.67736C24.968 3.65768 24.9108 3.64807 24.8532 3.64909C24.7956 3.65011 24.7388 3.66175 24.686 3.68333C24.6333 3.7049 24.5855 3.73599 24.5456 3.77483C24.4862 3.83297 24.4464 3.90614 24.431 3.98527C24.4155 4.0644 24.4252 4.14603 24.4589 4.22006C24.4925 4.29408 24.5485 4.35726 24.6201 4.40176C24.6917 4.44627 24.7756 4.47015 24.8615 4.47047Z" fill="white"/>
<path d="M26.0842 3.2879C26.1433 3.28884 26.202 3.27809 26.2565 3.25636C26.3109 3.23463 26.3598 3.20241 26.4001 3.16179C26.4402 3.12302 26.4718 3.07718 26.493 3.02693C26.5141 2.97667 26.5245 2.92299 26.5234 2.86898C26.5223 2.81497 26.5098 2.7617 26.4866 2.71224C26.4634 2.66277 26.43 2.61809 26.3883 2.58077C26.304 2.50612 26.1918 2.46549 26.0758 2.46764C25.9598 2.46979 25.8493 2.51456 25.7683 2.59228C25.7089 2.65042 25.669 2.72358 25.6536 2.80271C25.6382 2.88184 25.6479 2.96347 25.6815 3.03749C25.7151 3.11152 25.7712 3.1747 25.8428 3.2192C25.9143 3.26371 25.9982 3.28759 26.0842 3.2879Z" fill="white"/>
<path d="M2.55054 15.0806C2.66568 15.0807 2.77655 15.0397 2.86056 14.966C2.93578 14.8992 2.98383 14.81 2.99648 14.7137C3.00913 14.6174 2.98559 14.52 2.92989 14.4381C2.87419 14.3563 2.78981 14.2952 2.69122 14.2652C2.59264 14.2353 2.48599 14.2384 2.38959 14.274C2.29319 14.3097 2.21304 14.3756 2.16289 14.4605C2.11275 14.5455 2.09574 14.6441 2.11477 14.7395C2.13381 14.8349 2.1877 14.9211 2.26722 14.9833C2.34673 15.0456 2.4469 15.08 2.55054 15.0806Z" fill="white"/>
<path d="M5.35927 12.0749C5.3191 12.0361 5.27113 12.0052 5.21812 11.984C5.16512 11.9627 5.10814 11.9515 5.05048 11.951C4.99282 11.9505 4.93562 11.9607 4.8822 11.981C4.82877 12.0013 4.78018 12.0313 4.73923 12.0693C4.67686 12.1263 4.63415 12.1995 4.6166 12.2794C4.59905 12.3593 4.60747 12.4423 4.64078 12.5177C4.67408 12.5931 4.73074 12.6574 4.80345 12.7024C4.87616 12.7474 4.96158 12.7709 5.04872 12.77C5.10501 12.7705 5.16085 12.7606 5.21304 12.7408C5.26524 12.7211 5.31275 12.6919 5.35286 12.6549C5.39418 12.6173 5.42715 12.5725 5.44986 12.5229C5.47257 12.4733 5.48457 12.4201 5.48517 12.3661C5.48576 12.3122 5.47494 12.2587 5.45333 12.2087C5.43173 12.1587 5.39976 12.1132 5.35927 12.0749Z" fill="white"/>
<path d="M9.09775 9.18924C9.13972 9.15168 9.17331 9.10668 9.19656 9.05687C9.21981 9.00706 9.23225 8.95341 9.23317 8.89906C9.2341 8.84471 9.22347 8.79073 9.20192 8.74025C9.18037 8.68977 9.14833 8.64381 9.10765 8.60502C9.06697 8.56623 9.01846 8.5354 8.96494 8.51431C8.91143 8.49323 8.85397 8.4823 8.79591 8.48218C8.73785 8.48206 8.68034 8.49274 8.62673 8.5136C8.57311 8.53447 8.52446 8.56509 8.48359 8.6037C8.42156 8.66038 8.37896 8.73308 8.36125 8.81252C8.34354 8.89196 8.35151 8.97455 8.38415 9.04973C8.41678 9.12492 8.47261 9.18928 8.54449 9.23463C8.61637 9.27998 8.70105 9.30424 8.78773 9.30433C8.90297 9.3044 9.01388 9.26323 9.09775 9.18924Z" fill="white"/>
<path d="M1.30436 16.2366C1.41967 16.2365 1.53059 16.1952 1.61438 16.121C1.69738 16.044 1.74432 15.9393 1.74487 15.83C1.74542 15.7206 1.69954 15.6155 1.61732 15.5377C1.5351 15.46 1.42327 15.4161 1.30644 15.4156C1.18961 15.415 1.07734 15.458 0.99434 15.535C0.912864 15.6123 0.867187 15.7166 0.867188 15.8252C0.867188 15.9339 0.912864 16.0382 0.99434 16.1155C1.03447 16.1544 1.08268 16.1852 1.13599 16.206C1.1893 16.2269 1.2466 16.2373 1.30436 16.2366Z" fill="white"/>
<path d="M3.49307 13.2249C3.43115 13.2817 3.38862 13.3545 3.37086 13.434C3.35311 13.5134 3.36092 13.596 3.39332 13.6713C3.42572 13.7466 3.48124 13.8112 3.55287 13.857C3.6245 13.9027 3.70901 13.9276 3.79572 13.9283C3.88242 13.9291 3.96742 13.9058 4.03996 13.8613C4.1125 13.8168 4.16933 13.7532 4.20325 13.6785C4.23717 13.6038 4.24666 13.5214 4.23051 13.4416C4.21437 13.3618 4.17333 13.2883 4.11257 13.2304C4.07248 13.1916 4.02457 13.1607 3.9716 13.1394C3.91864 13.1181 3.86169 13.1069 3.80405 13.1064C3.74641 13.1059 3.68924 13.1161 3.63585 13.1364C3.58246 13.1568 3.53393 13.1869 3.49307 13.2249Z" fill="white"/>
<path d="M6.6056 11.5003C6.68707 11.4219 6.73264 11.3168 6.73264 11.2073C6.73264 11.0979 6.68707 10.9928 6.6056 10.9143C6.52298 10.838 6.41161 10.7953 6.29558 10.7953C6.17955 10.7953 6.06818 10.838 5.98556 10.9143C5.94458 10.9523 5.91204 10.9975 5.88984 11.0473C5.86763 11.0971 5.8562 11.1506 5.8562 11.2046C5.8562 11.2586 5.86763 11.312 5.88984 11.3618C5.91204 11.4116 5.94458 11.4569 5.98556 11.4948C6.02581 11.5335 6.07407 11.564 6.12738 11.5846C6.18069 11.6052 6.23793 11.6153 6.29558 11.6144C6.41066 11.6147 6.52153 11.5739 6.6056 11.5003Z" fill="white"/>
<path d="M11.5967 6.87365C11.6572 6.81595 11.698 6.74281 11.7143 6.66343C11.7305 6.58405 11.7213 6.50195 11.6879 6.42744C11.6544 6.35292 11.5983 6.28931 11.5264 6.24457C11.4545 6.19983 11.3701 6.17596 11.2838 6.17596C11.1974 6.17596 11.113 6.19983 11.0411 6.24457C10.9693 6.28931 10.9131 6.35292 10.8797 6.42744C10.8462 6.50195 10.837 6.58405 10.8533 6.66343C10.8695 6.74281 10.9104 6.81595 10.9708 6.87365C11.055 6.95134 11.1685 6.9947 11.2867 6.99426C11.3443 6.99438 11.4014 6.98378 11.4546 6.96308C11.5079 6.94237 11.5562 6.91198 11.5967 6.87365Z" fill="white"/>
<path d="M7.85164 10.3448C7.9315 10.2672 7.97575 10.1635 7.97494 10.0557C7.97412 9.94798 7.9283 9.84482 7.84728 9.76831C7.76626 9.69179 7.65647 9.64801 7.54141 9.64632C7.42634 9.64463 7.31514 9.68518 7.2316 9.75928C7.15016 9.83654 7.10449 9.94073 7.10449 10.0493C7.10449 10.1578 7.15016 10.262 7.2316 10.3393C7.27217 10.3776 7.32046 10.408 7.37368 10.4287C7.4269 10.4494 7.48399 10.46 7.54162 10.4599C7.65683 10.4598 7.76768 10.4187 7.85164 10.3448Z" fill="white"/>
<path d="M10.3446 8.02917C10.4167 7.96182 10.4614 7.87313 10.4713 7.77827C10.4812 7.68341 10.4555 7.58829 10.3987 7.50919C10.3419 7.4301 10.2575 7.37195 10.16 7.34471C10.0624 7.31747 9.95779 7.32284 9.86399 7.35988C9.7702 7.39692 9.69308 7.46333 9.64583 7.54775C9.59859 7.63218 9.58416 7.72935 9.60501 7.82264C9.62587 7.91592 9.68072 7.99952 9.76017 8.05911C9.83961 8.1187 9.93871 8.15058 10.0405 8.14929C10.0973 8.14994 10.1536 8.13961 10.206 8.11894C10.2583 8.09827 10.3055 8.06771 10.3446 8.02917Z" fill="white"/>
<path d="M23.3638 16.4278C23.4038 16.4669 23.452 16.4977 23.5054 16.5184C23.5588 16.5391 23.6163 16.5492 23.674 16.5479C23.6825 16.5469 23.6909 16.5454 23.6992 16.5434C25.1229 18.4762 26.5248 20.3709 26.8735 20.8173C27.1944 21.2312 27.6346 21.4679 28.0742 21.4679C28.2479 21.4677 28.4191 21.4296 28.5742 21.3566C28.7294 21.2836 28.8642 21.1778 28.9679 21.0475C29.3327 20.6071 29.406 19.8964 29.1728 19.0492C29.0257 18.5132 28.6679 17.3807 28.2288 16.0259L29.0311 15.2753C29.0718 15.2371 29.1041 15.1919 29.1262 15.1421C29.1482 15.0923 29.1595 15.0389 29.1595 14.985C29.1595 14.9311 29.1482 14.8777 29.1262 14.8279C29.1041 14.7781 29.0718 14.7328 29.0311 14.6947C28.9903 14.6566 28.942 14.6264 28.8887 14.6058C28.8355 14.5851 28.7785 14.5745 28.7208 14.5745C28.6632 14.5745 28.6062 14.5851 28.553 14.6058C28.4997 14.6264 28.4514 14.6566 28.4106 14.6947L27.9416 15.1341C27.7469 14.5386 27.5431 13.9195 27.3393 13.3015L28.286 12.4147C28.3683 12.3377 28.4145 12.2333 28.4145 12.1244C28.4145 12.0155 28.3683 11.9111 28.286 11.8341C28.2037 11.7572 28.0922 11.7139 27.9758 11.7139C27.8595 11.7139 27.7479 11.7572 27.6656 11.8341L27.0457 12.4142C26.3451 10.3013 25.6947 8.3635 25.4743 7.70991C28.4524 4.53903 29.3327 2.34305 28.0903 1.18199C26.8703 0.0399596 24.5068 0.831666 21.0838 3.66023L16.0322 2.20542L16.7034 1.57735C16.7815 1.49951 16.8241 1.3963 16.8223 1.28958C16.8204 1.18285 16.7743 1.08097 16.6936 1.00553C16.6129 0.930083 16.504 0.886989 16.3899 0.885364C16.2758 0.883738 16.1656 0.923705 16.0825 0.996817L15.0844 1.93417L13.1269 1.36916L13.6468 0.882712C13.729 0.80573 13.7753 0.701329 13.7753 0.592459C13.7753 0.483589 13.729 0.379176 13.6468 0.302193C13.5645 0.225211 13.4529 0.181955 13.3366 0.181955C13.2202 0.181955 13.1086 0.225211 13.0263 0.302193L12.1781 1.09641C10.7265 0.677527 9.53487 0.333218 9.02945 0.185584C7.6565 -0.214779 6.60981 0.0519636 6.36645 0.799641C6.19263 1.33413 6.49374 1.93918 7.13395 2.34154C7.77416 2.74391 9.98735 4.1732 12.1246 5.55595C12.1446 5.61655 12.179 5.67214 12.2251 5.7186C12.2655 5.75725 12.3138 5.78786 12.3671 5.80859C12.4204 5.82932 12.4776 5.83972 12.5354 5.83921C12.5422 5.83818 12.549 5.83668 12.5557 5.83471C14.1233 6.84963 15.5872 7.79949 16.2723 8.24339C14.0896 10.5625 11.946 13.1413 10.5623 15.1146L6.87242 14.7383C6.80715 14.7312 6.741 14.7381 6.67901 14.7584C6.61701 14.7788 6.56079 14.8121 6.51461 14.8559L5.13149 16.1501C5.07929 16.1989 5.0411 16.2593 5.02045 16.3256C4.9998 16.392 4.99736 16.4621 5.01336 16.5295C5.02935 16.597 5.06326 16.6596 5.11196 16.7115C5.16065 16.7634 5.22256 16.8031 5.29195 16.8267L9.36319 18.2129L9.89804 18.7159L11.3838 22.5273C11.4091 22.5922 11.4514 22.65 11.5069 22.6955C11.5624 22.741 11.6292 22.7727 11.7012 22.7876C11.7732 22.8026 11.848 22.8003 11.9189 22.7811C11.9897 22.7618 12.0542 22.7262 12.1064 22.6775L13.4895 21.3833C13.536 21.34 13.5715 21.2875 13.5933 21.2296C13.6152 21.1717 13.6228 21.11 13.6157 21.049L13.2125 17.5974C15.3208 16.3012 18.0731 14.2944 20.5452 12.254C21.0469 12.9381 22.1364 14.4205 23.2761 15.9684C23.2376 16.0439 23.2253 16.1289 23.241 16.2113C23.2568 16.2937 23.2997 16.3694 23.3638 16.4278ZM20.9864 11.4063C20.9513 11.358 20.9055 11.3174 20.8522 11.2871C20.7989 11.2568 20.7393 11.2375 20.6773 11.2305C20.6154 11.2235 20.5526 11.2289 20.4931 11.2465C20.4336 11.264 20.3788 11.2932 20.3323 11.3322C17.7116 13.5262 14.7122 15.7157 12.5081 17.0459C12.4396 17.0873 12.3848 17.1458 12.3499 17.2147C12.3149 17.2837 12.3012 17.3604 12.3102 17.4362L12.7204 20.9394L11.9716 21.64L10.688 18.3485C10.6663 18.2922 10.6318 18.241 10.5869 18.1984L9.91568 17.5668C9.8704 17.524 9.81563 17.4911 9.75523 17.4703L6.23916 16.2727L6.98794 15.572L10.7319 15.9559C10.8129 15.9639 10.8947 15.9508 10.9682 15.9181C11.0417 15.8853 11.1041 15.8341 11.1485 15.7702C12.568 13.7078 14.9074 10.8998 17.2532 8.44056C17.2945 8.39715 17.3255 8.34605 17.3441 8.29061C17.3627 8.23518 17.3685 8.17667 17.3612 8.11897C17.3539 8.06127 17.3335 8.00568 17.3016 7.95587C17.2696 7.90606 17.2267 7.86316 17.1757 7.83001C17.0938 7.77646 8.94815 2.49068 7.61959 1.65692C7.28264 1.44473 7.15482 1.18399 7.20295 1.03635C7.28478 0.786128 7.95708 0.731084 8.76523 0.966797C10.5661 1.49177 21.0597 4.513 21.0597 4.513C21.132 4.53389 21.2088 4.53689 21.2827 4.52172C21.3565 4.50654 21.4249 4.47371 21.4812 4.42643C24.3784 1.99973 25.9161 1.49027 26.6954 1.49027C27.019 1.49027 27.2714 1.57985 27.4672 1.76251C28.3063 2.54722 27.2794 4.57906 24.6512 7.33806C24.6005 7.39111 24.5654 7.45559 24.5494 7.52517C24.5333 7.59475 24.5369 7.66704 24.5597 7.73493C24.5924 7.83102 27.8089 17.3847 28.3224 19.2519C28.5583 20.1106 28.3448 20.457 28.2737 20.543C28.2513 20.5735 28.2215 20.5984 28.1867 20.6158C28.1519 20.6332 28.1131 20.6426 28.0737 20.6431C27.9196 20.6431 27.7351 20.525 27.5816 20.3283C26.8398 19.3825 21.0453 11.4853 20.9864 11.4063Z" fill="white"/>
<path d="M12.1881 26.2987C12.1064 26.376 12.0605 26.4803 12.0605 26.589C12.0605 26.6977 12.1064 26.8021 12.1881 26.8793C12.2285 26.9177 12.2767 26.9482 12.3298 26.9689C12.383 26.9896 12.44 27.0002 12.4976 26.9999C12.5554 27.0012 12.6129 26.9912 12.6663 26.9704C12.7197 26.9496 12.7679 26.9186 12.8076 26.8793C12.8492 26.8416 12.8823 26.7965 12.9049 26.7466C12.9274 26.6968 12.9391 26.6432 12.9391 26.589C12.9391 26.5349 12.9274 26.4812 12.9049 26.4314C12.8823 26.3815 12.8492 26.3364 12.8076 26.2987C12.725 26.2227 12.6137 26.1801 12.4979 26.1801C12.382 26.1801 12.2708 26.2227 12.1881 26.2987Z" fill="white"/>
<path d="M18.396 20.4935C18.3145 20.5709 18.2688 20.6751 18.2688 20.7838C18.2688 20.8924 18.3145 20.9967 18.396 21.074C18.4782 21.1509 18.5897 21.1941 18.706 21.1941C18.8222 21.1941 18.9337 21.1509 19.016 21.074C19.0975 20.9967 19.1431 20.8924 19.1431 20.7838C19.1431 20.6751 19.0975 20.5709 19.016 20.4935C18.9758 20.4546 18.9276 20.4236 18.8743 20.4025C18.8211 20.3813 18.7638 20.3705 18.706 20.3705C18.6481 20.3705 18.5909 20.3813 18.5376 20.4025C18.4843 20.4236 18.4362 20.4546 18.396 20.4935Z" fill="white"/>
<path d="M19.6364 19.3349C19.5549 19.4122 19.5093 19.5164 19.5093 19.625C19.5093 19.7335 19.5549 19.8377 19.6364 19.915C19.7197 19.9905 19.8305 20.0336 19.9464 20.0356C20.0626 20.0346 20.1738 19.9914 20.2564 19.915C20.3379 19.8377 20.3835 19.7335 20.3835 19.625C20.3835 19.5164 20.3379 19.4122 20.2564 19.3349C20.2162 19.296 20.168 19.2651 20.1148 19.2439C20.0615 19.2228 20.0043 19.2119 19.9464 19.2119C19.8886 19.2119 19.8313 19.2228 19.778 19.2439C19.7248 19.2651 19.6766 19.296 19.6364 19.3349Z" fill="white"/>
<path d="M22.1173 17.0078C22.0359 17.0851 21.9902 17.1893 21.9902 17.2978C21.9902 17.4064 22.0359 17.5106 22.1173 17.5878C22.1578 17.6264 22.206 17.6569 22.2593 17.6777C22.3125 17.6985 22.3697 17.7091 22.4274 17.7089C22.4851 17.7102 22.5425 17.7 22.5958 17.6792C22.6492 17.6583 22.6972 17.6272 22.7368 17.5878C22.7788 17.5504 22.8122 17.5054 22.8351 17.4556C22.8579 17.4057 22.8697 17.3521 22.8697 17.2978C22.8697 17.2436 22.8579 17.1899 22.8351 17.14C22.8122 17.0902 22.7788 17.0452 22.7368 17.0078C22.6543 16.9316 22.543 16.8888 22.4271 16.8888C22.3111 16.8888 22.1999 16.9316 22.1173 17.0078Z" fill="white"/>
<path d="M20.8772 18.1684C20.7955 18.2458 20.7498 18.3501 20.7498 18.4589C20.7498 18.5677 20.7955 18.672 20.8772 18.7494C20.9177 18.7875 20.966 18.8177 21.0191 18.8383C21.0722 18.8588 21.1292 18.8693 21.1867 18.869C21.2443 18.8697 21.3014 18.8594 21.3547 18.8389C21.408 18.8183 21.4563 18.7879 21.4967 18.7494C21.5383 18.7117 21.5713 18.6666 21.5939 18.6167C21.6165 18.5667 21.6281 18.5131 21.6281 18.4589C21.6281 18.4047 21.6165 18.351 21.5939 18.3011C21.5713 18.2512 21.5383 18.2061 21.4967 18.1684C21.4142 18.0921 21.3029 18.0494 21.1869 18.0494C21.071 18.0494 20.9597 18.0921 20.8772 18.1684Z" fill="white"/>
<path d="M13.4262 25.1387C13.3447 25.216 13.2991 25.3202 13.2991 25.4287C13.2991 25.5373 13.3447 25.6415 13.4262 25.7187C13.4668 25.7569 13.5151 25.7872 13.5683 25.8078C13.6216 25.8285 13.6786 25.839 13.7362 25.8388C13.7939 25.84 13.8513 25.8299 13.9047 25.8092C13.958 25.7886 14.0062 25.7577 14.0462 25.7187C14.0878 25.6811 14.1208 25.6361 14.1434 25.5862C14.166 25.5364 14.1776 25.4828 14.1776 25.4287C14.1776 25.3746 14.166 25.321 14.1434 25.2712C14.1208 25.2214 14.0878 25.1763 14.0462 25.1387C13.9638 25.0621 13.8524 25.019 13.7362 25.019C13.62 25.019 13.5086 25.0621 13.4262 25.1387Z" fill="white"/>
<path d="M17.1556 21.656C17.1139 21.6936 17.0807 21.7387 17.058 21.7886C17.0354 21.8384 17.0237 21.8921 17.0237 21.9463C17.0237 22.0005 17.0354 22.0541 17.058 22.104C17.0807 22.1539 17.1139 22.199 17.1556 22.2366C17.1957 22.2753 17.2439 22.3059 17.2971 22.3267C17.3503 22.3474 17.4074 22.3578 17.4651 22.3572C17.5227 22.3573 17.5798 22.3468 17.633 22.3261C17.6863 22.3053 17.7346 22.2749 17.7751 22.2366C17.8566 22.1592 17.9022 22.0549 17.9022 21.9463C17.9022 21.8377 17.8566 21.7334 17.7751 21.656C17.7349 21.6172 17.6867 21.5863 17.6335 21.5652C17.5803 21.5441 17.5231 21.5332 17.4653 21.5332C17.4076 21.5332 17.3504 21.5441 17.2971 21.5652C17.2439 21.5863 17.1958 21.6172 17.1556 21.656Z" fill="white"/>
<path d="M14.6746 23.9771C14.6331 24.0148 14.6 24.0599 14.5774 24.1098C14.5548 24.1596 14.5432 24.2132 14.5432 24.2674C14.5432 24.3216 14.5548 24.3752 14.5774 24.425C14.6 24.4749 14.6331 24.52 14.6746 24.5577C14.7144 24.597 14.7625 24.6281 14.8159 24.649C14.8693 24.6699 14.9268 24.68 14.9847 24.6788C15.0424 24.679 15.0995 24.6683 15.1527 24.6475C15.206 24.6267 15.2542 24.5962 15.2947 24.5577C15.3354 24.5195 15.3677 24.4743 15.3897 24.4245C15.4118 24.3747 15.4231 24.3213 15.4231 24.2674C15.4231 24.2135 15.4118 24.1601 15.3897 24.1103C15.3677 24.0605 15.3354 24.0153 15.2947 23.9771C15.254 23.939 15.2056 23.9088 15.1524 23.8882C15.0992 23.8675 15.0422 23.8569 14.9847 23.8569C14.9271 23.8569 14.8701 23.8675 14.8169 23.8882C14.7637 23.9088 14.7154 23.939 14.6746 23.9771Z" fill="white"/>
<path d="M15.9148 22.8171C15.8733 22.8547 15.8402 22.8998 15.8177 22.9496C15.7951 22.9994 15.7834 23.053 15.7834 23.1071C15.7834 23.1612 15.7951 23.2148 15.8177 23.2646C15.8402 23.3144 15.8733 23.3595 15.9148 23.3971C15.955 23.4359 16.0032 23.4667 16.0565 23.4874C16.1098 23.5082 16.1671 23.5185 16.2249 23.5177C16.2825 23.518 16.3396 23.5075 16.3929 23.4868C16.4461 23.4661 16.4944 23.4356 16.5349 23.3971C16.6148 23.3197 16.6591 23.216 16.6581 23.1083C16.6571 23.0006 16.6109 22.8976 16.5296 22.8215C16.4482 22.7454 16.3382 22.7023 16.2232 22.7015C16.1082 22.7007 15.9974 22.7422 15.9148 22.8171Z" fill="white"/>
</svg>
