<svg width="154" height="54" viewBox="0 0 154 54" fill="none" xmlns="http://www.w3.org/2000/svg">
<rect x="0.667969" y="0.780273" width="153" height="53" rx="10" fill="black" fill-opacity="0.2"/>
<path d="M30.8012 36.8588C24.0504 36.8588 17.668 30.4764 17.668 23.7256C17.668 22.7563 18.4565 21.9678 19.4258 21.9678H22.1918L23.588 26.1557L22.435 27.8855C23.188 29.4648 25.062 31.3387 26.6413 32.0918L28.3711 30.9388L32.559 32.335V35.101C32.559 36.0703 31.7705 36.8588 30.8012 36.8588Z" fill="white"/>
<path d="M60.196 32.2803V23.3343L60.546 23.6983H56.85V22.4803H64.928V23.6983H61.232L61.568 23.3343V32.2803H60.196ZM68.9439 32.3643C68.1506 32.3643 67.4506 32.2009 66.8439 31.8743C66.2466 31.5476 65.7799 31.0996 65.4439 30.5303C65.1172 29.9609 64.9539 29.3076 64.9539 28.5703C64.9539 27.8329 65.1126 27.1796 65.4299 26.6103C65.7566 26.0409 66.1999 25.5976 66.7599 25.2803C67.3292 24.9536 67.9686 24.7903 68.6779 24.7903C69.3966 24.7903 70.0312 24.9489 70.5819 25.2663C71.1326 25.5836 71.5619 26.0316 71.8699 26.6103C72.1872 27.1796 72.3459 27.8469 72.3459 28.6123C72.3459 28.6683 72.3412 28.7336 72.3319 28.8083C72.3319 28.8829 72.3272 28.9529 72.3179 29.0183H66.0039V28.0523H71.6179L71.0719 28.3883C71.0812 27.9123 70.9832 27.4876 70.7779 27.1143C70.5726 26.7409 70.2879 26.4516 69.9239 26.2463C69.5692 26.0316 69.1539 25.9243 68.6779 25.9243C68.2112 25.9243 67.7959 26.0316 67.4319 26.2463C67.0679 26.4516 66.7832 26.7456 66.5779 27.1283C66.3726 27.5016 66.2699 27.9309 66.2699 28.4163V28.6403C66.2699 29.1349 66.3819 29.5783 66.6059 29.9703C66.8392 30.3529 67.1612 30.6516 67.5719 30.8663C67.9826 31.0809 68.4539 31.1883 68.9859 31.1883C69.4246 31.1883 69.8212 31.1136 70.1759 30.9643C70.5399 30.8149 70.8572 30.5909 71.1279 30.2923L71.8699 31.1603C71.5339 31.5523 71.1139 31.8509 70.6099 32.0563C70.1152 32.2616 69.5599 32.3643 68.9439 32.3643ZM73.0759 32.2663L73.1599 31.1323C73.2252 31.1416 73.2859 31.1509 73.3419 31.1603C73.3979 31.1696 73.4492 31.1743 73.4959 31.1743C73.7945 31.1743 74.0279 31.0716 74.1959 30.8663C74.3732 30.6609 74.5039 30.3903 74.5879 30.0543C74.6719 29.7089 74.7325 29.3216 74.7699 28.8923C74.8072 28.4629 74.8352 28.0336 74.8539 27.6043L74.9799 24.8603H80.6779V32.2803H79.3339V25.6443L79.6559 26.0363H75.8479L76.1559 25.6303L76.0579 27.6883C76.0299 28.3416 75.9785 28.9529 75.9039 29.5223C75.8292 30.0916 75.7125 30.5909 75.5539 31.0203C75.4045 31.4496 75.1945 31.7856 74.9239 32.0283C74.6625 32.2709 74.3219 32.3923 73.9019 32.3923C73.7805 32.3923 73.6499 32.3783 73.5099 32.3503C73.3792 32.3316 73.2345 32.3036 73.0759 32.2663ZM86.5806 32.3643C85.7873 32.3643 85.0873 32.2009 84.4806 31.8743C83.8833 31.5476 83.4166 31.0996 83.0806 30.5303C82.7539 29.9609 82.5906 29.3076 82.5906 28.5703C82.5906 27.8329 82.7493 27.1796 83.0666 26.6103C83.3933 26.0409 83.8366 25.5976 84.3966 25.2803C84.9659 24.9536 85.6053 24.7903 86.3146 24.7903C87.0333 24.7903 87.6679 24.9489 88.2186 25.2663C88.7693 25.5836 89.1986 26.0316 89.5066 26.6103C89.8239 27.1796 89.9826 27.8469 89.9826 28.6123C89.9826 28.6683 89.9779 28.7336 89.9686 28.8083C89.9686 28.8829 89.9639 28.9529 89.9546 29.0183H83.6406V28.0523H89.2546L88.7086 28.3883C88.7179 27.9123 88.6199 27.4876 88.4146 27.1143C88.2093 26.7409 87.9246 26.4516 87.5606 26.2463C87.2059 26.0316 86.7906 25.9243 86.3146 25.9243C85.8479 25.9243 85.4326 26.0316 85.0686 26.2463C84.7046 26.4516 84.4199 26.7456 84.2146 27.1283C84.0093 27.5016 83.9066 27.9309 83.9066 28.4163V28.6403C83.9066 29.1349 84.0186 29.5783 84.2426 29.9703C84.4759 30.3529 84.7979 30.6516 85.2086 30.8663C85.6193 31.0809 86.0906 31.1883 86.6226 31.1883C87.0613 31.1883 87.4579 31.1136 87.8126 30.9643C88.1766 30.8149 88.4939 30.5909 88.7646 30.2923L89.5066 31.1603C89.1706 31.5523 88.7506 31.8509 88.2466 32.0563C87.7519 32.2616 87.1966 32.3643 86.5806 32.3643ZM96.4916 32.3923C96.4823 32.3923 96.4496 32.3923 96.3936 32.3923C96.347 32.3923 96.3003 32.3923 96.2536 32.3923C96.207 32.3923 96.179 32.3923 96.1696 32.3923C94.6483 32.3736 93.4676 32.0376 92.6276 31.3843C91.7876 30.7216 91.3676 29.7789 91.3676 28.5563C91.3676 27.3429 91.7876 26.4143 92.6276 25.7703C93.477 25.1169 94.6716 24.7856 96.2116 24.7763C96.2303 24.7763 96.2583 24.7763 96.2956 24.7763C96.3423 24.7763 96.3843 24.7763 96.4216 24.7763C96.4683 24.7763 96.4963 24.7763 96.5056 24.7763C98.0643 24.7763 99.273 25.1029 100.132 25.7563C101 26.4096 101.434 27.3429 101.434 28.5563C101.434 29.7883 101 30.7356 100.132 31.3983C99.2636 32.0609 98.0503 32.3923 96.4916 32.3923ZM96.4636 31.2163C97.2756 31.2163 97.9476 31.1136 98.4796 30.9083C99.021 30.7029 99.427 30.4043 99.6976 30.0123C99.9683 29.6203 100.104 29.1349 100.104 28.5563C100.104 27.9869 99.9683 27.5109 99.6976 27.1283C99.427 26.7456 99.021 26.4563 98.4796 26.2603C97.9476 26.0643 97.2756 25.9663 96.4636 25.9663C96.445 25.9663 96.4076 25.9663 96.3516 25.9663C96.2956 25.9663 96.263 25.9663 96.2536 25.9663C95.4603 25.9663 94.7976 26.0689 94.2656 26.2743C93.743 26.4703 93.351 26.7596 93.0896 27.1423C92.8283 27.5249 92.6976 27.9963 92.6976 28.5563C92.6976 29.1256 92.8283 29.6063 93.0896 29.9983C93.3603 30.3903 93.757 30.6889 94.2796 30.8943C94.8116 31.0996 95.4696 31.2069 96.2536 31.2163C96.2723 31.2163 96.305 31.2163 96.3516 31.2163C96.4076 31.2163 96.445 31.2163 96.4636 31.2163ZM95.7356 34.9963V21.8923H97.0516V34.9963H95.7356ZM106.511 32.3643C105.765 32.3643 105.102 32.2009 104.523 31.8743C103.945 31.5476 103.487 31.0996 103.151 30.5303C102.815 29.9516 102.647 29.2983 102.647 28.5703C102.647 27.8329 102.815 27.1796 103.151 26.6103C103.487 26.0409 103.945 25.5976 104.523 25.2803C105.102 24.9536 105.765 24.7903 106.511 24.7903C107.249 24.7903 107.907 24.9536 108.485 25.2803C109.073 25.5976 109.531 26.0409 109.857 26.6103C110.193 27.1703 110.361 27.8236 110.361 28.5703C110.361 29.3076 110.193 29.9609 109.857 30.5303C109.531 31.0996 109.073 31.5476 108.485 31.8743C107.907 32.2009 107.249 32.3643 106.511 32.3643ZM106.511 31.1883C106.987 31.1883 107.412 31.0809 107.785 30.8663C108.168 30.6516 108.467 30.3483 108.681 29.9563C108.896 29.5549 109.003 29.0929 109.003 28.5703C109.003 28.0383 108.896 27.5809 108.681 27.1983C108.467 26.8063 108.168 26.5029 107.785 26.2883C107.412 26.0736 106.987 25.9663 106.511 25.9663C106.035 25.9663 105.611 26.0736 105.237 26.2883C104.864 26.5029 104.565 26.8063 104.341 27.1983C104.117 27.5809 104.005 28.0383 104.005 28.5703C104.005 29.0929 104.117 29.5549 104.341 29.9563C104.565 30.3483 104.864 30.6516 105.237 30.8663C105.611 31.0809 106.035 31.1883 106.511 31.1883ZM112.302 32.2803V24.8603H113.646V28.0103H117.874V24.8603H119.218V32.2803H117.874V29.1723H113.646V32.2803H112.302Z" fill="white"/>
</svg>
