<svg width="32" height="32" viewBox="0 0 32 32" fill="none" xmlns="http://www.w3.org/2000/svg">
<rect width="32" height="32" rx="16" fill="white"/>
<rect width="32" height="32" rx="16" fill="url(#paint0_linear_213_4575)"/>
<path d="M18.759 10.5088C18.759 12.0324 17.5239 13.2676 16.0002 13.2676V14.7676C18.3523 14.7676 20.259 12.8608 20.259 10.5088H18.759ZM16.0002 13.2676C14.4766 13.2676 13.2414 12.0324 13.2414 10.5088H11.7414C11.7414 12.8608 13.6482 14.7676 16.0002 14.7676V13.2676ZM13.2414 10.5088C13.2414 8.98515 14.4766 7.75 16.0002 7.75V6.25C13.6482 6.25 11.7414 8.15672 11.7414 10.5088H13.2414ZM16.0002 7.75C17.5239 7.75 18.759 8.98515 18.759 10.5088H20.259C20.259 8.15672 18.3523 6.25 16.0002 6.25V7.75ZM13.3686 17.3991H18.6318V15.8991H13.3686V17.3991ZM18.6318 22.9167H13.3686V24.4167H18.6318V22.9167ZM13.3686 22.9167C11.845 22.9167 10.6099 21.6815 10.6099 20.1579H9.10986C9.10986 22.51 11.0166 24.4167 13.3686 24.4167V22.9167ZM21.3906 20.1579C21.3906 21.6815 20.1554 22.9167 18.6318 22.9167V24.4167C20.9839 24.4167 22.8906 22.51 22.8906 20.1579H21.3906ZM18.6318 17.3991C20.1554 17.3991 21.3906 18.6343 21.3906 20.1579H22.8906C22.8906 17.8059 20.9839 15.8991 18.6318 15.8991V17.3991ZM13.3686 15.8991C11.0166 15.8991 9.10986 17.8059 9.10986 20.1579H10.6099C10.6099 18.6343 11.845 17.3991 13.3686 17.3991V15.8991Z" fill="black"/>
<defs>
<linearGradient id="paint0_linear_213_4575" x1="-0.00177291" y1="0.00127293" x2="31.9962" y2="31.9992" gradientUnits="userSpaceOnUse">
<stop stop-color="#AF8338"/>
<stop offset="0.1" stop-color="#AF8338"/>
<stop offset="0.11" stop-color="#AF8338"/>
<stop offset="0.16" stop-color="#C09951"/>
<stop offset="0.26" stop-color="#D9BB77"/>
<stop offset="0.34" stop-color="#EBD392"/>
<stop offset="0.42" stop-color="#F6E2A2"/>
<stop offset="0.48" stop-color="#FAE7A8"/>
<stop offset="0.9" stop-color="#AF8338"/>
<stop offset="0.96" stop-color="#825428"/>
<stop offset="1" stop-color="#6F4022"/>
</linearGradient>
</defs>
</svg>
