<svg width="142" height="55" viewBox="0 0 142 55" fill="none" xmlns="http://www.w3.org/2000/svg">
<rect x="0.667969" y="0.280273" width="141" height="54" rx="10" fill="url(#paint0_linear_213_4752)"/>
<path fill-rule="evenodd" clip-rule="evenodd" d="M18.3632 27.1007C23.319 24.9415 26.6237 23.5181 28.2772 22.8303C32.9983 20.8667 33.9793 20.5255 34.6187 20.5143C34.7593 20.5118 35.0737 20.5467 35.2774 20.7119C35.4494 20.8515 35.4967 21.04 35.5194 21.1723C35.542 21.3046 35.5702 21.606 35.5478 21.8415C35.2919 24.5296 34.1849 31.053 33.6218 34.0637C33.3835 35.3376 32.9142 35.7648 32.46 35.8066C31.4728 35.8974 30.7231 35.1542 29.7669 34.5274C28.2707 33.5466 27.4254 32.936 25.9731 31.979C24.2947 30.8729 25.3827 30.265 26.3393 29.2715C26.5896 29.0115 30.9393 25.0551 31.0235 24.6962C31.034 24.6513 31.0438 24.484 30.9444 24.3956C30.845 24.3073 30.6983 24.3375 30.5924 24.3615C30.4424 24.3956 28.0521 25.9754 23.4217 29.1011C22.7433 29.567 22.1287 29.7939 21.5781 29.7821C20.9711 29.7689 19.8035 29.4388 18.9356 29.1567C17.8709 28.8106 17.0248 28.6277 17.0985 28.0399C17.1368 27.7338 17.5584 27.4207 18.3632 27.1007Z" fill="white"/>
<path d="M60.084 32.2803V23.6983H56.724V22.4803H64.83V23.6983H61.47V32.2803H60.084ZM68.6971 32.3643C67.9038 32.3643 67.2038 32.2009 66.5971 31.8743C65.9998 31.5476 65.5331 31.0996 65.1971 30.5303C64.8705 29.9609 64.7071 29.3076 64.7071 28.5703C64.7071 27.8329 64.8658 27.1796 65.1831 26.6103C65.5098 26.0409 65.9531 25.5976 66.5131 25.2803C67.0825 24.9536 67.7218 24.7903 68.4311 24.7903C69.1498 24.7903 69.7845 24.9489 70.3351 25.2663C70.8858 25.5836 71.3151 26.0316 71.6231 26.6103C71.9405 27.1796 72.0991 27.8469 72.0991 28.6123C72.0991 28.6683 72.0945 28.7336 72.0851 28.8083C72.0851 28.8829 72.0805 28.9529 72.0711 29.0183H65.7571V28.0523H71.3711L70.8251 28.3883C70.8345 27.9123 70.7365 27.4876 70.5311 27.1143C70.3258 26.7409 70.0411 26.4516 69.6771 26.2463C69.3225 26.0316 68.9071 25.9243 68.4311 25.9243C67.9645 25.9243 67.5491 26.0316 67.1851 26.2463C66.8211 26.4516 66.5365 26.7456 66.3311 27.1283C66.1258 27.5016 66.0231 27.9309 66.0231 28.4163V28.6403C66.0231 29.1349 66.1351 29.5783 66.3591 29.9703C66.5925 30.3529 66.9145 30.6516 67.3251 30.8663C67.7358 31.0809 68.2071 31.1883 68.7391 31.1883C69.1778 31.1883 69.5745 31.1136 69.9291 30.9643C70.2931 30.8149 70.6105 30.5909 70.8811 30.2923L71.6231 31.1603C71.2871 31.5523 70.8671 31.8509 70.3631 32.0563C69.8685 32.2616 69.3131 32.3643 68.6971 32.3643ZM73.9654 32.2803V21.8923H75.3094V32.2803H73.9654ZM81.1796 32.3643C80.3862 32.3643 79.6862 32.2009 79.0796 31.8743C78.4822 31.5476 78.0156 31.0996 77.6796 30.5303C77.3529 29.9609 77.1896 29.3076 77.1896 28.5703C77.1896 27.8329 77.3482 27.1796 77.6656 26.6103C77.9922 26.0409 78.4356 25.5976 78.9956 25.2803C79.5649 24.9536 80.2042 24.7903 80.9136 24.7903C81.6322 24.7903 82.2669 24.9489 82.8176 25.2663C83.3682 25.5836 83.7976 26.0316 84.1056 26.6103C84.4229 27.1796 84.5816 27.8469 84.5816 28.6123C84.5816 28.6683 84.5769 28.7336 84.5676 28.8083C84.5676 28.8829 84.5629 28.9529 84.5536 29.0183H78.2396V28.0523H83.8536L83.3076 28.3883C83.3169 27.9123 83.2189 27.4876 83.0136 27.1143C82.8082 26.7409 82.5236 26.4516 82.1596 26.2463C81.8049 26.0316 81.3896 25.9243 80.9136 25.9243C80.4469 25.9243 80.0316 26.0316 79.6676 26.2463C79.3036 26.4516 79.0189 26.7456 78.8136 27.1283C78.6082 27.5016 78.5056 27.9309 78.5056 28.4163V28.6403C78.5056 29.1349 78.6176 29.5783 78.8416 29.9703C79.0749 30.3529 79.3969 30.6516 79.8076 30.8663C80.2182 31.0809 80.6896 31.1883 81.2216 31.1883C81.6602 31.1883 82.0569 31.1136 82.4116 30.9643C82.7756 30.8149 83.0929 30.5909 83.3636 30.2923L84.1056 31.1603C83.7696 31.5523 83.3496 31.8509 82.8456 32.0563C82.3509 32.2616 81.7956 32.3643 81.1796 32.3643ZM89.6958 35.0803C89.0145 35.0803 88.3518 34.9823 87.7078 34.7863C87.0732 34.5996 86.5552 34.3289 86.1538 33.9743L86.7978 32.9383C87.1432 33.2369 87.5678 33.4703 88.0718 33.6383C88.5758 33.8156 89.1032 33.9043 89.6538 33.9043C90.5312 33.9043 91.1752 33.6989 91.5858 33.2883C91.9965 32.8776 92.2018 32.2523 92.2018 31.4123V29.8443L92.3418 28.3743L92.2718 26.8903V24.8603H93.5458V31.2723C93.5458 32.5789 93.2192 33.5403 92.5658 34.1563C91.9125 34.7723 90.9558 35.0803 89.6958 35.0803ZM89.5278 31.9723C88.8092 31.9723 88.1652 31.8229 87.5958 31.5243C87.0358 31.2163 86.5878 30.7916 86.2518 30.2503C85.9252 29.7089 85.7618 29.0836 85.7618 28.3743C85.7618 27.6556 85.9252 27.0303 86.2518 26.4983C86.5878 25.9569 87.0358 25.5369 87.5958 25.2383C88.1652 24.9396 88.8092 24.7903 89.5278 24.7903C90.1625 24.7903 90.7412 24.9209 91.2638 25.1823C91.7865 25.4343 92.2018 25.8263 92.5098 26.3583C92.8272 26.8903 92.9858 27.5623 92.9858 28.3743C92.9858 29.1769 92.8272 29.8443 92.5098 30.3763C92.2018 30.9083 91.7865 31.3096 91.2638 31.5803C90.7412 31.8416 90.1625 31.9723 89.5278 31.9723ZM89.6818 30.7963C90.1765 30.7963 90.6152 30.6936 90.9978 30.4883C91.3805 30.2829 91.6792 29.9983 91.8938 29.6343C92.1178 29.2703 92.2298 28.8503 92.2298 28.3743C92.2298 27.8983 92.1178 27.4783 91.8938 27.1143C91.6792 26.7503 91.3805 26.4703 90.9978 26.2743C90.6152 26.0689 90.1765 25.9663 89.6818 25.9663C89.1872 25.9663 88.7438 26.0689 88.3518 26.2743C87.9692 26.4703 87.6658 26.7503 87.4418 27.1143C87.2272 27.4783 87.1198 27.8983 87.1198 28.3743C87.1198 28.8503 87.2272 29.2703 87.4418 29.6343C87.6658 29.9983 87.9692 30.2829 88.3518 30.4883C88.7438 30.6936 89.1872 30.7963 89.6818 30.7963ZM96.1138 32.2803V24.8603H97.4018V26.8763L97.2758 26.3723C97.4812 25.8589 97.8265 25.4669 98.3118 25.1963C98.7972 24.9256 99.3945 24.7903 100.104 24.7903V26.0923C100.048 26.0829 99.9918 26.0783 99.9358 26.0783C99.8892 26.0783 99.8425 26.0783 99.7958 26.0783C99.0772 26.0783 98.5078 26.2929 98.0878 26.7223C97.6678 27.1516 97.4578 27.7723 97.4578 28.5843V32.2803H96.1138ZM105.819 32.2803V30.7123L105.749 30.4183V27.7443C105.749 27.1749 105.581 26.7363 105.245 26.4283C104.919 26.1109 104.424 25.9523 103.761 25.9523C103.323 25.9523 102.893 26.0269 102.473 26.1763C102.053 26.3163 101.699 26.5076 101.409 26.7503L100.849 25.7423C101.232 25.4343 101.689 25.2009 102.221 25.0423C102.763 24.8743 103.327 24.7903 103.915 24.7903C104.933 24.7903 105.717 25.0376 106.267 25.5323C106.818 26.0269 107.093 26.7829 107.093 27.8003V32.2803H105.819ZM103.383 32.3643C102.833 32.3643 102.347 32.2709 101.927 32.0843C101.517 31.8976 101.199 31.6409 100.975 31.3143C100.751 30.9783 100.639 30.6003 100.639 30.1803C100.639 29.7789 100.733 29.4149 100.919 29.0883C101.115 28.7616 101.428 28.5003 101.857 28.3043C102.296 28.1083 102.884 28.0103 103.621 28.0103H105.973V28.9763H103.677C103.005 28.9763 102.553 29.0883 102.319 29.3123C102.086 29.5363 101.969 29.8069 101.969 30.1243C101.969 30.4883 102.114 30.7823 102.403 31.0063C102.693 31.2209 103.094 31.3283 103.607 31.3283C104.111 31.3283 104.55 31.2163 104.923 30.9923C105.306 30.7683 105.581 30.4416 105.749 30.0123L106.015 30.9363C105.838 31.3749 105.525 31.7249 105.077 31.9863C104.629 32.2383 104.065 32.3643 103.383 32.3643ZM118.863 24.7903C119.46 24.7903 119.987 24.9069 120.445 25.1403C120.902 25.3736 121.257 25.7283 121.509 26.2043C121.77 26.6803 121.901 27.2823 121.901 28.0103V32.2803H120.557V28.1643C120.557 27.4456 120.389 26.9043 120.053 26.5403C119.717 26.1763 119.245 25.9943 118.639 25.9943C118.191 25.9943 117.799 26.0876 117.463 26.2743C117.127 26.4609 116.865 26.7363 116.679 27.1003C116.501 27.4643 116.413 27.9169 116.413 28.4583V32.2803H115.069V28.1643C115.069 27.4456 114.901 26.9043 114.565 26.5403C114.238 26.1763 113.767 25.9943 113.151 25.9943C112.712 25.9943 112.325 26.0876 111.989 26.2743C111.653 26.4609 111.391 26.7363 111.205 27.1003C111.018 27.4643 110.925 27.9169 110.925 28.4583V32.2803H109.581V24.8603H110.869V26.8343L110.659 26.3303C110.892 25.8449 111.251 25.4669 111.737 25.1963C112.222 24.9256 112.787 24.7903 113.431 24.7903C114.14 24.7903 114.751 24.9676 115.265 25.3223C115.778 25.6676 116.114 26.1949 116.273 26.9043L115.727 26.6803C115.951 26.1109 116.343 25.6536 116.903 25.3083C117.463 24.9629 118.116 24.7903 118.863 24.7903Z" fill="white"/>
<defs>
<linearGradient id="paint0_linear_213_4752" x1="71.168" y1="0.280273" x2="71.168" y2="53.8798" gradientUnits="userSpaceOnUse">
<stop stop-color="#2AABEE"/>
<stop offset="1" stop-color="#229ED9"/>
</linearGradient>
</defs>
</svg>
