<svg width="30" height="30" viewBox="0 0 30 30" fill="none" xmlns="http://www.w3.org/2000/svg">
<g clip-path="url(#clip0_201_3607)">
<path d="M4.53437 27.0293C4.55212 27.0871 4.58228 27.1404 4.62276 27.1854C4.66323 27.2304 4.71303 27.266 4.76869 27.2897C4.81977 27.3108 4.87445 27.3217 4.9297 27.322C4.93534 27.322 4.94098 27.322 4.94713 27.322L9.0533 30.2105C9.08937 30.2594 9.13576 30.2998 9.18919 30.3289C9.22094 30.3407 9.25399 30.3488 9.28763 30.353C9.29789 30.353 9.30815 30.3586 9.3184 30.3601C9.33966 30.3671 9.36143 30.3724 9.38352 30.376C9.38967 30.376 9.39634 30.3735 9.40249 30.373C9.40865 30.3725 9.41531 30.376 9.42198 30.376C9.44374 30.3725 9.46518 30.3672 9.48607 30.3601C9.49684 30.3601 9.5071 30.356 9.51735 30.353C9.551 30.3488 9.58404 30.3407 9.6158 30.3289C9.66928 30.2997 9.71581 30.2593 9.75219 30.2105L18.7332 23.8907L27.8397 30.2981C27.9028 30.3424 27.9768 30.3685 28.0536 30.3737C28.1305 30.3788 28.2073 30.3628 28.2757 30.3273C28.3441 30.2918 28.4014 30.2383 28.4414 30.1725C28.4815 30.1067 28.5027 30.0312 28.5027 29.9542V18.1153C29.3093 16.559 30 14.7983 30 13.3158C29.9997 12.6955 29.8658 12.0825 29.6075 11.5184C29.3491 10.9544 28.9724 10.4526 28.5027 10.047V7.61681C28.5027 7.54989 28.4867 7.48395 28.4561 7.42441C28.4255 7.36488 28.3812 7.31347 28.3269 7.2744L18.9962 0.595799C18.9165 0.54753 18.8251 0.522014 18.7319 0.522014C18.6387 0.522014 18.5473 0.54753 18.4676 0.595799L9.40096 7.08475L7.41658 5.66434C7.78423 4.82573 8.05394 3.95176 8.05394 3.18389C8.05467 2.48687 7.81559 1.81081 7.37682 1.26911C6.93805 0.727417 6.32626 0.353054 5.64412 0.208819C4.96197 0.0645837 4.25095 0.159257 3.63035 0.476955C3.00975 0.794653 2.51732 1.31604 2.23567 1.95366L0.338461 0.593753C0.275521 0.548552 0.20132 0.521596 0.124035 0.515857C0.0467495 0.510118 -0.0306214 0.525813 -0.0995521 0.561222C-0.168483 0.59663 -0.2263 0.650377 -0.26663 0.716533C-0.306961 0.78269 -0.328239 0.85869 -0.328125 0.936163V23.3878C-0.328163 23.4553 -0.311971 23.5217 -0.280914 23.5816C-0.249857 23.6415 -0.204847 23.693 -0.149686 23.7318L4.53437 27.0293ZM5.51476 26.69C5.886 26.0749 6.79153 24.9738 8.30109 25.511C8.51593 25.5879 8.73745 25.6612 8.96255 25.7304V29.1135L5.51476 26.69ZM9.80398 29.1427V25.9544C11.4284 26.3066 13.1697 26.1989 14.4768 24.5109C15.1433 23.6534 15.8053 23.5483 16.1719 23.7169C16.2904 23.7663 16.3878 23.8557 16.4471 23.9695C16.5065 24.0833 16.5239 24.2143 16.4965 24.3397C16.4927 24.3714 16.4927 24.4034 16.4965 24.4351L9.80398 29.1427ZM29.157 13.3153C29.157 15.9562 26.5973 19.8027 25.6631 21.1191C24.7324 19.793 22.1686 15.9111 22.1686 13.3153C22.163 12.8529 22.2493 12.394 22.4224 11.9652C22.5956 11.5363 22.8521 11.1461 23.1773 10.8171C23.5024 10.4882 23.8896 10.227 24.3164 10.0487C24.7433 9.87045 25.2013 9.77865 25.6639 9.77865C26.1265 9.77865 26.5844 9.87045 27.0113 10.0487C27.4381 10.227 27.8253 10.4882 28.1505 10.8171C28.4756 11.1461 28.7321 11.5363 28.9053 11.9652C29.0784 12.394 29.1647 12.8529 29.1591 13.3153H29.157ZM27.6598 9.47087C26.9992 9.12636 26.2609 8.95802 25.5162 8.98214C24.7715 9.00626 24.0456 9.22201 23.4087 9.60854C22.7718 9.99508 22.2454 10.5393 21.8804 11.1887C21.5155 11.838 21.3242 12.5705 21.3252 13.3153C21.3252 16.7559 25.1626 21.8757 25.3247 22.0894C25.3638 22.1411 25.4144 22.1831 25.4725 22.212C25.5306 22.2409 25.5946 22.256 25.6595 22.256C25.7242 22.256 25.788 22.2411 25.8459 22.2125C25.9039 22.1839 25.9545 22.1423 25.9938 22.091L26.021 22.0546C26.0391 22.0443 26.0563 22.0325 26.0723 22.0192C26.1155 21.9727 26.1482 21.9175 26.1682 21.8572C26.4471 21.4774 27.0265 20.6603 27.6598 19.6131V29.1407L19.1721 23.172V14.5271C19.2184 14.5452 19.2675 14.5551 19.3172 14.5563C19.3733 14.5566 19.4289 14.545 19.4802 14.5225C19.5828 14.4791 19.6642 14.3972 19.7071 14.2945C19.7501 14.1919 19.7511 14.0764 19.71 13.973C19.6673 13.8728 19.5873 13.7931 19.4869 13.7508C19.3865 13.7086 19.2736 13.707 19.1721 13.7464V5.74995C19.4833 5.91295 19.6623 6.22461 19.8899 6.69466C20.1622 7.25492 20.4704 7.88951 21.2231 8.23244C21.7195 8.45798 22.3281 8.44876 22.9347 8.20732C23.8064 7.85773 24.5755 7.05963 25.0883 5.99497L27.6593 7.83518L27.6598 9.47087ZM19.1721 1.75632L24.3914 5.49314C23.9735 6.43734 23.3382 7.13805 22.625 7.42306C22.2332 7.57684 21.8605 7.59375 21.5744 7.46355C21.0959 7.24621 20.8883 6.8187 20.6478 6.32405C20.3637 5.73969 20.0422 5.07742 19.2075 4.84983C19.1952 4.84675 19.1839 4.84573 19.1721 4.84316V1.75632ZM18.2917 1.75632V4.82215C17.2564 5.06051 16.6226 6.24152 16.0935 7.23596C15.6833 8.00485 15.2546 8.80143 14.8834 8.70557C14.2809 8.55179 14.2845 7.79725 14.3624 6.57779C14.408 5.86016 14.4511 5.17994 14.2501 4.64941L18.2917 1.75632ZM9.80398 7.83211L13.5164 5.17482C13.5804 5.53927 13.5538 6.03444 13.5225 6.52396C13.4471 7.70652 13.3538 9.17818 14.6716 9.52008C14.7697 9.54608 14.8706 9.55952 14.9721 9.56006C15.8099 9.56006 16.3309 8.58101 16.8365 7.63117C17.3492 6.67005 17.7687 5.96216 18.2917 5.71868V12.5752C18.1983 12.5514 18.0997 12.5609 18.0126 12.602C17.9255 12.643 17.8554 12.7131 17.8143 12.8002C17.7906 12.8504 17.7771 12.9048 17.7746 12.9603C17.7721 13.0158 17.7807 13.0712 17.7997 13.1234C17.8188 13.1755 17.848 13.2234 17.8858 13.2642C17.9235 13.305 17.9689 13.3378 18.0194 13.361C18.0746 13.3835 18.1336 13.395 18.1932 13.3948C18.2258 13.394 18.2582 13.3894 18.2896 13.3809V23.1715L17.301 23.8671C17.2475 23.6665 17.1498 23.4803 17.0151 23.3222C16.8805 23.1641 16.7122 23.038 16.5227 22.9532C15.8448 22.6389 14.7752 22.7481 13.8097 23.9958C12.8816 25.1932 11.6699 25.5284 9.80193 25.0809L9.80398 7.83211ZM5.01533 0.986397C5.59821 0.986939 6.15707 1.21862 6.56927 1.6306C6.98148 2.04258 7.21336 2.6012 7.21404 3.18389C7.21404 4.81446 5.70602 7.16984 5.01687 8.16068C4.32875 7.16317 2.81713 4.78934 2.81713 3.18389C2.81781 2.60129 3.04963 2.04274 3.46172 1.63078C3.87382 1.21881 4.43254 0.987075 5.01533 0.986397ZM0.513311 1.75529L2.00031 2.81892C1.98519 2.93966 1.97732 3.06119 1.97673 3.18287C1.97673 5.52953 4.57026 8.98904 4.6805 9.13513C4.68563 9.14179 4.69383 9.14435 4.69896 9.1505C4.70409 9.15665 4.70922 9.16895 4.71639 9.17664C4.73751 9.19345 4.76017 9.20821 4.78408 9.22073C4.80375 9.23626 4.82468 9.25015 4.84663 9.26225C4.88097 9.27513 4.91681 9.28357 4.95329 9.28736C4.9736 9.29377 4.99433 9.29873 5.01533 9.30223C5.04508 9.2988 5.07434 9.29192 5.1025 9.28173C5.12914 9.27812 5.1554 9.27211 5.18095 9.26378C5.2055 9.25039 5.22898 9.23514 5.2512 9.21817C5.27371 9.2059 5.2953 9.19202 5.31581 9.17664C5.32299 9.16895 5.32606 9.1587 5.33273 9.15101C5.33939 9.14332 5.34555 9.14281 5.34965 9.13717C5.98671 8.28238 6.55493 7.3784 7.04893 6.43375L8.96255 7.8034V21.5302C8.9528 21.5302 8.94409 21.5251 8.93383 21.5251C8.82397 21.5301 8.72037 21.5776 8.64492 21.6576C8.56948 21.7376 8.52812 21.8437 8.52958 21.9537C8.53105 22.0636 8.57522 22.1686 8.65277 22.2466C8.73032 22.3245 8.83516 22.3693 8.94511 22.3714H8.95075C8.95468 22.3716 8.95862 22.3716 8.96255 22.3714V24.8431C8.83538 24.8011 8.71694 24.7698 8.58413 24.7226C6.72282 24.0563 5.43938 25.2019 4.82151 26.204L0.514337 23.1736L0.513311 1.75529Z" fill="white"/>
<path d="M3.45911 17.4043C3.57111 17.3933 3.67432 17.3388 3.7466 17.2525C3.81887 17.1663 3.85446 17.0552 3.84573 16.943H3.84061C3.82769 16.8347 3.77315 16.7357 3.68853 16.667C3.60391 16.5982 3.49584 16.565 3.38719 16.5745C3.27853 16.5839 3.17783 16.6353 3.10637 16.7176C3.03491 16.8 2.9983 16.9069 3.0043 17.0158C3.01328 17.1213 3.06151 17.2195 3.13945 17.2912C3.21739 17.3628 3.31938 17.4027 3.42527 17.4028L3.45911 17.4043Z" fill="white"/>
<path d="M3.39175 15.7384H3.41943C3.52585 15.739 3.62842 15.6986 3.70579 15.6256C3.78316 15.5525 3.82936 15.4525 3.83477 15.3462H3.84041C3.84599 15.2351 3.80814 15.1261 3.73485 15.0423C3.66157 14.9585 3.55858 14.9065 3.44764 14.8972C3.33606 14.8898 3.2261 14.927 3.14196 15.0006C3.05782 15.0743 3.00639 15.1783 2.99897 15.2898C2.99156 15.4014 3.02878 15.5113 3.10244 15.5954C3.1761 15.6795 3.28016 15.731 3.39175 15.7384Z" fill="white"/>
<path d="M7.19607 22.1597C7.22938 22.1692 7.26405 22.173 7.29862 22.1709C7.39298 22.1714 7.48475 22.1401 7.55915 22.082C7.63356 22.024 7.68627 21.9427 7.70883 21.8511C7.73394 21.7415 7.7151 21.6265 7.65633 21.5306C7.59757 21.4348 7.50357 21.3658 7.39451 21.3385C7.28598 21.314 7.17216 21.3331 7.07765 21.3918C6.98314 21.4505 6.91553 21.5441 6.88944 21.6522C6.87576 21.7056 6.87286 21.7613 6.88092 21.8159C6.88897 21.8705 6.90782 21.9229 6.93636 21.9702C6.9649 22.0174 7.00257 22.0585 7.04716 22.091C7.09175 22.1236 7.14237 22.1469 7.19607 22.1597Z" fill="white"/>
<path d="M4.8276 19.8269C4.75708 19.7449 4.65778 19.6931 4.55019 19.6823C4.44261 19.6714 4.33495 19.7022 4.24943 19.7683C4.16391 19.8345 4.10706 19.931 4.09061 20.0378C4.07416 20.1446 4.09936 20.2537 4.16101 20.3425C4.20108 20.3935 4.25226 20.4346 4.31064 20.4627C4.36903 20.4909 4.43307 20.5054 4.4979 20.505C4.58899 20.5058 4.67775 20.4762 4.75017 20.4209C4.8385 20.3519 4.89613 20.2509 4.91061 20.1398C4.9251 20.0286 4.89528 19.9162 4.8276 19.8269Z" fill="white"/>
<path d="M4.31178 10.8431C4.35351 10.8561 4.39679 10.8635 4.44048 10.8651C4.54754 10.8668 4.65127 10.828 4.73096 10.7565C4.81065 10.685 4.86041 10.5861 4.87031 10.4795C4.8802 10.3729 4.8495 10.2666 4.78434 10.1816C4.71918 10.0967 4.62436 10.0395 4.51883 10.0214C4.4133 10.0033 4.30483 10.0257 4.2151 10.0841C4.12538 10.1425 4.061 10.2326 4.03485 10.3364C4.0087 10.4402 4.02269 10.5501 4.07403 10.644C4.12537 10.7379 4.21027 10.809 4.31178 10.8431Z" fill="white"/>
<path d="M3.86834 12.447C3.90303 12.4566 3.93906 12.4604 3.97499 12.4583C4.08005 12.4557 4.1802 12.4132 4.2551 12.3395C4.32999 12.2658 4.37404 12.1664 4.37828 12.0614C4.38253 11.9565 4.34666 11.8538 4.27795 11.7743C4.20925 11.6948 4.11286 11.6444 4.00835 11.6334C3.90384 11.6223 3.79903 11.6514 3.71521 11.7148C3.63139 11.7782 3.57483 11.8711 3.55702 11.9746C3.5392 12.0781 3.56146 12.1846 3.61928 12.2723C3.6771 12.36 3.76614 12.4225 3.86834 12.447Z" fill="white"/>
<path d="M3.54868 14.0786C3.57245 14.0851 3.59687 14.0889 3.62149 14.0899C3.72113 14.0889 3.81727 14.053 3.89317 13.9885C3.96907 13.924 4.01991 13.8348 4.03683 13.7367C4.04605 13.6822 4.04445 13.6264 4.03212 13.5725C4.01978 13.5187 3.99695 13.4678 3.96493 13.4227C3.93291 13.3776 3.89232 13.3393 3.84549 13.31C3.79866 13.2806 3.74651 13.2607 3.692 13.2515C3.63749 13.2423 3.5817 13.2439 3.52781 13.2562C3.47392 13.2686 3.42299 13.2914 3.37792 13.3234C3.33285 13.3554 3.29453 13.396 3.26515 13.4428C3.23577 13.4896 3.2159 13.5417 3.20667 13.5962C3.19698 13.6504 3.19817 13.706 3.21018 13.7597C3.22218 13.8134 3.24476 13.8641 3.27659 13.909C3.30842 13.9539 3.34887 13.992 3.39559 14.0211C3.4423 14.0503 3.49434 14.0698 3.54868 14.0786Z" fill="white"/>
<path d="M4.13754 18.4864C4.12091 18.4335 4.094 18.3844 4.05834 18.342C4.02268 18.2995 3.97898 18.2645 3.92975 18.239C3.88051 18.2134 3.82672 18.1979 3.77146 18.1932C3.7162 18.1885 3.66055 18.1948 3.60772 18.2117C3.5549 18.2286 3.50593 18.2557 3.46363 18.2916C3.42133 18.3275 3.38654 18.3713 3.36125 18.4207C3.33596 18.47 3.32068 18.5239 3.31627 18.5791C3.31187 18.6344 3.31843 18.69 3.33558 18.7427C3.36478 18.827 3.41923 18.9002 3.49153 18.9523C3.56383 19.0045 3.65047 19.0332 3.73964 19.0344C3.7835 19.0347 3.82707 19.0272 3.86834 19.0123C3.97355 18.9779 4.0609 18.9033 4.11132 18.8048C4.16175 18.7063 4.17117 18.5919 4.13754 18.4864Z" fill="white"/>
<path d="M5.53482 21.5374C5.59765 21.5723 5.66804 21.5915 5.73992 21.5933C5.81402 21.5926 5.88666 21.5726 5.95062 21.5352C6.01458 21.4978 6.06763 21.4443 6.1045 21.38C6.16032 21.2833 6.17542 21.1684 6.14648 21.0605C6.11753 20.9526 6.04691 20.8607 5.95016 20.8049C5.8534 20.7491 5.73843 20.734 5.63053 20.7629C5.52264 20.7919 5.43066 20.8624 5.37484 20.9592C5.34733 21.0076 5.32964 21.061 5.32279 21.1163C5.31594 21.1716 5.32007 21.2277 5.33493 21.2814C5.34979 21.3351 5.37509 21.3854 5.40939 21.4293C5.44369 21.4732 5.48631 21.5099 5.53482 21.5374Z" fill="white"/>
<path d="M21.2245 22.2607C21.3027 22.332 21.4047 22.3719 21.5106 22.3724C21.6084 22.3722 21.7031 22.3379 21.7783 22.2754C21.8535 22.2128 21.9045 22.126 21.9226 22.0299C21.9406 21.9338 21.9245 21.8344 21.877 21.7489C21.8295 21.6634 21.7537 21.5971 21.6626 21.5616C21.5715 21.526 21.4708 21.5233 21.378 21.554C21.2851 21.5847 21.2058 21.6468 21.1539 21.7297C21.102 21.8126 21.0806 21.911 21.0935 22.0079C21.1064 22.1048 21.1527 22.1942 21.2245 22.2607Z" fill="white"/>
<path d="M19.7437 17.8472C19.8584 17.8435 19.9671 17.7949 20.0463 17.7118C20.1255 17.6287 20.1688 17.5179 20.1669 17.4032C20.1651 17.2884 20.1182 17.179 20.0364 17.0985C19.9546 17.0181 19.8444 16.973 19.7296 16.973C19.6148 16.973 19.5047 17.0181 19.4228 17.0985C19.341 17.179 19.2941 17.2884 19.2923 17.4032C19.2904 17.5179 19.3338 17.6287 19.413 17.7118C19.4921 17.7949 19.6008 17.8435 19.7155 17.8472H19.7437Z" fill="white"/>
<path d="M19.6259 16.1812H19.6562C19.7114 16.1776 19.7654 16.1631 19.8151 16.1386C19.8647 16.1141 19.909 16.08 19.9455 16.0383C19.982 15.9967 20.0099 15.9483 20.0276 15.8958C20.0454 15.8434 20.0526 15.788 20.0489 15.7327C20.0414 15.6212 19.9899 15.5172 19.9058 15.4436C19.8216 15.37 19.7116 15.3329 19.6 15.3403C19.4884 15.3478 19.3844 15.3993 19.3108 15.4835C19.2372 15.5676 19.2 15.6776 19.2075 15.7891C19.2149 15.8952 19.2621 15.9946 19.3397 16.0673C19.4173 16.14 19.5195 16.1807 19.6259 16.1812Z" fill="white"/>
<path d="M22.7896 23.2023C22.8324 23.22 22.8781 23.2295 22.9245 23.2305C23.0022 23.2308 23.0785 23.2096 23.145 23.1693C23.2116 23.1291 23.2657 23.0713 23.3015 23.0023C23.3373 22.9333 23.3534 22.8557 23.3479 22.7782C23.3425 22.7007 23.3159 22.6261 23.2708 22.5627C23.2258 22.4994 23.1642 22.4496 23.0927 22.419C23.0213 22.3883 22.9427 22.3779 22.8658 22.389C22.7888 22.4001 22.7164 22.4321 22.6565 22.4816C22.5965 22.5312 22.5514 22.5962 22.526 22.6697C22.5077 22.7219 22.5001 22.7773 22.5035 22.8325C22.5069 22.8878 22.5213 22.9418 22.5458 22.9914C22.5704 23.041 22.6046 23.0852 22.6464 23.1214C22.6883 23.1576 22.737 23.1851 22.7896 23.2023Z" fill="white"/>
<path d="M24.5622 23.2976C24.604 23.2974 24.6455 23.2919 24.6858 23.2812C24.7905 23.2515 24.88 23.1832 24.9364 23.0901C24.9927 22.9971 25.0118 22.8861 24.9897 22.7796C24.9675 22.6731 24.9059 22.5789 24.8172 22.5159C24.7284 22.453 24.6191 22.426 24.5112 22.4403C24.4034 22.4546 24.3049 22.5092 24.2357 22.5931C24.1664 22.6771 24.1315 22.7841 24.138 22.8927C24.1444 23.0013 24.1918 23.1034 24.2705 23.1785C24.3492 23.2537 24.4534 23.2962 24.5622 23.2976Z" fill="white"/>
<path d="M20.3048 20.2641C20.208 20.3169 20.1357 20.4054 20.1032 20.5107C20.0708 20.616 20.0807 20.7298 20.1309 20.8279C20.1681 20.8952 20.2225 20.9514 20.2885 20.9908C20.3546 21.0301 20.4299 21.0513 20.5068 21.0519C20.5755 21.0517 20.6431 21.0341 20.7032 21.0007C20.7527 20.9751 20.7967 20.9398 20.8325 20.8971C20.8683 20.8543 20.8953 20.8048 20.9118 20.7515C20.9283 20.6982 20.934 20.6422 20.9286 20.5867C20.9232 20.5311 20.9068 20.4773 20.8804 20.4281C20.8539 20.379 20.818 20.3356 20.7746 20.3005C20.7312 20.2655 20.6813 20.2393 20.6277 20.2237C20.5741 20.2081 20.518 20.2034 20.4625 20.2097C20.4071 20.216 20.3535 20.2333 20.3048 20.2605V20.2641Z" fill="white"/>
<path d="M20.3498 18.98C20.3252 18.8713 20.2585 18.7767 20.1642 18.7172C20.0699 18.6576 19.9558 18.6379 19.847 18.6625C19.7382 18.687 19.6436 18.7537 19.5841 18.848C19.5245 18.9423 19.5048 19.0563 19.5294 19.1651C19.5504 19.2584 19.6024 19.3418 19.6769 19.4018C19.7513 19.4618 19.8439 19.4949 19.9396 19.4957C19.9716 19.4947 20.0035 19.4909 20.0349 19.4844C20.1428 19.4578 20.236 19.3903 20.2948 19.2961C20.3536 19.2019 20.3733 19.0885 20.3498 18.98Z" fill="white"/>
<path d="M10.3304 21.1909C10.2479 21.2355 10.1827 21.3064 10.1451 21.3923C10.1076 21.4782 10.0997 21.5742 10.123 21.6651C10.1462 21.756 10.1991 21.8365 10.2732 21.8938C10.3474 21.9512 10.4387 21.9822 10.5325 21.9818C10.6038 21.9825 10.6738 21.9629 10.7345 21.9254C10.7843 21.8998 10.8286 21.8644 10.8645 21.8214C10.9005 21.7784 10.9274 21.7287 10.9438 21.6751C10.9602 21.6215 10.9656 21.5651 10.9599 21.5094C10.9541 21.4536 10.9372 21.3996 10.9102 21.3505C10.8832 21.3014 10.8466 21.2582 10.8026 21.2235C10.7586 21.1887 10.7081 21.1632 10.654 21.1483C10.6 21.1334 10.5435 21.1295 10.4879 21.1368C10.4323 21.1441 10.3788 21.1625 10.3304 21.1909Z" fill="white"/>
<path d="M13.663 14.5051C13.7254 14.5377 13.7946 14.5553 13.8651 14.5563C13.9586 14.5563 14.0495 14.525 14.1234 14.4676C14.1972 14.4102 14.2499 14.3299 14.273 14.2392C14.2962 14.1486 14.2885 14.0528 14.2512 13.9671C14.2139 13.8813 14.1492 13.8103 14.0671 13.7654C13.9687 13.7126 13.8534 13.7008 13.7463 13.7323C13.6392 13.7639 13.5489 13.8364 13.4948 13.9341C13.4435 14.0325 13.4324 14.147 13.4638 14.2535C13.4951 14.36 13.5665 14.4501 13.663 14.5051Z" fill="white"/>
<path d="M14.9812 13.3553C15.0517 13.355 15.1211 13.3374 15.1832 13.3041C15.2801 13.2492 15.3515 13.1584 15.3819 13.0514C15.4123 12.9443 15.3993 12.8296 15.3458 12.732C15.3188 12.6838 15.2827 12.6413 15.2393 12.6071C15.196 12.5728 15.1463 12.5474 15.0931 12.5324C15.04 12.5173 14.9844 12.5128 14.9295 12.5193C14.8746 12.5257 14.8215 12.5428 14.7733 12.5698C14.725 12.5967 14.6826 12.6329 14.6483 12.6762C14.614 12.7195 14.5886 12.7692 14.5736 12.8223C14.5585 12.8755 14.554 12.9311 14.5605 12.9859C14.5669 13.0408 14.5841 13.0939 14.611 13.1421C14.6484 13.2071 14.7023 13.2611 14.7673 13.2986C14.8324 13.336 14.9062 13.3556 14.9812 13.3553Z" fill="white"/>
<path d="M16.5518 13.0467H16.5795C16.6615 13.0466 16.7417 13.0224 16.8102 12.9773C16.8787 12.9321 16.9325 12.868 16.9651 12.7927C16.9976 12.7174 17.0074 12.6342 16.9932 12.5534C16.9791 12.4726 16.9417 12.3977 16.8856 12.3379C16.8294 12.2781 16.757 12.236 16.6773 12.2168C16.5975 12.1975 16.5139 12.202 16.4366 12.2297C16.3594 12.2573 16.2919 12.307 16.2425 12.3724C16.1931 12.4379 16.1639 12.5164 16.1585 12.5982C16.1529 12.7094 16.1909 12.8184 16.2643 12.9021C16.3377 12.9858 16.4408 13.0377 16.5518 13.0467Z" fill="white"/>
<path d="M13.1465 16.0864C13.253 16.1155 13.3666 16.1017 13.463 16.0478C13.5594 15.9939 13.6307 15.9043 13.6616 15.7984C13.6925 15.6924 13.6806 15.5786 13.6284 15.4814C13.5761 15.3841 13.4878 15.3113 13.3823 15.2786C13.2758 15.2495 13.1622 15.2633 13.0658 15.3172C12.9695 15.3711 12.8981 15.4606 12.8672 15.5666C12.8363 15.6725 12.8482 15.7864 12.9004 15.8836C12.9527 15.9809 13.041 16.0537 13.1465 16.0864Z" fill="white"/>
<path d="M11.4862 20.769C11.5527 20.8129 11.6307 20.8362 11.7103 20.8362C11.7806 20.8369 11.85 20.8198 11.9118 20.7864C11.9737 20.7531 12.0261 20.7046 12.0641 20.6455C12.0962 20.5991 12.1185 20.5467 12.1299 20.4915C12.1413 20.4363 12.1415 20.3794 12.1304 20.3241C12.1193 20.2688 12.0972 20.2163 12.0654 20.1698C12.0337 20.1232 11.9928 20.0835 11.9454 20.053C11.898 20.0226 11.8449 20.0019 11.7893 19.9924C11.7337 19.9829 11.6768 19.9846 11.6219 19.9975C11.567 20.0104 11.5153 20.0342 11.4698 20.0675C11.4243 20.1008 11.3859 20.1429 11.357 20.1913C11.3275 20.2377 11.3075 20.2895 11.298 20.3436C11.2885 20.3978 11.2898 20.4533 11.3018 20.5069C11.3138 20.5606 11.3363 20.6114 11.3679 20.6563C11.3996 20.7013 11.4398 20.7396 11.4862 20.769Z" fill="white"/>
<path d="M12.743 17.7052C12.7763 17.7147 12.811 17.7185 12.8456 17.7164C12.94 17.7172 13.0319 17.686 13.1063 17.6279C13.1808 17.5698 13.2335 17.4883 13.2558 17.3966C13.2826 17.2879 13.2653 17.1729 13.2077 17.0769C13.1501 16.9808 13.0567 16.9115 12.9481 16.884C12.8947 16.8706 12.8392 16.868 12.7848 16.8763C12.7304 16.8846 12.6782 16.9036 12.6312 16.9322C12.5842 16.9608 12.5434 16.9985 12.5111 17.043C12.4788 17.0875 12.4557 17.138 12.443 17.1916H12.4374C12.41 17.3002 12.4268 17.4152 12.4841 17.5115C12.5414 17.6077 12.6345 17.6774 12.743 17.7052Z" fill="white"/>
<path d="M12.2661 19.305C12.308 19.3175 12.3512 19.3251 12.3948 19.3276C12.4955 19.328 12.5929 19.2925 12.6697 19.2275C12.7466 19.1625 12.7977 19.0722 12.8139 18.973C12.8302 18.8737 12.8105 18.7719 12.7584 18.6858C12.7063 18.5997 12.6252 18.535 12.5297 18.5033C12.477 18.486 12.4215 18.4793 12.3662 18.4834C12.3109 18.4876 12.257 18.5026 12.2076 18.5276C12.1581 18.5526 12.114 18.5871 12.0779 18.6291C12.0417 18.6711 12.0142 18.7198 11.9969 18.7724C11.9796 18.8251 11.9729 18.8806 11.977 18.9359C11.9812 18.9911 11.9962 19.045 12.0212 19.0945C12.0462 19.1439 12.0807 19.188 12.1227 19.2241C12.1647 19.2602 12.2135 19.2877 12.2661 19.305Z" fill="white"/>
<path d="M6.54847 3.24026C6.54826 2.94319 6.45994 2.65285 6.29466 2.40597C6.12939 2.15908 5.89459 1.96674 5.61996 1.85326C5.34532 1.73979 5.0432 1.71029 4.75179 1.76848C4.46038 1.82667 4.19278 1.96995 3.98283 2.18019C3.77289 2.39043 3.63002 2.65819 3.57231 2.9496C3.51459 3.24101 3.54463 3.54299 3.6586 3.81734C3.77258 4.09169 3.96539 4.32609 4.21263 4.49089C4.45988 4.65569 4.75046 4.74349 5.04762 4.74319C5.44595 4.74264 5.82777 4.58404 6.10919 4.30223C6.3906 4.02042 6.5486 3.63846 6.54847 3.24026ZM4.38565 3.24026C4.38585 3.10967 4.42476 2.98206 4.49747 2.87356C4.57017 2.76506 4.67341 2.68053 4.79414 2.63065C4.91487 2.58077 5.04768 2.56777 5.17579 2.5933C5.30391 2.61883 5.42158 2.68173 5.51395 2.77408C5.60633 2.86642 5.66926 2.98406 5.69479 3.11213C5.72033 3.24021 5.70732 3.37297 5.65743 3.49366C5.60753 3.61435 5.52297 3.71756 5.41444 3.79024C5.3059 3.86292 5.17826 3.90181 5.04762 3.90202C4.96069 3.90202 4.87461 3.8849 4.7943 3.85165C4.71398 3.81839 4.64101 3.76964 4.57954 3.70819C4.51807 3.64674 4.46931 3.57379 4.43604 3.49351C4.40277 3.41322 4.38565 3.32717 4.38565 3.24026Z" fill="white"/>
<path d="M25.6635 11.2465C25.2193 11.2459 24.7849 11.377 24.4153 11.6233C24.0458 11.8696 23.7575 12.2199 23.5872 12.63C23.4168 13.04 23.372 13.4914 23.4584 13.927C23.5447 14.3625 23.7584 14.7627 24.0723 15.0768C24.3862 15.3909 24.7863 15.6049 25.2219 15.6916C25.6575 15.7783 26.1091 15.7339 26.5195 15.564C26.9298 15.3941 27.2805 15.1063 27.5272 14.737C27.7739 14.3678 27.9054 13.9337 27.9052 13.4896C27.9044 12.8953 27.668 12.3256 27.2479 11.9051C26.8277 11.4847 26.258 11.2479 25.6635 11.2465ZM25.6635 14.8931C25.3858 14.8937 25.1142 14.812 24.883 14.6582C24.6518 14.5044 24.4714 14.2856 24.3647 14.0293C24.258 13.773 24.2298 13.4909 24.2835 13.2185C24.3373 12.9462 24.4706 12.6959 24.6667 12.4994C24.8628 12.3028 25.1129 12.1689 25.3851 12.1144C25.6574 12.06 25.9398 12.0875 26.1964 12.1935C26.453 12.2996 26.6724 12.4793 26.8268 12.71C26.9812 12.9407 27.0637 13.212 27.0638 13.4896C27.0629 13.8608 26.9151 14.2164 26.6527 14.479C26.3903 14.7416 26.0347 14.8897 25.6635 14.8911V14.8931Z" fill="white"/>
</g>
<defs>
<clipPath id="clip0_201_3607">
<rect width="30" height="30" fill="white"/>
</clipPath>
</defs>
</svg>
