<svg width="33" height="33" viewBox="0 0 33 33" fill="none" xmlns="http://www.w3.org/2000/svg">
<path d="M3.34692 29.7708L5.19905 23.0093C4.05642 21.0306 3.45555 18.7853 3.45624 16.4856C3.45967 9.29088 9.31442 3.4375 16.5098 3.4375C20.0016 3.43888 23.2782 4.79806 25.7429 7.26412C28.2069 9.73088 29.5641 13.0089 29.5627 16.4959C29.5599 23.6906 23.7038 29.5446 16.5098 29.5446C16.5091 29.5446 16.5098 29.5446 16.5098 29.5446H16.5043C14.3201 29.5439 12.173 28.996 10.2666 27.9558L3.34692 29.7708Z" fill="white"/>
<path d="M3.34662 30.1146C3.25587 30.1146 3.16787 30.0788 3.10256 30.0128C3.01662 29.9255 2.98294 29.7983 3.01525 29.6807L4.82956 23.056C3.70481 21.0581 3.1115 18.7894 3.11288 16.4862C3.11562 9.10112 9.12506 3.09375 16.5095 3.09375C20.0914 3.09513 23.4567 4.49006 25.986 7.02144C28.5153 9.5535 29.9075 12.9181 29.9061 16.4959C29.9034 23.8803 23.8933 29.8884 16.5095 29.8884C14.3171 29.8877 12.148 29.3466 10.223 28.3229L3.43394 30.1029C3.40506 30.1111 3.37619 30.1146 3.34663 30.1146H3.34662Z" fill="white"/>
<path d="M16.5096 3.4375C20.0014 3.43888 23.278 4.79807 25.7427 7.26413C28.2067 9.73088 29.5638 13.0089 29.5625 16.4959C29.5597 23.6906 23.7036 29.5446 16.5096 29.5446H16.5041C14.3199 29.5439 12.1728 28.996 10.2664 27.9558L3.34672 29.7708L5.19884 23.0093C4.05622 21.0306 3.45534 18.7853 3.45603 16.4856C3.45947 9.29088 9.31422 3.43751 16.5096 3.43751V3.4375ZM16.5096 2.75C8.93609 2.75 2.77197 8.91138 2.76853 16.4856C2.76784 18.8004 3.35222 21.0815 4.46047 23.1007L2.68328 29.59C2.61866 29.8272 2.68466 30.0802 2.85791 30.2548C2.98853 30.3868 3.16522 30.459 3.34672 30.459C3.40516 30.459 3.46359 30.4514 3.52134 30.4363L10.1812 28.6901C12.1254 29.6993 14.3048 30.2321 16.5041 30.2328C24.0831 30.2328 30.2472 24.0708 30.2507 16.4966C30.252 12.826 28.8241 9.37475 26.2302 6.77875C23.6348 4.18206 20.1829 2.75137 16.5096 2.75L16.5096 2.75Z" fill="#F0F2FC"/>
<path d="M24.1837 8.82201C22.1349 6.77188 19.4117 5.64232 16.5132 5.64163C10.5292 5.64163 5.66242 10.5064 5.65967 16.4863C5.65898 18.5357 6.23236 20.5308 7.31861 22.2585L7.5771 22.6689L6.48054 26.6709L10.587 25.5943L10.9837 25.8294C12.6488 26.818 14.5587 27.3405 16.5057 27.3412H16.5098C22.4897 27.3412 27.3565 22.4758 27.3585 16.4952C27.3592 13.5974 26.2324 10.8721 24.1837 8.82201H24.1837Z" fill="#40C351"/>
<path fill-rule="evenodd" clip-rule="evenodd" d="M13.2468 11.0309C13.0027 10.4878 12.7456 10.4768 12.5125 10.4672C12.3221 10.4589 12.1049 10.4596 11.8876 10.4596C11.6704 10.4596 11.317 10.5414 11.0179 10.868C10.7189 11.1946 9.87598 11.9831 9.87598 13.5878C9.87598 15.1924 11.0447 16.7434 11.2077 16.9606C11.3706 17.1779 13.464 20.5762 16.7792 21.8838C19.534 22.9701 20.095 22.7542 20.6931 22.6999C21.2912 22.6456 22.6229 21.9113 22.8945 21.1496C23.166 20.3878 23.166 19.7354 23.0849 19.5993C23.0031 19.4631 22.7859 19.382 22.46 19.2184C22.1341 19.0548 20.5302 18.2662 20.2311 18.1576C19.932 18.0489 19.7148 17.9946 19.4969 18.3212C19.2796 18.6471 18.6547 19.382 18.4642 19.5993C18.2738 19.8172 18.0834 19.8447 17.7575 19.6811C17.4316 19.5174 16.3811 19.1737 15.1347 18.0627C14.1653 17.1985 13.5108 16.1308 13.3203 15.8043C13.1299 15.4784 13.2997 15.3017 13.4633 15.1388C13.6098 14.9923 13.7892 14.7579 13.9528 14.5674C14.1158 14.377 14.1701 14.2409 14.2787 14.0236C14.3873 13.8057 14.333 13.6153 14.2512 13.4523C14.1708 13.2887 13.5369 11.6758 13.2468 11.0309L13.2468 11.0309Z" fill="white"/>
</svg>
