<svg width="148" height="58" viewBox="0 0 148 58" fill="none" xmlns="http://www.w3.org/2000/svg">
<rect x="0.667969" y="0.967773" width="147" height="56.625" rx="10" fill="url(#paint0_linear_213_4746)"/>
<path d="M25.0857 39.5764L25.5973 39.8797C27.7471 41.1553 30.2117 41.83 32.7249 41.8314H32.7304C40.4488 41.8314 46.7307 35.5509 46.734 27.8319C46.7352 24.0911 45.2802 20.5736 42.6361 17.9276C39.9919 15.2818 36.4763 13.8237 32.7357 13.8222C25.0112 13.8222 18.7294 20.1018 18.7263 27.8205C18.7253 30.4656 19.4653 33.0416 20.8672 35.2707L21.2005 35.8002L19.7855 40.9661L25.0857 39.5764ZM15.7402 44.9677L18.1305 36.2399C16.6562 33.6856 15.8806 30.7879 15.8817 27.8194C15.8854 18.5327 23.4432 10.9773 32.7304 10.9773C37.2372 10.9792 41.4674 12.7334 44.6486 15.9168C47.8294 19.1005 49.5804 23.3323 49.5789 27.8331C49.5749 37.1193 42.016 44.676 32.7304 44.676C32.7298 44.676 32.7308 44.676 32.7304 44.676H32.7231C29.9036 44.6749 27.1328 43.9677 24.672 42.6257L15.7402 44.9677Z" fill="white"/>
<path fill-rule="evenodd" clip-rule="evenodd" d="M28.5194 20.7844C28.2041 20.0833 27.8721 20.0693 27.5721 20.057C27.3268 20.0465 27.0458 20.0471 26.7653 20.0471C26.4847 20.0471 26.0285 20.1525 25.6428 20.5738C25.2569 20.9951 24.1692 22.0135 24.1692 24.0847C24.1692 26.1561 25.6779 28.1575 25.8882 28.4387C26.0987 28.7194 28.8006 33.1056 33.0796 34.7931C36.6358 36.1954 37.3595 35.9164 38.1314 35.8463C38.9033 35.7761 40.6221 34.8281 40.9729 33.8451C41.3238 32.8622 41.3238 32.0197 41.2185 31.8436C41.1132 31.6681 40.8326 31.5629 40.4116 31.3523C39.9905 31.1418 37.9208 30.1232 37.5349 29.9829C37.149 29.8426 36.8682 29.7724 36.5876 30.1938C36.3069 30.6149 35.5006 31.5629 35.2549 31.8436C35.0093 32.125 34.7638 32.16 34.3427 31.9495C33.9217 31.7383 32.5658 31.2943 30.9573 29.8601C29.7058 28.7443 28.8609 27.3663 28.6153 26.9449C28.3697 26.5238 28.589 26.2958 28.8002 26.0859C28.9892 25.8973 29.2212 25.5945 29.4317 25.3487C29.6418 25.1029 29.712 24.9274 29.8523 24.6467C29.9926 24.3656 29.9225 24.1197 29.8172 23.9092C29.712 23.6987 28.8938 21.6167 28.5194 20.7844Z" fill="white"/>
<rect x="10.668" y="31.5928" width="16" height="16" rx="8" fill="white"/>
<path d="M21.5266 38.0861C21.615 37.98 21.6007 37.8224 21.4946 37.734C21.3885 37.6456 21.2309 37.6599 21.1425 37.766L19.3456 39.9223C18.9847 40.3554 18.7308 40.6591 18.5105 40.858C18.2954 41.0522 18.147 41.114 18.0012 41.114C17.8555 41.114 17.707 41.0522 17.4919 40.858C17.2717 40.6591 17.0178 40.3554 16.6568 39.9223L16.1933 39.366C16.1049 39.2599 15.9473 39.2456 15.8412 39.334C15.7351 39.4224 15.7208 39.58 15.8092 39.6861L16.2856 40.2578C16.6307 40.6719 16.907 41.0035 17.1568 41.2291C17.4149 41.4621 17.6786 41.614 18.0012 41.614C18.3238 41.614 18.5876 41.4621 18.8456 41.2291C19.0954 41.0036 19.3718 40.6719 19.7168 40.2578L21.5266 38.0861Z" fill="black"/>
<path d="M65.392 34.2803L62.116 24.4803H63.558L66.568 33.5243H65.84L68.962 24.4803H70.25L73.302 33.5243H72.602L75.654 24.4803H76.984L73.708 34.2803H72.238L69.382 25.8943H69.76L66.89 34.2803H65.392ZM82.6676 26.7903C83.2743 26.7903 83.8063 26.9069 84.2636 27.1403C84.7303 27.3736 85.0943 27.7283 85.3556 28.2043C85.617 28.6803 85.7476 29.2823 85.7476 30.0103V34.2803H84.4036V30.1643C84.4036 29.4456 84.2263 28.9043 83.8716 28.5403C83.5263 28.1763 83.0363 27.9943 82.4016 27.9943C81.9256 27.9943 81.5103 28.0876 81.1556 28.2743C80.801 28.4609 80.5256 28.7363 80.3296 29.1003C80.143 29.4643 80.0496 29.9169 80.0496 30.4583V34.2803H78.7056V23.8923H80.0496V28.8623L79.7836 28.3303C80.0263 27.8449 80.3996 27.4669 80.9036 27.1963C81.4076 26.9256 81.9956 26.7903 82.6676 26.7903ZM92.8409 34.2803V32.7123L92.7709 32.4183V29.7443C92.7709 29.1749 92.6029 28.7363 92.2669 28.4283C91.9403 28.1109 91.4456 27.9523 90.7829 27.9523C90.3443 27.9523 89.9149 28.0269 89.4949 28.1763C89.0749 28.3163 88.7203 28.5076 88.4309 28.7503L87.8709 27.7423C88.2536 27.4343 88.7109 27.2009 89.2429 27.0423C89.7843 26.8743 90.3489 26.7903 90.9369 26.7903C91.9543 26.7903 92.7383 27.0376 93.2889 27.5323C93.8396 28.0269 94.1149 28.7829 94.1149 29.8003V34.2803H92.8409ZM90.4049 34.3643C89.8543 34.3643 89.3689 34.2709 88.9489 34.0843C88.5383 33.8976 88.2209 33.6409 87.9969 33.3143C87.7729 32.9783 87.6609 32.6003 87.6609 32.1803C87.6609 31.7789 87.7543 31.4149 87.9409 31.0883C88.1369 30.7616 88.4496 30.5003 88.8789 30.3043C89.3176 30.1083 89.9056 30.0103 90.6429 30.0103H92.9949V30.9763H90.6989C90.0269 30.9763 89.5743 31.0883 89.3409 31.3123C89.1076 31.5363 88.9909 31.8069 88.9909 32.1243C88.9909 32.4883 89.1356 32.7823 89.4249 33.0063C89.7143 33.2209 90.1156 33.3283 90.6289 33.3283C91.1329 33.3283 91.5716 33.2163 91.9449 32.9923C92.3276 32.7683 92.6029 32.4416 92.7709 32.0123L93.0369 32.9363C92.8596 33.3749 92.5469 33.7249 92.0989 33.9863C91.6509 34.2383 91.0863 34.3643 90.4049 34.3643ZM99.1501 34.3643C98.4035 34.3643 97.8248 34.1636 97.4141 33.7623C97.0035 33.3609 96.7981 32.7869 96.7981 32.0403V25.2363H98.1421V31.9843C98.1421 32.3856 98.2401 32.6936 98.4361 32.9083C98.6415 33.1229 98.9308 33.2303 99.3041 33.2303C99.7241 33.2303 100.074 33.1136 100.354 32.8803L100.774 33.8463C100.569 34.0236 100.321 34.1543 100.032 34.2383C99.7521 34.3223 99.4581 34.3643 99.1501 34.3643ZM95.5381 27.9663V26.8603H100.27V27.9663H95.5381ZM104.527 34.3643C103.911 34.3643 103.323 34.2803 102.763 34.1123C102.212 33.9443 101.778 33.7389 101.461 33.4963L102.021 32.4323C102.338 32.6469 102.73 32.8289 103.197 32.9783C103.664 33.1276 104.14 33.2023 104.625 33.2023C105.25 33.2023 105.698 33.1136 105.969 32.9363C106.249 32.7589 106.389 32.5116 106.389 32.1943C106.389 31.9609 106.305 31.7789 106.137 31.6483C105.969 31.5176 105.745 31.4196 105.465 31.3543C105.194 31.2889 104.891 31.2329 104.555 31.1863C104.219 31.1303 103.883 31.0649 103.547 30.9903C103.211 30.9063 102.903 30.7943 102.623 30.6543C102.343 30.5049 102.119 30.3043 101.951 30.0523C101.783 29.7909 101.699 29.4456 101.699 29.0163C101.699 28.5683 101.825 28.1763 102.077 27.8403C102.329 27.5043 102.684 27.2476 103.141 27.0703C103.608 26.8836 104.158 26.7903 104.793 26.7903C105.278 26.7903 105.768 26.8509 106.263 26.9723C106.767 27.0843 107.178 27.2476 107.495 27.4623L106.921 28.5263C106.585 28.3023 106.235 28.1483 105.871 28.0643C105.507 27.9803 105.143 27.9383 104.779 27.9383C104.191 27.9383 103.752 28.0363 103.463 28.2323C103.174 28.4189 103.029 28.6616 103.029 28.9603C103.029 29.2123 103.113 29.4083 103.281 29.5483C103.458 29.6789 103.682 29.7816 103.953 29.8563C104.233 29.9309 104.541 29.9963 104.877 30.0523C105.213 30.0989 105.549 30.1643 105.885 30.2483C106.221 30.3229 106.524 30.4303 106.795 30.5703C107.075 30.7103 107.299 30.9063 107.467 31.1583C107.644 31.4103 107.733 31.7463 107.733 32.1663C107.733 32.6143 107.602 33.0016 107.341 33.3283C107.08 33.6549 106.711 33.9116 106.235 34.0983C105.759 34.2756 105.19 34.3643 104.527 34.3643ZM114.019 34.2803V32.7123L113.949 32.4183V29.7443C113.949 29.1749 113.781 28.7363 113.445 28.4283C113.118 28.1109 112.623 27.9523 111.961 27.9523C111.522 27.9523 111.093 28.0269 110.673 28.1763C110.253 28.3163 109.898 28.5076 109.609 28.7503L109.049 27.7423C109.431 27.4343 109.889 27.2009 110.421 27.0423C110.962 26.8743 111.527 26.7903 112.115 26.7903C113.132 26.7903 113.916 27.0376 114.467 27.5323C115.017 28.0269 115.293 28.7829 115.293 29.8003V34.2803H114.019ZM111.583 34.3643C111.032 34.3643 110.547 34.2709 110.127 34.0843C109.716 33.8976 109.399 33.6409 109.175 33.3143C108.951 32.9783 108.839 32.6003 108.839 32.1803C108.839 31.7789 108.932 31.4149 109.119 31.0883C109.315 30.7616 109.627 30.5003 110.057 30.3043C110.495 30.1083 111.083 30.0103 111.821 30.0103H114.173V30.9763H111.877C111.205 30.9763 110.752 31.0883 110.519 31.3123C110.285 31.5363 110.169 31.8069 110.169 32.1243C110.169 32.4883 110.313 32.7823 110.603 33.0063C110.892 33.2209 111.293 33.3283 111.807 33.3283C112.311 33.3283 112.749 33.2163 113.123 32.9923C113.505 32.7683 113.781 32.4416 113.949 32.0123L114.215 32.9363C114.037 33.3749 113.725 33.7249 113.277 33.9863C112.829 34.2383 112.264 34.3643 111.583 34.3643ZM121.714 34.3643C121.098 34.3643 120.533 34.2243 120.02 33.9443C119.516 33.6549 119.11 33.2303 118.802 32.6703C118.503 32.1103 118.354 31.4103 118.354 30.5703C118.354 29.7303 118.499 29.0303 118.788 28.4703C119.087 27.9103 119.488 27.4903 119.992 27.2103C120.505 26.9303 121.079 26.7903 121.714 26.7903C122.442 26.7903 123.086 26.9489 123.646 27.2663C124.206 27.5836 124.649 28.0269 124.976 28.5963C125.303 29.1563 125.466 29.8143 125.466 30.5703C125.466 31.3263 125.303 31.9889 124.976 32.5583C124.649 33.1276 124.206 33.5709 123.646 33.8883C123.086 34.2056 122.442 34.3643 121.714 34.3643ZM117.78 36.9963V26.8603H119.068V28.8623L118.984 30.5843L119.124 32.3063V36.9963H117.78ZM121.602 33.1883C122.078 33.1883 122.503 33.0809 122.876 32.8663C123.259 32.6516 123.557 32.3483 123.772 31.9563C123.996 31.5549 124.108 31.0929 124.108 30.5703C124.108 30.0383 123.996 29.5809 123.772 29.1983C123.557 28.8063 123.259 28.5029 122.876 28.2883C122.503 28.0736 122.078 27.9663 121.602 27.9663C121.135 27.9663 120.711 28.0736 120.328 28.2883C119.955 28.5029 119.656 28.8063 119.432 29.1983C119.217 29.5809 119.11 30.0383 119.11 30.5703C119.11 31.0929 119.217 31.5549 119.432 31.9563C119.656 32.3483 119.955 32.6516 120.328 32.8663C120.711 33.0809 121.135 33.1883 121.602 33.1883ZM131.257 34.3643C130.641 34.3643 130.076 34.2243 129.563 33.9443C129.059 33.6549 128.653 33.2303 128.345 32.6703C128.046 32.1103 127.897 31.4103 127.897 30.5703C127.897 29.7303 128.041 29.0303 128.331 28.4703C128.629 27.9103 129.031 27.4903 129.535 27.2103C130.048 26.9303 130.622 26.7903 131.257 26.7903C131.985 26.7903 132.629 26.9489 133.189 27.2663C133.749 27.5836 134.192 28.0269 134.519 28.5963C134.845 29.1563 135.009 29.8143 135.009 30.5703C135.009 31.3263 134.845 31.9889 134.519 32.5583C134.192 33.1276 133.749 33.5709 133.189 33.8883C132.629 34.2056 131.985 34.3643 131.257 34.3643ZM127.323 36.9963V26.8603H128.611V28.8623L128.527 30.5843L128.667 32.3063V36.9963H127.323ZM131.145 33.1883C131.621 33.1883 132.045 33.0809 132.419 32.8663C132.801 32.6516 133.1 32.3483 133.315 31.9563C133.539 31.5549 133.651 31.0929 133.651 30.5703C133.651 30.0383 133.539 29.5809 133.315 29.1983C133.1 28.8063 132.801 28.5029 132.419 28.2883C132.045 28.0736 131.621 27.9663 131.145 27.9663C130.678 27.9663 130.253 28.0736 129.871 28.2883C129.497 28.5029 129.199 28.8063 128.975 29.1983C128.76 29.5809 128.653 30.0383 128.653 30.5703C128.653 31.0929 128.76 31.5549 128.975 31.9563C129.199 32.3483 129.497 32.6516 129.871 32.8663C130.253 33.0809 130.678 33.1883 131.145 33.1883Z" fill="white"/>
<defs>
<linearGradient id="paint0_linear_213_4746" x1="0.667969" y1="29.2834" x2="147.668" y2="29.2834" gradientUnits="userSpaceOnUse">
<stop stop-color="#20B038"/>
<stop offset="1" stop-color="#60D66A"/>
</linearGradient>
</defs>
</svg>
