<svg width="30" height="30" viewBox="0 0 30 30" fill="none" xmlns="http://www.w3.org/2000/svg">
<g clip-path="url(#clip0_201_3589)">
<path d="M11.7188 16.875H13.5938C13.7181 16.875 13.8373 16.8256 13.9252 16.7377C14.0131 16.6498 14.0625 16.5306 14.0625 16.4062V15.3621C14.0621 15.0176 13.9251 14.6872 13.6814 14.4436C13.4378 14.1999 13.1074 14.0629 12.7629 14.0625H12.5496C12.2051 14.0629 11.8747 14.1999 11.6311 14.4436C11.3874 14.6872 11.2504 15.0176 11.25 15.3621V16.4062C11.25 16.5306 11.2994 16.6498 11.3873 16.7377C11.4752 16.8256 11.5944 16.875 11.7188 16.875ZM12.1875 15.3621C12.1876 15.2661 12.2258 15.1741 12.2937 15.1062C12.3616 15.0383 12.4536 15.0001 12.5496 15H12.7629C12.8589 15.0001 12.9509 15.0383 13.0188 15.1062C13.0867 15.1741 13.1249 15.2661 13.125 15.3621V15.9375H12.1875V15.3621Z" fill="white"/>
<path d="M7.03125 16.875H8.90625C9.03057 16.875 9.1498 16.8256 9.23771 16.7377C9.32561 16.6498 9.375 16.5306 9.375 16.4062V15.3621C9.37461 15.0176 9.23757 14.6872 8.99393 14.4436C8.75029 14.1999 8.41995 14.0629 8.07539 14.0625H7.86211C7.51755 14.0629 7.18721 14.1999 6.94357 14.4436C6.69993 14.6872 6.56289 15.0176 6.5625 15.3621V16.4062C6.5625 16.5306 6.61189 16.6498 6.69979 16.7377C6.7877 16.8256 6.90693 16.875 7.03125 16.875ZM7.5 15.3621C7.50011 15.2661 7.53829 15.1741 7.60618 15.1062C7.67406 15.0383 7.7661 15.0001 7.86211 15H8.07539C8.1714 15.0001 8.26344 15.0383 8.33132 15.1062C8.39921 15.1741 8.43739 15.2661 8.4375 15.3621V15.9375H7.5V15.3621Z" fill="white"/>
<path d="M21.0938 16.875H22.9688C23.0931 16.875 23.2123 16.8256 23.3002 16.7377C23.3881 16.6498 23.4375 16.5306 23.4375 16.4062V15.3621C23.4371 15.0176 23.3001 14.6872 23.0564 14.4436C22.8128 14.1999 22.4824 14.0629 22.1379 14.0625H21.9246C21.5801 14.0629 21.2497 14.1999 21.0061 14.4436C20.7624 14.6872 20.6254 15.0176 20.625 15.3621V16.4062C20.625 16.5306 20.6744 16.6498 20.7623 16.7377C20.8502 16.8256 20.9694 16.875 21.0938 16.875ZM21.5625 15.3621C21.5626 15.2661 21.6008 15.1741 21.6687 15.1062C21.7366 15.0383 21.8286 15.0001 21.9246 15H22.1379C22.2339 15.0001 22.3259 15.0383 22.3938 15.1062C22.4617 15.1741 22.4999 15.2661 22.5 15.3621V15.9375H21.5625V15.3621Z" fill="white"/>
<path d="M16.4062 16.875H18.2812C18.4056 16.875 18.5248 16.8256 18.6127 16.7377C18.7006 16.6498 18.75 16.5306 18.75 16.4062V15.3621C18.7496 15.0176 18.6126 14.6872 18.3689 14.4436C18.1253 14.1999 17.7949 14.0629 17.4504 14.0625H17.2371C16.8926 14.0629 16.5622 14.1999 16.3186 14.4436C16.0749 14.6872 15.9379 15.0176 15.9375 15.3621V16.4062C15.9375 16.5306 15.9869 16.6498 16.0748 16.7377C16.1627 16.8256 16.2819 16.875 16.4062 16.875ZM16.875 15.3621C16.8751 15.2661 16.9133 15.1741 16.9812 15.1062C17.0491 15.0383 17.1411 15.0001 17.2371 15H17.4504C17.5464 15.0001 17.6384 15.0383 17.7063 15.1062C17.7742 15.1741 17.8124 15.2661 17.8125 15.3621V15.9375H16.875V15.3621Z" fill="white"/>
<path d="M11.7188 13.125H13.5938C13.7181 13.125 13.8373 13.0756 13.9252 12.9877C14.0131 12.8998 14.0625 12.7806 14.0625 12.6562V11.6121C14.0621 11.2676 13.9251 10.9372 13.6814 10.6936C13.4378 10.4499 13.1074 10.3129 12.7629 10.3125H12.5496C12.2051 10.3129 11.8747 10.4499 11.6311 10.6936C11.3874 10.9372 11.2504 11.2676 11.25 11.6121V12.6562C11.25 12.7806 11.2994 12.8998 11.3873 12.9877C11.4752 13.0756 11.5944 13.125 11.7188 13.125ZM12.1875 11.6121C12.1876 11.5161 12.2258 11.4241 12.2937 11.3562C12.3616 11.2883 12.4536 11.2501 12.5496 11.25H12.7629C12.8589 11.2501 12.9509 11.2883 13.0188 11.3562C13.0867 11.4241 13.1249 11.5161 13.125 11.6121V12.1875H12.1875V11.6121Z" fill="white"/>
<path d="M7.03125 13.125H8.90625C9.03057 13.125 9.1498 13.0756 9.23771 12.9877C9.32561 12.8998 9.375 12.7806 9.375 12.6562V11.6121C9.37461 11.2676 9.23757 10.9372 8.99393 10.6936C8.75029 10.4499 8.41995 10.3129 8.07539 10.3125H7.86211C7.51755 10.3129 7.18721 10.4499 6.94357 10.6936C6.69993 10.9372 6.56289 11.2676 6.5625 11.6121V12.6562C6.5625 12.7806 6.61189 12.8998 6.69979 12.9877C6.7877 13.0756 6.90693 13.125 7.03125 13.125ZM7.5 11.6121C7.50011 11.5161 7.53829 11.4241 7.60618 11.3562C7.67406 11.2883 7.7661 11.2501 7.86211 11.25H8.07539C8.1714 11.2501 8.26344 11.2883 8.33132 11.3562C8.39921 11.4241 8.43739 11.5161 8.4375 11.6121V12.1875H7.5V11.6121Z" fill="white"/>
<path d="M21.0938 13.125H22.9688C23.0931 13.125 23.2123 13.0756 23.3002 12.9877C23.3881 12.8998 23.4375 12.7806 23.4375 12.6562V11.6121C23.4371 11.2676 23.3001 10.9372 23.0564 10.6936C22.8128 10.4499 22.4824 10.3129 22.1379 10.3125H21.9246C21.5801 10.3129 21.2497 10.4499 21.0061 10.6936C20.7624 10.9372 20.6254 11.2676 20.625 11.6121V12.6562C20.625 12.7806 20.6744 12.8998 20.7623 12.9877C20.8502 13.0756 20.9694 13.125 21.0938 13.125ZM21.5625 11.6121C21.5626 11.5161 21.6008 11.4241 21.6687 11.3562C21.7366 11.2883 21.8286 11.2501 21.9246 11.25H22.1379C22.2339 11.2501 22.3259 11.2883 22.3938 11.3562C22.4617 11.4241 22.4999 11.5161 22.5 11.6121V12.1875H21.5625V11.6121Z" fill="white"/>
<path d="M16.4062 13.125H18.2812C18.4056 13.125 18.5248 13.0756 18.6127 12.9877C18.7006 12.8998 18.75 12.7806 18.75 12.6562V11.6121C18.7496 11.2676 18.6126 10.9372 18.3689 10.6936C18.1253 10.4499 17.7949 10.3129 17.4504 10.3125H17.2371C16.8926 10.3129 16.5622 10.4499 16.3186 10.6936C16.0749 10.9372 15.9379 11.2676 15.9375 11.6121V12.6562C15.9375 12.7806 15.9869 12.8998 16.0748 12.9877C16.1627 13.0756 16.2819 13.125 16.4062 13.125ZM16.875 11.6121C16.8751 11.5161 16.9133 11.4241 16.9812 11.3562C17.0491 11.2883 17.1411 11.2501 17.2371 11.25H17.4504C17.5464 11.2501 17.6384 11.2883 17.7063 11.3562C17.7742 11.4241 17.8124 11.5161 17.8125 11.6121V12.1875H16.875V11.6121Z" fill="white"/>
<path d="M11.7188 9.375H13.5938C13.7181 9.375 13.8373 9.32561 13.9252 9.23771C14.0131 9.1498 14.0625 9.03057 14.0625 8.90625V7.86211C14.0621 7.51755 13.9251 7.18721 13.6814 6.94357C13.4378 6.69993 13.1074 6.56289 12.7629 6.5625H12.5496C12.2051 6.56289 11.8747 6.69993 11.6311 6.94357C11.3874 7.18721 11.2504 7.51755 11.25 7.86211V8.90625C11.25 9.03057 11.2994 9.1498 11.3873 9.23771C11.4752 9.32561 11.5944 9.375 11.7188 9.375ZM12.1875 7.86211C12.1876 7.7661 12.2258 7.67406 12.2937 7.60618C12.3616 7.53829 12.4536 7.50011 12.5496 7.5H12.7629C12.8589 7.50011 12.9509 7.53829 13.0188 7.60618C13.0867 7.67406 13.1249 7.7661 13.125 7.86211V8.4375H12.1875V7.86211Z" fill="white"/>
<path d="M7.03125 9.375H8.90625C9.03057 9.375 9.1498 9.32561 9.23771 9.23771C9.32561 9.1498 9.375 9.03057 9.375 8.90625V7.86211C9.37461 7.51755 9.23757 7.18721 8.99393 6.94357C8.75029 6.69993 8.41995 6.56289 8.07539 6.5625H7.86211C7.51755 6.56289 7.18721 6.69993 6.94357 6.94357C6.69993 7.18721 6.56289 7.51755 6.5625 7.86211V8.90625C6.5625 9.03057 6.61189 9.1498 6.69979 9.23771C6.7877 9.32561 6.90693 9.375 7.03125 9.375ZM7.5 7.86211C7.50011 7.7661 7.53829 7.67406 7.60618 7.60618C7.67406 7.53829 7.7661 7.50011 7.86211 7.5H8.07539C8.1714 7.50011 8.26344 7.53829 8.33132 7.60618C8.39921 7.67406 8.43739 7.7661 8.4375 7.86211V8.4375H7.5V7.86211Z" fill="white"/>
<path d="M21.0938 9.375H22.9688C23.0931 9.375 23.2123 9.32561 23.3002 9.23771C23.3881 9.1498 23.4375 9.03057 23.4375 8.90625V7.86211C23.4371 7.51755 23.3001 7.18721 23.0564 6.94357C22.8128 6.69993 22.4824 6.56289 22.1379 6.5625H21.9246C21.5801 6.56289 21.2497 6.69993 21.0061 6.94357C20.7624 7.18721 20.6254 7.51755 20.625 7.86211V8.90625C20.625 9.03057 20.6744 9.1498 20.7623 9.23771C20.8502 9.32561 20.9694 9.375 21.0938 9.375ZM21.5625 7.86211C21.5626 7.7661 21.6008 7.67406 21.6687 7.60618C21.7366 7.53829 21.8286 7.50011 21.9246 7.5H22.1379C22.2339 7.50011 22.3259 7.53829 22.3938 7.60618C22.4617 7.67406 22.4999 7.7661 22.5 7.86211V8.4375H21.5625V7.86211Z" fill="white"/>
<path d="M16.4062 9.375H18.2812C18.4056 9.375 18.5248 9.32561 18.6127 9.23771C18.7006 9.1498 18.75 9.03057 18.75 8.90625V7.86211C18.7496 7.51755 18.6126 7.18721 18.3689 6.94357C18.1253 6.69993 17.7949 6.56289 17.4504 6.5625H17.2371C16.8926 6.56289 16.5622 6.69993 16.3186 6.94357C16.0749 7.18721 15.9379 7.51755 15.9375 7.86211V8.90625C15.9375 9.03057 15.9869 9.1498 16.0748 9.23771C16.1627 9.32561 16.2819 9.375 16.4062 9.375ZM16.875 7.86211C16.8751 7.7661 16.9133 7.67406 16.9812 7.60618C17.0491 7.53829 17.1411 7.50011 17.2371 7.5H17.4504C17.5464 7.50011 17.6384 7.53829 17.7063 7.60618C17.7742 7.67406 17.8124 7.7661 17.8125 7.86211V8.4375H16.875V7.86211Z" fill="white"/>
<path d="M27.7331 27.1875H27.7948C27.9604 27.1875 28.1237 27.1485 28.2715 27.0736C28.4192 26.9987 28.5473 26.8901 28.6452 26.7565C28.7432 26.6229 28.8083 26.4682 28.8353 26.3047C28.8623 26.1413 28.8504 25.9738 28.8006 25.8158L27.7114 22.3594C27.6819 22.2655 27.6235 22.1832 27.5447 22.1243C27.4658 22.0654 27.3704 22.0329 27.2719 22.0312H27.2643C27.1672 22.0313 27.0725 22.0614 26.9933 22.1175C26.9141 22.1737 26.8543 22.253 26.8221 22.3445L25.6133 25.783C25.5574 25.942 25.5404 26.1122 25.5638 26.2791C25.5872 26.446 25.6502 26.6049 25.7477 26.7425C25.8451 26.88 25.9741 26.9922 26.1239 27.0697C26.2736 27.1471 26.4397 27.1875 26.6083 27.1875H26.7958V28.125H25.3125V18.75H26.25V17.8125H25.3125V5.625C25.4368 5.625 25.556 5.57561 25.644 5.48771C25.7319 5.3998 25.7812 5.28057 25.7812 5.15625V3.75H26.25C26.3743 3.75 26.4935 3.70061 26.5815 3.61271C26.6694 3.5248 26.7188 3.40557 26.7188 3.28125V1.40625C26.7188 1.28193 26.6694 1.1627 26.5815 1.07479C26.4935 0.986886 26.3743 0.9375 26.25 0.9375H3.75C3.62568 0.9375 3.50645 0.986886 3.41854 1.07479C3.33064 1.1627 3.28125 1.28193 3.28125 1.40625V3.28125C3.28125 3.40557 3.33064 3.5248 3.41854 3.61271C3.50645 3.70061 3.62568 3.75 3.75 3.75H4.21875V5.15625C4.21875 5.28057 4.26814 5.3998 4.35604 5.48771C4.44395 5.57561 4.56318 5.625 4.6875 5.625V17.8125H3.75V18.75H4.6875V28.125H3.28125V27.1875H3.3917C3.56027 27.1875 3.72637 27.1471 3.8761 27.0696C4.02583 26.9922 4.15482 26.88 4.25226 26.7425C4.3497 26.6049 4.41275 26.446 4.43613 26.2791C4.45951 26.1121 4.44253 25.942 4.38662 25.783L3.17783 22.3445C3.14564 22.253 3.08582 22.1737 3.00662 22.1175C2.92742 22.0614 2.83275 22.0313 2.73568 22.0312H2.72801C2.62958 22.0329 2.53416 22.0654 2.45529 22.1243C2.37641 22.1832 2.31807 22.2655 2.28855 22.3594L1.1993 25.816C1.14954 25.974 1.1377 26.1415 1.16472 26.3049C1.19174 26.4683 1.25686 26.623 1.35482 26.7566C1.45278 26.8901 1.58081 26.9987 1.72856 27.0736C1.8763 27.1485 2.0396 27.1875 2.20523 27.1875H2.34375V28.125H0.9375V29.0625H29.0625V28.125H27.7331V27.1875ZM2.20523 26.25C2.18684 26.25 2.1687 26.2457 2.1523 26.2373C2.13589 26.229 2.12167 26.217 2.11079 26.2021C2.09991 26.1873 2.09268 26.1701 2.08967 26.152C2.08667 26.1338 2.08798 26.1152 2.0935 26.0977L2.75977 23.9824L3.50197 26.0938C3.5082 26.1115 3.5101 26.1304 3.50753 26.1489C3.50495 26.1675 3.49797 26.1851 3.48718 26.2004C3.47638 26.2157 3.46208 26.2282 3.44547 26.2368C3.42885 26.2454 3.41042 26.25 3.3917 26.25H2.20523ZM4.21875 2.8125V1.875H25.7812V2.8125H4.21875ZM7.96875 28.125H5.625V27.1875H7.96875V28.125ZM11.7188 28.125H10.7812V26.7188C10.7812 26.5944 10.8306 26.4752 10.9185 26.3873C11.0065 26.2994 11.1257 26.25 11.25 26.25C11.3743 26.25 11.4935 26.2994 11.5815 26.3873C11.6694 26.4752 11.7188 26.5944 11.7188 26.7188V28.125ZM15.4688 28.125H14.5312V26.7188C14.5312 26.5944 14.5806 26.4752 14.6685 26.3873C14.7565 26.2994 14.8757 26.25 15 26.25C15.1243 26.25 15.2435 26.2994 15.3315 26.3873C15.4194 26.4752 15.4688 26.5944 15.4688 26.7188V28.125ZM19.2188 28.125H18.2812V26.7188C18.2812 26.5944 18.3306 26.4752 18.4185 26.3873C18.5065 26.2994 18.6257 26.25 18.75 26.25C18.8743 26.25 18.9935 26.2994 19.0815 26.3873C19.1694 26.4752 19.2188 26.5944 19.2188 26.7188V28.125ZM21.0938 26.7188V28.125H20.1562V26.7188C20.1562 26.3458 20.0081 25.9881 19.7444 25.7244C19.4806 25.4607 19.123 25.3125 18.75 25.3125C18.377 25.3125 18.0194 25.4607 17.7556 25.7244C17.4919 25.9881 17.3438 26.3458 17.3438 26.7188V28.125H16.4062V26.7188C16.4062 26.3458 16.2581 25.9881 15.9944 25.7244C15.7306 25.4607 15.373 25.3125 15 25.3125C14.627 25.3125 14.2694 25.4607 14.0056 25.7244C13.7419 25.9881 13.5938 26.3458 13.5938 26.7188V28.125H12.6562V26.7188C12.6562 26.3458 12.5081 25.9881 12.2444 25.7244C11.9806 25.4607 11.623 25.3125 11.25 25.3125C10.877 25.3125 10.5194 25.4607 10.2556 25.7244C9.99191 25.9881 9.84375 26.3458 9.84375 26.7188V28.125H8.90625V24.375H21.0938V26.7188ZM7.96875 23.4375V22.5H22.0312V23.4375H7.96875ZM10.1334 21.5625L10.6022 20.625H19.3978L19.8666 21.5625H10.1334ZM24.375 28.125H22.0312V27.1875H24.375V28.125ZM24.375 26.25H22.0312V24.375H22.5C22.6243 24.375 22.7435 24.3256 22.8315 24.2377C22.9194 24.1498 22.9688 24.0306 22.9688 23.9062V22.0312C22.9688 21.9069 22.9194 21.7877 22.8315 21.6998C22.7435 21.6119 22.6243 21.5625 22.5 21.5625H20.9147L20.1067 19.9466C20.0678 19.8687 20.008 19.8033 19.9339 19.7575C19.8599 19.7117 19.7745 19.6875 19.6875 19.6875H10.3125C10.2255 19.6875 10.1401 19.7117 10.0661 19.7575C9.99203 19.8033 9.93219 19.8687 9.89326 19.9466L9.08531 21.5625H7.5C7.37568 21.5625 7.25645 21.6119 7.16854 21.6998C7.08064 21.7877 7.03125 21.9069 7.03125 22.0312V23.9062C7.03125 24.0306 7.08064 24.1498 7.16854 24.2377C7.25645 24.3256 7.37568 24.375 7.5 24.375H7.96875V26.25H5.625V18.75H24.375V26.25ZM24.375 17.8125H5.625V5.625H24.375V17.8125ZM24.8438 4.6875H5.15625V3.75H24.8438V4.6875ZM26.6083 26.25C26.5896 26.25 26.5711 26.2455 26.5545 26.2369C26.5379 26.2283 26.5235 26.2158 26.5127 26.2005C26.5019 26.1853 26.4949 26.1676 26.4923 26.1491C26.4897 26.1305 26.4916 26.1116 26.4978 26.094L27.2402 23.9824L27.9067 26.0977C27.9123 26.1152 27.9136 26.1338 27.9106 26.152C27.9076 26.1701 27.9003 26.1873 27.8894 26.2021C27.8786 26.217 27.8643 26.229 27.8479 26.2373C27.8315 26.2457 27.8134 26.25 27.795 26.25H26.6083Z" fill="white"/>
</g>
<defs>
<clipPath id="clip0_201_3589">
<rect width="30" height="30" fill="white"/>
</clipPath>
</defs>
</svg>
