<svg width="194" height="82" viewBox="0 0 194 82" fill="none" xmlns="http://www.w3.org/2000/svg">
<path fill-rule="evenodd" clip-rule="evenodd" d="M160.668 18.4512H2.86353C1.28438 18.4512 0 19.7303 0 21.3095V71.0107C0 72.5899 1.27911 73.8743 2.86353 73.8743H160.674C162.2 73.8743 163.442 72.632 163.442 71.1055V21.2253C163.442 19.6988 162.2 18.4565 160.674 18.4565L160.668 18.4512ZM127.417 68.3314V65.5627H155.126V68.3314H127.417ZM141.271 57.2458C132.091 57.2458 124.643 49.8027 124.643 40.6173C124.643 31.4319 132.086 23.9888 141.271 23.9888C150.457 23.9888 157.9 31.4319 157.9 40.6173C157.9 49.8027 150.457 57.2458 141.271 57.2458ZM19.3671 53.2986C19.5265 53.3414 19.6134 53.32 19.6279 53.2345C19.6279 53.1062 19.7221 53.0705 19.9105 53.1276C19.9829 53.1418 20.0337 53.0349 20.0626 52.8068C20.0916 52.5787 20.1351 52.1867 20.1931 51.6307C20.1931 51.1746 20.2148 50.7327 20.2583 50.305C20.3017 49.8773 20.3887 49.5494 20.5191 49.3214C20.4901 49.1646 20.5191 48.8581 20.606 48.4019C20.7075 47.9457 20.7944 47.4824 20.8668 47.012C20.9828 46.6699 21.0987 46.3063 21.2146 45.9214C21.3305 45.5365 21.432 45.1659 21.5189 44.8095C21.6203 44.4389 21.6928 44.1324 21.7362 43.89C21.9391 43.2913 22.1057 42.714 22.2362 42.158C22.3666 41.5878 22.4608 41.0817 22.5187 40.6398C22.5912 40.1979 22.6201 39.8771 22.6057 39.6776C22.5912 39.2499 22.497 38.8935 22.3231 38.6084C22.1637 38.3233 21.9753 38.138 21.758 38.0524C21.5406 37.9527 21.3305 37.9954 21.1277 38.1807C20.9393 38.3233 20.693 38.6369 20.3887 39.1216C20.0989 39.592 19.7873 40.0767 19.4541 40.5757C18.7585 41.7731 18.1355 42.828 17.5848 43.7404C17.0487 44.6385 16.585 45.4011 16.1938 46.0284C15.817 46.6556 15.5055 47.1688 15.2592 47.5679C15.0128 47.9671 14.8317 48.2665 14.7158 48.466C14.5419 48.6799 14.3608 48.9151 14.1724 49.1717C13.9985 49.414 13.8609 49.6207 13.7594 49.7918C13.5856 50.1197 13.4624 50.305 13.39 50.3478C13.3175 50.3905 13.2306 50.3834 13.1291 50.3264C13.0857 50.2693 13.0712 50.0484 13.0857 49.6635C13.1146 49.2643 13.1726 48.7654 13.2595 48.1667C13.3465 47.5537 13.4552 46.8979 13.5856 46.1994C13.716 45.4867 13.8609 44.7881 14.0203 44.1039C14.1797 43.4054 14.3535 42.7781 14.5419 42.2222C14.5564 42.1081 14.5781 41.9513 14.6071 41.7517C14.6506 41.5379 14.6941 41.3098 14.7375 41.0675C14.781 40.8109 14.8027 40.5828 14.8027 40.3832C14.9042 39.87 14.9114 39.5279 14.8245 39.3568C14.7375 39.1857 14.6361 39.0147 14.5202 38.8436C14.3898 38.6868 14.2666 38.5941 14.1507 38.5656C14.0348 38.5371 13.9043 38.5229 13.7594 38.5229C13.629 38.4944 13.4986 38.6084 13.3682 38.865C13.2523 39.1073 13.1943 39.3782 13.1943 39.6776C13.1943 39.7773 13.1509 39.8914 13.0639 40.0197C12.9915 40.148 12.919 40.2478 12.8466 40.3191C12.6147 40.5329 12.267 41.0318 11.8033 41.8159C11.3396 42.5857 10.7745 43.5337 10.1079 44.6598C9.94855 44.9877 9.76743 45.337 9.56456 45.7076C9.3617 46.064 9.16609 46.3919 8.97772 46.6912C8.80383 46.9906 8.65893 47.2329 8.54301 47.4183C8.38362 47.7319 8.22423 48.0241 8.06484 48.295C7.91994 48.5516 7.81126 48.7226 7.73881 48.8082C7.72432 48.965 7.6881 49.1004 7.63014 49.2144C7.57218 49.3285 7.50697 49.4425 7.43452 49.5566C7.34758 49.6136 7.22441 49.7847 7.06502 50.0698C6.90563 50.3406 6.73175 50.6614 6.54338 51.032L6.15215 51.9301C6.06521 52.1154 6.01449 52.258 6 52.3578C6 52.4576 6.02174 52.5573 6.06521 52.6571C6.21011 52.7997 6.34776 52.9209 6.47817 53.0206C6.62307 53.1347 6.76073 53.1917 6.89114 53.1917C6.92012 53.1632 6.95635 53.1133 6.99982 53.042C7.04329 52.9708 7.11574 52.8353 7.21717 52.6357C7.3186 52.4362 7.47799 52.1297 7.69534 51.7163C7.92718 51.3029 8.23148 50.7469 8.60822 50.0484C8.99945 49.3356 9.49211 48.4375 10.0862 47.3541C10.405 46.6841 10.7238 46.064 11.0426 45.4938C11.3758 44.9236 11.6656 44.446 11.912 44.0611C12.1583 43.662 12.3104 43.4125 12.3684 43.3127C12.4988 43.1131 12.5858 43.0276 12.6292 43.0561C12.6727 43.0846 12.6799 43.2414 12.651 43.5265C12.6075 43.6263 12.5495 43.833 12.4771 44.1466C12.4191 44.4603 12.3467 44.8452 12.2597 45.3013C12.1873 45.7432 12.1076 46.2208 12.0206 46.734C11.9337 47.2329 11.8395 47.7319 11.7381 48.2308C11.6511 48.8866 11.6004 49.4354 11.5859 49.8773C11.5714 50.305 11.6077 50.6685 11.6946 50.9679C11.7815 51.253 11.9192 51.5096 12.1076 51.7377C12.4843 52.0798 12.8248 52.2081 13.1291 52.1226C13.4334 52.0228 13.8391 51.7091 14.3463 51.1817C14.5202 50.9964 14.7013 50.7754 14.8897 50.5188C15.0925 50.2622 15.2592 50.027 15.3896 49.8132C15.5345 49.5993 15.6069 49.471 15.6069 49.4283L15.6721 49.3C15.7301 49.2002 15.8026 49.0861 15.8895 48.9578C15.9764 48.8153 16.0634 48.6799 16.1503 48.5516C16.3242 48.3377 16.4836 48.1239 16.6285 47.9101C16.7734 47.682 16.8748 47.4895 16.9328 47.3327C16.9618 47.2615 17.0415 47.1046 17.1719 46.8623C17.3023 46.62 17.4327 46.4061 17.5631 46.2208C17.766 45.8929 17.9978 45.4867 18.2586 45.002C18.5194 44.503 18.7658 44.0397 18.9976 43.6121C19.244 43.2414 19.4685 42.8423 19.6714 42.4146C19.8743 41.9869 20.0482 41.7018 20.1931 41.5593C20.3524 41.3169 20.4829 41.1245 20.5843 40.9819L20.7364 40.7681C20.7219 40.7111 20.7509 40.6327 20.8234 40.5329C20.8958 40.4331 20.9683 40.3476 21.0407 40.2763C21.1277 40.1908 21.1711 40.1694 21.1711 40.2121L21.0842 40.6612C21.0262 40.9606 20.9393 41.3526 20.8234 41.8373C20.7219 42.3077 20.5843 42.828 20.4104 43.3982C20.1641 44.4959 19.9322 45.5508 19.7149 46.5629C19.512 47.5608 19.3309 48.466 19.1715 49.2786C19.0266 50.0769 18.9107 50.7255 18.8237 51.2245C18.8092 51.6806 18.802 52.0228 18.802 52.2509C18.802 52.4789 18.86 52.7284 18.9759 52.9993C19.0918 53.1703 19.2222 53.2701 19.3671 53.2986ZM23.0127 51.1817C23.0996 51.2387 23.1721 51.3243 23.23 51.4383C23.7227 51.7519 24.3385 51.7377 25.0775 51.3955C25.831 51.0391 26.7221 50.3478 27.7509 49.3214C27.8379 49.2358 27.961 49.1004 28.1204 48.9151C28.2798 48.7155 28.3885 48.5801 28.4465 48.5088C28.461 48.5801 28.5117 48.7369 28.5986 48.9792C28.7 49.2073 28.7797 49.3641 28.8377 49.4497C29.1855 50.1054 29.5622 50.5758 29.9679 50.861C30.3881 51.1461 30.8373 51.2601 31.3155 51.2031C31.4604 51.1746 31.5618 51.1175 31.6198 51.032C31.6778 50.9465 31.7067 50.8324 31.7067 50.6899C31.7067 50.5331 31.656 50.419 31.5546 50.3478C31.4532 50.2765 31.3445 50.2337 31.2286 50.2195C31.0257 50.1909 30.8084 50.1054 30.5765 49.9629C30.3592 49.8203 30.2143 49.6706 30.1418 49.5138C29.9534 49.2002 29.8085 48.8295 29.7071 48.4019C29.6202 47.9742 29.6709 47.4753 29.8593 46.9051L30.2505 45.8359L29.4463 45.1303C29.3014 45.002 29.1565 44.8808 29.0116 44.7668L28.6638 44.4246L28.4465 44.2108C28.2146 44.0255 27.9321 43.9542 27.5988 43.997C27.28 44.0397 26.9685 44.1609 26.6642 44.3605C26.5193 44.446 26.3382 44.5886 26.1208 44.7881C25.9035 44.9735 25.6933 45.173 25.4905 45.3869C25.2876 45.5864 25.1137 45.7718 24.9688 45.9428C24.8384 46.1139 24.7732 46.2351 24.7732 46.3063V46.4346C24.7153 46.4346 24.6645 46.4631 24.6211 46.5202C24.5776 46.5629 24.5559 46.6128 24.5559 46.6699C24.4979 46.7269 24.411 46.848 24.2951 47.0334C24.1791 47.2187 24.0632 47.3684 23.9473 47.4824C23.672 47.9814 23.4329 48.4589 23.23 48.9151C23.0272 49.357 22.8823 49.7348 22.7953 50.0484C22.7084 50.3478 22.7011 50.5402 22.7736 50.6257C22.8316 50.6828 22.8605 50.7469 22.8605 50.8182C22.875 50.8752 22.8823 50.9322 22.8823 50.9893C22.8823 51.0463 22.9257 51.1104 23.0127 51.1817ZM24.4689 50.2408C24.1646 50.3406 24.0125 50.3406 24.0125 50.2408L24.1646 49.8559C24.2806 49.5851 24.411 49.3071 24.5559 49.022C24.9326 48.3377 25.3311 47.7105 25.7513 47.1403C26.1715 46.5701 26.5628 46.1139 26.925 45.7718C27.3017 45.4296 27.5843 45.2586 27.7727 45.2586C27.8886 45.2586 28.0263 45.3227 28.1856 45.451C28.3595 45.5651 28.5189 45.786 28.6638 46.1139L28.1856 46.8837C27.8814 47.3113 27.4756 47.7746 26.9685 48.2736C26.4758 48.7725 25.9831 49.2287 25.4905 49.6421C25.1282 49.9272 24.7877 50.1268 24.4689 50.2408ZM34.9349 51.9729C34.5147 52.0442 34.1307 52.0228 33.783 51.9087C33.4352 51.7804 33.1526 51.5737 32.9353 51.2886C32.7324 50.9893 32.631 50.6115 32.631 50.1553C32.5875 49.7276 32.6382 49.2358 32.7831 48.6799C32.928 48.1096 33.1381 47.5394 33.4135 46.9692C33.7033 46.399 34.0148 45.9072 34.3481 45.4938C34.6379 45.1516 34.9277 44.838 35.2175 44.5529C35.5073 44.2678 35.7681 44.0754 35.9999 43.9756C36.2028 43.89 36.3912 43.8401 36.5651 43.8259C36.7534 43.7974 36.9056 43.7831 37.0215 43.7831C37.2533 43.8401 37.4997 43.9471 37.7605 44.1039C38.0358 44.2464 38.1735 44.4032 38.1735 44.5743L38.2169 44.6385L38.2821 44.6812C38.3691 44.6812 38.4415 44.7739 38.4995 44.9592C38.5719 45.1445 38.6154 45.3584 38.6299 45.6007C38.6444 45.8288 38.6082 46.0212 38.5212 46.178C38.4633 46.4489 38.3618 46.6841 38.2169 46.8837C38.072 47.0833 37.9416 47.183 37.8257 47.183C37.7677 47.183 37.7098 47.1902 37.6518 47.2044C37.6083 47.2044 37.5866 47.2401 37.5866 47.3113C37.5866 47.3826 37.5431 47.4111 37.4562 47.3969C37.3837 47.3826 37.304 47.3399 37.2171 47.2686C37.1302 47.183 37.065 47.0833 37.0215 46.9692C37.0215 46.8979 37.0505 46.7768 37.1084 46.6057C37.1664 46.4346 37.2244 46.2137 37.2823 45.9428C37.3693 45.5437 37.362 45.2871 37.2606 45.173C37.1591 45.0447 36.9635 45.0376 36.6737 45.1516C36.3115 45.3512 35.9637 45.6292 35.6304 45.9856C35.3117 46.342 35.0146 46.8053 34.7393 47.3755C34.464 47.9315 34.2177 48.63 34.0003 49.471C33.9134 49.7989 33.8771 50.084 33.8916 50.3264C33.9206 50.5687 33.9568 50.697 34.0003 50.7113C34.2032 50.7683 34.4785 50.7825 34.8262 50.754C35.174 50.7113 35.4276 50.6471 35.587 50.5616C35.8188 50.4475 36.0796 50.2979 36.3694 50.1125C36.6592 49.913 36.9128 49.7348 37.1302 49.578C37.2026 49.5352 37.2896 49.4639 37.391 49.3641C37.4924 49.2643 37.6011 49.1859 37.717 49.1289C37.8329 48.9578 37.9344 48.8581 38.0213 48.8295C38.1082 48.801 38.2387 48.7868 38.4125 48.7868C38.5285 48.8153 38.6371 48.8581 38.7386 48.9151C38.84 48.9721 38.9052 49.0291 38.9342 49.0861C38.9777 49.1432 38.9559 49.1931 38.869 49.2358C38.811 49.2358 38.7748 49.2572 38.7603 49.3V49.3427C38.7893 49.3998 38.7241 49.5209 38.5647 49.7063C38.4198 49.8773 38.2314 50.0698 37.9996 50.2836C37.7677 50.4974 37.5431 50.6828 37.3258 50.8396C37.1229 50.9821 36.978 51.0534 36.8911 51.0534C36.7462 51.0534 36.6737 51.0962 36.6737 51.1817C36.6737 51.2102 36.5651 51.2815 36.3477 51.3955C36.1448 51.5096 35.9058 51.6236 35.6304 51.7377C35.3696 51.8517 35.1378 51.9301 34.9349 51.9729ZM40.7701 51.2031C40.8136 51.2886 40.8571 51.3599 40.9005 51.4169C41.0599 51.6165 41.2193 51.6521 41.3787 51.5238C41.5526 51.3955 41.8496 51.0391 42.2698 50.4547C42.6031 50.0128 42.9509 49.5922 43.3131 49.1931C43.6754 48.7939 44.0087 48.4375 44.313 48.1239C44.6172 47.8103 44.8346 47.5751 44.965 47.4183C45.2548 47.1759 45.5084 46.9763 45.7257 46.8195C45.9431 46.6485 46.0518 46.5914 46.0518 46.6485L45.8561 47.2472C45.7402 47.6321 45.6026 48.0669 45.4432 48.5516C45.2983 48.9935 45.1824 49.3356 45.0954 49.578C45.023 49.8203 44.9723 50.0056 44.9433 50.1339C44.9288 50.248 44.9288 50.3406 44.9433 50.4119C44.9578 50.4689 44.9867 50.5402 45.0302 50.6257C45.1461 50.8111 45.2693 50.9465 45.3997 51.032C45.5446 51.1175 45.6678 51.1033 45.7692 50.9893C45.8127 50.9607 45.8851 50.8324 45.9866 50.6044C46.088 50.3763 46.2039 50.1838 46.3343 50.027C46.5082 49.7562 46.7328 49.4497 47.0081 49.1075C47.2834 48.7654 47.5587 48.4375 47.834 48.1239C48.1239 47.8103 48.3702 47.5537 48.573 47.3541C48.7904 47.1403 48.9281 47.0334 48.986 47.0334C49.0295 47.0334 49.0512 47.1189 49.0512 47.29V47.5893C49.0077 47.6749 48.9788 47.8245 48.9643 48.0384C48.9498 48.2522 48.9136 48.4874 48.8556 48.744C48.7976 49.1004 48.7904 49.4568 48.8339 49.8132C48.8773 50.1553 48.9281 50.4048 48.986 50.5616C49.073 50.8752 49.2613 51.0748 49.5511 51.1603C49.8554 51.2458 50.08 51.2672 50.2249 51.2245C50.3263 51.2245 50.4133 51.2102 50.4857 51.1817C50.5727 51.1389 50.6451 51.1175 50.7031 51.1175C50.819 51.1175 50.9204 51.0748 51.0074 50.9893C51.1088 50.9037 51.2102 50.8111 51.3117 50.7113C51.3841 50.6685 51.4493 50.6115 51.5073 50.5402C51.5652 50.4547 51.616 50.4119 51.6594 50.4119C51.7319 50.4119 51.8406 50.3192 51.9855 50.1339C52.1449 49.9486 52.2825 49.7562 52.3984 49.5566C52.5288 49.357 52.5796 49.2287 52.5506 49.1717C52.5071 49.0006 52.3984 48.9222 52.2245 48.9365C52.0652 48.9365 51.8768 49.0363 51.6594 49.2358C51.4855 49.3926 51.2175 49.5566 50.8552 49.7276C50.5075 49.8845 50.2322 49.9842 50.0293 50.027C49.9279 50.027 49.8699 49.9985 49.8554 49.9415C49.8409 49.8702 49.8337 49.7419 49.8337 49.5566V49.1931C49.8482 49.0648 49.8844 48.9436 49.9424 48.8295C49.9713 48.6015 49.9931 48.4233 50.0076 48.295C50.0221 48.1667 50.0365 48.0455 50.051 47.9315C50.08 47.8032 50.109 47.6321 50.138 47.4183C50.138 47.1617 50.1307 46.9692 50.1162 46.8409C50.1017 46.7126 50.0438 46.5629 49.9424 46.3919C49.7975 46.0925 49.6236 45.9143 49.4207 45.8573C49.2179 45.786 48.9933 45.8003 48.7469 45.9001C48.7179 45.9571 48.66 46.0141 48.573 46.0711C48.4861 46.1139 48.4064 46.1638 48.334 46.2208C48.334 46.2636 48.3195 46.2921 48.2905 46.3063H48.247L48.1601 46.3277C48.1021 46.342 48.0586 46.399 48.0297 46.4988C47.9572 46.5558 47.8703 46.6271 47.7688 46.7126C47.6819 46.7982 47.595 46.8979 47.508 47.012L46.7256 47.9528L47.182 46.7982C47.182 46.2992 47.0733 45.8929 46.856 45.5793C46.6531 45.2657 46.385 45.1588 46.0518 45.2586C45.9214 45.2586 45.7765 45.3156 45.6171 45.4296C45.3852 45.615 45.1824 45.7789 45.0085 45.9214C44.8491 46.0497 44.7404 46.1139 44.6825 46.1139L44.5955 46.178L44.4651 46.3063C44.4651 46.4061 44.4434 46.4631 44.3999 46.4774L44.3564 46.4988C44.313 46.4988 44.226 46.5558 44.0956 46.6699C43.9652 46.7839 43.8783 46.8694 43.8348 46.9265C43.7623 47.0262 43.6971 47.0761 43.6392 47.0761C43.5957 47.0761 43.6102 47.0049 43.6826 46.8623L43.9 46.5416C44.1028 46.1424 44.2043 45.7931 44.2043 45.4938C44.2043 45.1802 44.1028 44.9022 43.9 44.6598C43.7696 44.3605 43.574 44.1752 43.3131 44.1039C43.0523 44.0326 42.7335 44.054 42.3568 44.168C42.2988 44.1823 42.2119 44.2108 42.096 44.2536C41.9945 44.2963 41.8641 44.3676 41.7047 44.4674C41.6468 44.5102 41.5671 44.5529 41.4657 44.5957C41.3642 44.6242 41.2555 44.6883 41.1396 44.7881C41.0382 44.8737 40.9802 44.9521 40.9657 45.0233C40.9512 45.0946 40.973 45.2087 41.0309 45.3655C41.1758 45.7076 41.3063 45.8929 41.4222 45.9214C41.5381 45.9357 41.7627 45.8288 42.096 45.6007C42.1829 45.5437 42.2771 45.5009 42.3785 45.4724C42.4944 45.4296 42.5814 45.4011 42.6393 45.3869L42.748 45.3441C42.8205 45.3156 42.8857 45.337 42.9436 45.4082C42.9726 45.5508 42.9581 45.729 42.9002 45.9428C42.8422 46.1424 42.7553 46.342 42.6393 46.5416C42.5959 46.5843 42.5307 46.677 42.4437 46.8195L42.3351 47.012C42.364 47.012 42.364 47.0547 42.3351 47.1403C42.3206 47.2116 42.2771 47.2686 42.2046 47.3113C42.0742 47.5252 41.9076 47.8174 41.7047 48.1881C41.5164 48.5444 41.328 48.9151 41.1396 49.3C40.9657 49.6849 40.8208 50.027 40.7049 50.3264C40.6035 50.6115 40.5745 50.7754 40.618 50.8182C40.6759 50.8182 40.7049 50.8396 40.7049 50.8823C40.7194 50.9251 40.7267 50.9607 40.7267 50.9893C40.7267 51.0463 40.7411 51.1175 40.7701 51.2031ZM55.6871 52.2722C55.0495 52.2722 54.5279 52.037 54.1221 51.5666C53.7164 51.0819 53.5208 50.4832 53.5353 49.7704C53.5643 49.2572 53.6657 48.7084 53.8396 48.1239C54.0279 47.5252 54.2743 46.955 54.5786 46.4133C54.8829 45.8573 55.2161 45.3726 55.5784 44.9592C55.9406 44.5458 56.3174 44.2536 56.7086 44.0825C56.8535 44.0112 57.0057 43.9542 57.165 43.9114C57.3389 43.8687 57.5128 43.8473 57.6867 43.8473C57.8461 43.8473 58.0127 43.8758 58.1866 43.9328C58.3605 43.9756 58.5054 44.0255 58.6213 44.0825C58.8676 44.1823 59.056 44.3034 59.1864 44.446C59.3168 44.5886 59.4327 44.8095 59.5342 45.1089C59.5776 45.3797 59.5994 45.5722 59.5994 45.6862C59.5994 45.8003 59.5632 45.9713 59.4907 46.1994C59.3168 46.7126 59.0922 47.1545 58.8169 47.5252C58.5416 47.8958 58.1721 48.2094 57.7084 48.466C57.5925 48.5373 57.4549 48.5943 57.2955 48.6371C57.1506 48.6656 56.9984 48.6799 56.839 48.6799C56.5492 48.6799 56.2667 48.63 55.9914 48.5302C55.7305 48.4161 55.5204 48.2522 55.361 48.0384L55.2089 47.8673L55.1437 48.0384C54.9988 48.4233 54.8829 48.7797 54.7959 49.1075C54.7235 49.4354 54.6872 49.7348 54.6872 50.0056C54.6872 50.1767 54.7017 50.3406 54.7307 50.4974C54.7742 50.6542 54.8321 50.7897 54.9046 50.9037C54.9626 50.9893 55.0567 51.0534 55.1871 51.0962C55.3321 51.1247 55.4842 51.1389 55.6436 51.1389H55.9479C56.0638 51.1247 56.1725 51.0962 56.2739 51.0534C56.5202 50.9679 56.7159 50.8752 56.8608 50.7754C57.0201 50.6756 57.1795 50.5687 57.3389 50.4547L57.4259 50.4119H57.4041C57.578 50.3264 57.7302 50.2408 57.8606 50.1553L58.0779 50.027C58.1359 50.027 58.1938 49.9914 58.2518 49.9201C58.3677 49.8631 58.5126 49.8845 58.6865 49.9842C58.8749 50.084 58.9691 50.2123 58.9691 50.3691C58.9546 50.4404 58.8894 50.5545 58.7735 50.7113C58.6575 50.8538 58.5271 50.9893 58.3822 51.1175C58.2518 51.2458 58.1431 51.3171 58.0562 51.3314C58.0417 51.3456 57.991 51.3741 57.904 51.4169C57.8171 51.4454 57.7591 51.4739 57.7302 51.5024H57.7519C57.6215 51.6735 57.4911 51.759 57.3607 51.759H57.1868C57.1288 51.8588 56.9404 51.9729 56.6217 52.1012C56.3029 52.2152 55.9914 52.2722 55.6871 52.2722ZM56.6651 47.5679C56.926 47.5679 57.1506 47.4967 57.3389 47.3541C57.5418 47.1973 57.7157 47.0262 57.8606 46.8409C58.1504 46.456 58.317 46.0854 58.3605 45.729C58.4184 45.3584 58.375 45.1018 58.2301 44.9592C58.1431 44.9164 58.0634 44.8951 57.991 44.8951C57.933 44.8808 57.8099 44.9022 57.6215 44.9592C57.4911 44.9877 57.31 45.0946 57.0781 45.2799C56.8463 45.4653 56.6144 45.672 56.3826 45.9001C56.1652 46.1281 55.9986 46.3206 55.8827 46.4774L55.6001 46.9265C55.716 46.8837 55.8247 46.8623 55.9261 46.8623C56.0421 46.848 56.1073 46.8552 56.1218 46.8837C56.1218 47.012 56.1435 47.1332 56.187 47.2472C56.2449 47.347 56.3101 47.4254 56.3826 47.4824C56.4695 47.5394 56.5637 47.5679 56.6651 47.5679ZM59.3863 56.7627C59.5022 56.8625 59.6109 56.9338 59.7123 56.9765C59.7413 56.948 59.7775 56.8839 59.821 56.7841C59.8645 56.6985 59.9297 56.5346 60.0166 56.2923C60.118 56.0499 60.2557 55.6793 60.4296 55.1803C60.6034 54.6957 60.828 54.0399 61.1034 53.2131C61.3062 52.4576 61.5018 51.7947 61.6902 51.2245C61.8786 50.6542 61.98 50.3549 61.9945 50.3264C61.9945 50.2693 62.0235 50.2408 62.0814 50.2408C62.1394 50.2408 62.2481 50.2551 62.4075 50.2836C62.5089 50.3406 62.6538 50.362 62.8422 50.3478C63.0305 50.3335 63.1754 50.3192 63.2769 50.305C63.5667 50.2622 63.9072 50.1767 64.2984 50.0484C64.6897 49.9201 65.0374 49.7847 65.3417 49.6421C65.646 49.4853 65.8054 49.3713 65.8199 49.3L65.9938 49.2144C66.1097 49.1432 66.2401 49.079 66.385 49.022C66.6023 48.8794 66.8052 48.7013 66.9936 48.4874C67.1964 48.2593 67.3558 48.0099 67.4718 47.739C67.6022 47.4682 67.6891 47.1973 67.7326 46.9265C67.7905 46.6413 67.7905 46.3776 67.7326 46.1353C67.7181 46.0212 67.6601 45.9072 67.5587 45.7931C67.4573 45.6648 67.3703 45.5651 67.2979 45.4938C67.1964 45.3085 67.0733 45.1588 66.9284 45.0447C66.798 44.9307 66.5589 44.8665 66.2111 44.8523C66.1242 44.8238 65.9865 44.8095 65.7981 44.8095H65.2113C65.0229 44.7953 64.8635 44.7881 64.7331 44.7881L63.9507 44.9592L64.1028 44.5315C64.2187 44.2749 64.2984 44.0611 64.3419 43.89C64.3854 43.719 64.3709 43.5693 64.2984 43.441C64.1101 43.1559 63.8855 43.049 63.6246 43.1202C63.5812 43.1345 63.5232 43.1701 63.4508 43.2272C63.3783 43.2699 63.3059 43.327 63.2334 43.3982C63.1754 43.4553 63.132 43.5265 63.103 43.6121C63.0885 43.6691 63.0305 43.8188 62.9291 44.0611C62.8422 44.2892 62.7335 44.5886 62.6031 44.9592C62.4727 45.3298 62.306 45.7575 62.1032 46.2422C61.9003 46.7126 61.7047 47.183 61.5163 47.6535C61.3279 48.1239 61.1758 48.5444 61.0599 48.9151C60.9005 49.4996 60.7339 49.9985 60.56 50.4119C60.4006 50.8111 60.3064 51.0463 60.2774 51.1175C60.118 51.531 59.9586 52.0014 59.7992 52.5288C59.6543 53.0705 59.5167 53.598 59.3863 54.1112C59.2704 54.6386 59.1762 55.0806 59.1037 55.4369C59.0313 55.8076 58.995 56.0357 58.995 56.1212C58.995 56.2067 59.0313 56.3065 59.1037 56.4206C59.1762 56.5489 59.2704 56.6629 59.3863 56.7627ZM62.8422 49.1717C62.6103 49.2002 62.4727 49.1717 62.4292 49.0861C62.4147 49.0291 62.4292 48.9222 62.4727 48.7654C62.5161 48.6086 62.6031 48.3734 62.7335 48.0598C62.8639 47.7746 62.9726 47.5323 63.0595 47.3327C63.1465 47.1332 63.2479 46.9692 63.3638 46.8409C63.4942 46.6984 63.6826 46.5843 63.9289 46.4988C64.5665 46.1567 65.1026 45.9785 65.5373 45.9642C65.972 45.95 66.2691 46.0569 66.4285 46.285C66.5734 46.3847 66.5444 46.5914 66.3415 46.9051C66.1387 47.2044 65.8778 47.5323 65.5591 47.8887C65.3417 48.074 65.0664 48.2593 64.7331 48.4447C64.3999 48.6157 64.0593 48.7725 63.7116 48.9151C63.3783 49.0434 63.0885 49.1289 62.8422 49.1717ZM75.8423 48.4019H75.5163C75.3859 48.3876 75.241 48.352 75.0816 48.295C74.8643 48.295 74.7194 48.2736 74.6469 48.2308C74.5744 48.1738 74.5092 48.0954 74.4513 47.9956C74.2919 47.7818 74.2774 47.6392 74.4078 47.5679C74.5382 47.4824 74.8715 47.4111 75.4076 47.3541C75.9003 47.2401 76.3567 47.1617 76.7769 47.1189C77.1972 47.0761 77.6971 47.0547 78.2767 47.0547C78.6534 47.0547 78.907 47.069 79.0374 47.0975C79.1678 47.126 79.3127 47.2187 79.4721 47.3755C79.6895 47.5893 79.7691 47.796 79.7112 47.9956C79.6532 48.1809 79.4576 48.2451 79.1243 48.1881C79.0229 48.2023 78.8345 48.2166 78.5592 48.2308C78.2839 48.2451 78.0158 48.2665 77.755 48.295C77.5956 48.3092 77.3421 48.3306 76.9943 48.3591C76.6465 48.3876 76.2625 48.4019 75.8423 48.4019ZM83.3447 52.871C83.4896 53.0563 83.62 53.1489 83.7359 53.1489C83.8519 53.1632 83.9315 53.1561 83.975 53.1276C84.0185 53.1133 84.0692 52.9921 84.1272 52.764C84.1996 52.5502 84.3155 52.1653 84.4749 51.6094C84.5764 51.2387 84.7068 50.8253 84.8662 50.3691C85.04 49.913 85.1849 49.5708 85.3009 49.3427C85.5907 48.5872 85.808 47.9885 85.9529 47.5466C86.0978 47.1046 86.2282 46.7696 86.3441 46.5416C86.3731 46.4703 86.4311 46.2992 86.518 46.0284C86.6195 45.7432 86.7281 45.4154 86.8441 45.0447C86.9745 44.6741 87.0976 44.3034 87.2136 43.9328C87.344 43.5622 87.4526 43.2485 87.5396 42.9919C87.641 42.7354 87.7062 42.5928 87.7352 42.5643C87.7207 42.493 87.7569 42.3433 87.8439 42.1152C87.9453 41.8872 88.0322 41.6306 88.1047 41.3454C88.322 40.932 88.4597 40.6042 88.5177 40.3618C88.5536 40.2029 88.5839 40.0605 88.6087 39.9344L88.6481 39.9342C88.9524 39.9342 89.3074 39.9128 89.7131 39.87C90.1913 39.8985 90.539 39.9342 90.7564 39.9769C90.9882 40.0054 91.1476 40.0482 91.2346 40.1052C91.336 40.1622 91.4229 40.2264 91.4954 40.2977C91.6982 40.3689 91.8794 40.4046 92.0388 40.4046C92.1982 40.4046 92.4445 40.3547 92.7778 40.2549C92.8937 40.1979 92.9734 40.1551 93.0168 40.1266C93.0603 40.0838 93.0603 39.9769 93.0168 39.8059C92.9589 39.5635 92.8502 39.3782 92.6908 39.2499C92.5459 39.1216 92.3068 39.0218 91.9736 38.9505C91.8287 38.8935 91.6041 38.8436 91.2998 38.8009C90.9955 38.7581 90.7129 38.7224 90.4521 38.6939C90.1913 38.6654 90.0391 38.6512 89.9957 38.6512L89.5392 38.6939C89.2494 38.7082 88.8944 38.7296 88.4742 38.7581C87.967 38.7866 87.5468 38.8151 87.2136 38.8436C86.8803 38.8721 86.5543 38.9078 86.2355 38.9505C85.9312 38.9933 85.5399 39.0432 85.0618 39.1002C84.8299 39.143 84.5836 39.1857 84.3228 39.2285C84.0764 39.2713 83.8736 39.3069 83.7142 39.3354C83.4389 39.3782 83.2288 39.4423 83.0839 39.5279C82.939 39.6134 82.8448 39.7417 82.8013 39.9128C82.7434 40.1409 82.8086 40.2834 82.9969 40.3404C83.1998 40.3975 83.5041 40.4188 83.9098 40.4046C84.0402 40.3761 84.2286 40.3547 84.4749 40.3404C84.7213 40.3119 84.9748 40.2905 85.2357 40.2763C85.4965 40.2478 85.6993 40.2264 85.8442 40.2121L86.9093 40.1052L87.2623 40.0876L87.257 40.1052C87.1846 40.1765 87.1411 40.262 87.1266 40.3618C87.1121 40.4474 87.0759 40.5115 87.0179 40.5543C87.0179 40.6113 86.989 40.6612 86.931 40.704C86.8875 40.7467 86.8658 40.8037 86.8658 40.875C86.8658 40.932 86.8586 41.0104 86.8441 41.1102C86.8296 41.1958 86.7789 41.267 86.6919 41.3241C86.6774 41.3811 86.6412 41.488 86.5832 41.6448C86.5253 41.8016 86.4383 41.9656 86.3224 42.1366C86.2934 42.2364 86.2282 42.4431 86.1268 42.7567C86.0254 43.0704 85.9022 43.4339 85.7573 43.8473C85.6269 44.2607 85.4892 44.6812 85.3443 45.1089C85.2139 45.5365 85.098 45.9143 84.9966 46.2422C84.9096 46.5558 84.8517 46.7696 84.8227 46.8837C84.7647 47.1118 84.685 47.347 84.5836 47.5893C84.4967 47.8317 84.4315 47.9814 84.388 48.0384C84.3735 48.0954 84.3373 48.2166 84.2793 48.4019L84.1272 49.0006C84.0112 49.2572 83.8808 49.6065 83.7359 50.0484C83.591 50.4903 83.4606 50.9251 83.3447 51.3528C83.2288 51.7804 83.1636 52.1083 83.1491 52.3364C83.1346 52.5075 83.1998 52.6856 83.3447 52.871ZM89.44 56.4633C89.0923 56.5631 88.7083 56.5774 88.2881 56.5061C87.8824 56.4491 87.5274 56.3279 87.2231 56.1426C86.9043 55.9573 86.7232 55.7506 86.6797 55.5225C86.6652 55.4369 86.6942 55.3443 86.7666 55.2445C86.8246 55.1447 86.9043 55.0734 87.0057 55.0307C87.0927 55.0022 87.1723 55.0307 87.2448 55.1162C87.3607 55.1875 87.5708 55.273 87.8751 55.3728C88.1794 55.4868 88.5199 55.5082 88.8967 55.4369C89.2299 55.3657 89.556 55.1732 89.8748 54.8596C90.208 54.546 90.4761 54.2537 90.6789 53.9829C90.7949 53.8118 90.9905 53.5053 91.2658 53.0634C91.5411 52.6215 91.8237 52.1368 92.1135 51.6094C92.17 51.5088 92.2247 51.4097 92.2777 51.3121C92.0925 51.2627 91.9074 51.1408 91.7222 50.9465C91.5194 50.7184 91.36 50.4761 91.2441 50.2195C91.1281 49.9629 91.0847 49.7775 91.1137 49.6635V49.4924V49.4283C91.0267 49.4283 90.947 49.3214 90.8746 49.1075C90.8166 48.8937 90.7731 48.6157 90.7442 48.2736C90.7152 47.9315 90.6934 47.5679 90.6789 47.183C90.6789 46.7982 90.6934 46.4346 90.7224 46.0925C90.7804 45.8502 90.8094 45.5864 90.8094 45.3013C90.8094 45.002 90.8166 44.7668 90.8311 44.5957C90.8166 44.3676 90.8383 44.2179 90.8963 44.1466C90.9543 44.0611 91.0122 43.997 91.0702 43.9542C91.4759 43.7831 91.744 43.89 91.8744 44.2749C92.0193 44.6456 92.0555 45.3441 91.9831 46.3705C91.9541 46.9407 91.9541 47.5109 91.9831 48.0811C92.012 48.6514 92.0917 49.1503 92.2221 49.578C92.3532 49.9646 92.5256 50.2406 92.7396 50.4058C92.7867 50.3062 92.8316 50.2084 92.8742 50.1125C92.9177 49.9985 92.9684 49.8631 93.0263 49.7063C93.0843 49.5494 93.1568 49.4212 93.2437 49.3214C93.3306 49.1503 93.4031 48.9935 93.461 48.8509C93.5335 48.6941 93.577 48.5872 93.5915 48.5302C93.6059 48.4589 93.6712 48.3164 93.7871 48.1025C93.903 47.8887 94.0117 47.6749 94.1131 47.461C94.1855 47.2472 94.2942 46.9336 94.4391 46.5202C94.584 46.1068 94.7289 45.7718 94.8738 45.5152C95.0477 45.1873 95.1854 44.9236 95.2868 44.724C95.4027 44.5102 95.5259 44.3819 95.6563 44.3391C95.7867 44.2393 95.8736 44.1894 95.9171 44.1894C95.9751 44.1894 96.0838 44.2322 96.2431 44.3177C96.417 44.4888 96.5257 44.6598 96.5692 44.8309C96.6126 44.9877 96.5909 45.1873 96.504 45.4296C96.4315 45.6577 96.2866 45.9713 96.0693 46.3705C95.9533 46.7126 95.8229 47.0262 95.678 47.3113C95.5476 47.5822 95.4462 47.7604 95.3737 47.8459C95.3013 48.017 95.2144 48.2094 95.1129 48.4233C95.026 48.6228 94.9463 48.8082 94.8738 48.9792C94.613 49.5494 94.3884 50.0128 94.2 50.3691C94.0117 50.7255 93.845 51.0534 93.7001 51.3528C93.5552 51.6521 93.4031 52.0014 93.2437 52.4005C92.9104 52.928 92.5844 53.4269 92.2656 53.8974C91.9613 54.382 91.6353 54.8311 91.2875 55.2445C91.1426 55.3728 90.9615 55.5225 90.7442 55.6935C90.5268 55.8646 90.3022 56.0214 90.0704 56.164C89.853 56.3065 89.6429 56.4063 89.44 56.4633ZM95.5812 56.9979H95.7986C95.9725 56.9979 96.1246 56.8981 96.255 56.6985C96.3854 56.499 96.4579 56.221 96.4724 55.8646C96.4724 55.7933 96.4796 55.6722 96.4941 55.5011C96.5086 55.3443 96.5448 55.2588 96.6028 55.2445C96.6608 55.2445 96.7115 55.159 96.7549 54.9879C96.8129 54.8311 96.8419 54.6671 96.8419 54.4961C96.8998 54.382 96.9506 54.211 96.994 53.9829C97.0375 53.7548 97.0592 53.5837 97.0592 53.4697C97.1317 53.3557 97.1679 53.2131 97.1679 53.042L97.1896 52.8068C97.1317 52.7355 97.1172 52.6785 97.1462 52.6357L97.1896 52.5716C97.2621 52.5716 97.3418 52.4647 97.4287 52.2509C97.5157 52.037 97.5881 51.8161 97.6461 51.588C97.7185 51.3456 97.7548 51.1817 97.7548 51.0962C97.7548 51.0534 97.7692 51.0035 97.7982 50.9465C97.8417 50.8895 97.8779 50.8467 97.9069 50.8182C98.0373 50.9322 98.2547 50.9893 98.559 50.9893C98.7908 50.9893 99.0589 50.9536 99.3632 50.8823C99.6674 50.7968 99.9355 50.7113 100.167 50.6257C100.399 50.5259 100.515 50.4618 100.515 50.4333C100.515 50.362 100.53 50.3264 100.559 50.3264L100.624 50.305C100.74 50.3478 100.921 50.3192 101.167 50.2195C101.414 50.1054 101.66 49.9629 101.906 49.7918C102.167 49.6065 102.355 49.4425 102.471 49.3C102.529 49.1859 102.587 49.0861 102.645 49.0006C102.703 48.9008 102.761 48.8509 102.819 48.8509C102.906 48.7654 103 48.63 103.102 48.4447C103.218 48.2451 103.312 48.0312 103.384 47.8032C103.457 47.5608 103.493 47.3541 103.493 47.183C103.493 46.7696 103.413 46.4061 103.254 46.0925C103.094 45.7789 102.855 45.5365 102.536 45.3655C102.232 45.1802 101.848 45.1018 101.385 45.1303C100.935 45.1445 100.414 45.2871 99.8196 45.5579C99.7906 45.5722 99.8051 45.5437 99.8631 45.4724C99.921 45.3869 99.9862 45.2657 100.059 45.1089C100.131 44.9521 100.167 44.7668 100.167 44.5529C100.225 44.2393 100.225 44.0183 100.167 43.89C100.124 43.7617 100.044 43.6049 99.9283 43.4196C99.7689 43.3056 99.6312 43.22 99.5153 43.163C99.4139 43.106 99.2907 43.1488 99.1458 43.2913C99.0444 43.4054 98.9792 43.4838 98.9502 43.5265C98.9212 43.555 98.9067 43.5978 98.9067 43.6548C98.9067 43.7974 98.8705 44.0183 98.798 44.3177C98.7401 44.6028 98.6242 44.9449 98.4503 45.3441C98.2764 45.7718 98.0808 46.2921 97.8634 46.9051C97.6461 47.518 97.4215 48.1453 97.1896 48.7868C96.9723 49.4283 96.7839 50.0056 96.6245 50.5188C96.4796 51.0178 96.3854 51.367 96.342 51.5666C96.342 51.6236 96.313 51.7377 96.255 51.9087C96.2116 52.0798 96.1898 52.2223 96.1898 52.3364C96.0159 52.4789 95.929 52.6357 95.929 52.8068C95.929 52.9636 95.9073 53.1418 95.8638 53.3414C95.8203 53.541 95.7624 53.6978 95.6899 53.8118C95.6899 53.8831 95.6682 53.9971 95.6247 54.154C95.5957 54.325 95.5812 54.4391 95.5812 54.4961C95.5812 54.6101 95.5595 54.7812 95.516 55.0093C95.4726 55.2516 95.4146 55.494 95.3422 55.7363C95.2697 56.1069 95.2335 56.3635 95.2335 56.5061C95.248 56.6487 95.2842 56.7556 95.3422 56.8268C95.4146 56.9551 95.4943 57.0122 95.5812 56.9979ZM99.1458 49.7063C98.7836 49.806 98.5445 49.8559 98.4286 49.8559C98.3271 49.8559 98.2837 49.7633 98.2981 49.578C98.3126 49.3926 98.3633 49.1646 98.4503 48.8937C98.5517 48.6228 98.6749 48.352 98.8198 48.0811C98.9647 47.8103 99.1241 47.5822 99.298 47.3969C99.6167 47.0975 99.9573 46.848 100.32 46.6485C100.682 46.4489 101.015 46.3349 101.319 46.3063C101.624 46.2636 101.834 46.342 101.95 46.5416C102.196 46.9264 102.21 47.3327 101.993 47.7604C101.79 48.1738 101.5 48.5444 101.124 48.8723C100.935 49.0291 100.646 49.1859 100.254 49.3427C99.8776 49.4853 99.5081 49.6065 99.1458 49.7063ZM107.143 51.3955C106.839 51.4525 106.643 51.4739 106.556 51.4597C106.484 51.4312 106.368 51.3456 106.208 51.2031C105.976 51.089 105.781 50.9465 105.621 50.7754C105.476 50.6044 105.368 50.4262 105.295 50.2408C105.237 50.0413 105.216 49.8773 105.23 49.749C105.274 49.2501 105.397 48.7155 105.6 48.1453C105.802 47.5751 106.049 47.0262 106.339 46.4988C106.628 45.9713 106.94 45.5223 107.273 45.1516C107.621 44.7668 107.954 44.5173 108.273 44.4032C108.563 44.2892 108.838 44.2464 109.099 44.2749C109.36 44.3034 109.548 44.4389 109.664 44.6812C109.881 45.0946 109.831 45.3584 109.512 45.4724C109.468 45.4724 109.418 45.4938 109.36 45.5365C109.302 45.5651 109.273 45.6078 109.273 45.6648C109.331 45.6934 109.49 45.7005 109.751 45.6862C110.012 45.6577 110.273 45.615 110.534 45.5579C110.809 45.4867 110.99 45.4154 111.077 45.3441C111.164 45.3013 111.229 45.2799 111.272 45.2799C111.316 45.2799 111.425 45.2942 111.599 45.3227C111.845 45.394 111.968 45.4795 111.968 45.5793C111.968 45.6363 111.99 45.6934 112.033 45.7504C112.077 45.7931 112.127 45.8145 112.185 45.8145C112.287 45.8288 112.272 45.8929 112.142 46.007C112.026 46.121 111.823 46.2778 111.533 46.4774C111.258 46.6485 111.084 46.7625 111.012 46.8195C110.954 46.8623 110.946 46.9621 110.99 47.1189C111.106 47.3898 111.113 47.7034 111.012 48.0598C110.91 48.4161 110.729 48.7797 110.468 49.1503C110.207 49.5209 109.889 49.8702 109.512 50.1981C109.15 50.5117 108.758 50.7825 108.338 51.0106C107.933 51.2245 107.534 51.3528 107.143 51.3955ZM106.773 50.4547C106.831 50.4547 106.933 50.4262 107.078 50.3691L107.425 50.1981C107.483 50.1411 107.556 50.0769 107.643 50.0056C107.744 49.9201 107.824 49.8702 107.882 49.8559C107.94 49.8559 108.012 49.8346 108.099 49.7918C108.186 49.7348 108.309 49.6279 108.469 49.471C108.628 49.3 108.838 49.0505 109.099 48.7226C109.389 48.409 109.613 48.1239 109.773 47.8673C109.932 47.5965 109.976 47.347 109.903 47.1189C109.889 47.0619 109.845 47.0262 109.773 47.012C109.715 46.9977 109.635 46.9621 109.534 46.9051C109.389 46.9051 109.251 46.8694 109.121 46.7982C109.005 46.7126 108.867 46.6057 108.708 46.4774L108.36 46.0497L107.99 46.4133C107.759 46.6413 107.512 46.9835 107.251 47.4396C107.005 47.8816 106.795 48.3377 106.621 48.8082C106.447 49.2643 106.346 49.6279 106.317 49.8987C106.302 50.1125 106.339 50.2551 106.426 50.3264C106.512 50.3976 106.628 50.4404 106.773 50.4547ZM113.24 48.017C113.168 48.3591 113.124 48.6442 113.11 48.8723C113.11 48.9436 113.117 49.0149 113.132 49.0861C113.146 49.1432 113.161 49.1859 113.175 49.2144C113.175 49.2287 113.168 49.2501 113.153 49.2786V49.3641C113.066 49.4497 113.059 49.5423 113.132 49.6421C113.204 49.7419 113.19 49.8274 113.088 49.8987C113.161 49.9842 113.19 50.0769 113.175 50.1767C113.175 50.2622 113.182 50.3549 113.197 50.4547C113.226 50.6685 113.313 50.8752 113.458 51.0748C113.617 51.2744 113.719 51.4739 113.762 51.6735C113.921 51.7305 114.03 51.7733 114.088 51.8018C114.16 51.8303 114.269 51.9016 114.414 52.0156L114.458 51.9729C114.791 51.8873 115.081 51.8232 115.327 51.7804C115.588 51.7377 115.841 51.5737 116.088 51.2886C116.146 51.2173 116.211 51.1603 116.283 51.1175C116.356 51.0605 116.414 50.9964 116.457 50.9251C116.573 50.7113 116.682 50.5188 116.783 50.3478C116.885 50.1767 116.935 49.9771 116.935 49.749C116.935 49.6777 116.943 49.6421 116.957 49.6421C116.986 49.6279 117.008 49.5922 117.022 49.5352C117.051 49.3641 117.08 49.1574 117.109 48.9151C117.138 48.6727 117.138 48.466 117.109 48.295C117.095 48.1239 117.08 47.96 117.066 47.8032C117.066 47.6321 117.051 47.4539 117.022 47.2686C117.008 47.183 117.001 47.0975 117.001 47.012C117.015 46.9265 117.022 46.848 117.022 46.7768C117.008 46.4917 116.906 46.2707 116.718 46.1139C116.53 45.9428 116.312 45.8217 116.066 45.7504C116.544 45.3655 116.95 45.0305 117.283 44.7454C117.631 44.446 117.928 44.1609 118.174 43.89C118.435 43.6049 118.674 43.2771 118.892 42.9064C119.123 42.5215 119.377 42.0511 119.652 41.4951L119.696 41.2813C119.725 41.21 119.746 41.1459 119.761 41.0889C119.804 40.9748 119.841 40.8679 119.87 40.7681C119.899 40.6541 119.906 40.5471 119.891 40.4474C119.964 40.3191 120 40.1765 120 40.0197V39.5493C120 39.3782 119.891 39.1929 119.674 38.9933C119.471 38.7937 119.297 38.6512 119.152 38.5656C118.877 38.5799 118.652 38.6013 118.479 38.6298C118.305 38.644 118.095 38.7296 117.848 38.8864C117.602 39.0289 117.334 39.2428 117.044 39.5279C116.769 39.7987 116.515 40.091 116.283 40.4046C116.051 40.704 115.87 40.9819 115.74 41.2385L115.566 41.5807C115.508 41.6805 115.436 41.7874 115.349 41.9014C115.204 42.101 115.059 42.3576 114.914 42.6712C114.769 42.9848 114.66 43.2628 114.588 43.5051C114.501 43.776 114.4 44.0682 114.284 44.3819C114.168 44.6812 114.037 44.9592 113.892 45.2158C113.863 45.2301 113.827 45.2514 113.784 45.2799L113.653 45.3227L113.501 45.2586C113.327 45.3441 113.219 45.451 113.175 45.5793C113.146 45.7076 113.117 45.8502 113.088 46.007L113.306 46.178C113.378 46.2351 113.443 46.2992 113.501 46.3705C113.53 46.4988 113.508 46.7197 113.436 47.0334C113.378 47.347 113.313 47.6749 113.24 48.017ZM115.631 49.6635C115.515 50.0056 115.283 50.3406 114.936 50.6685H114.653C114.523 50.5117 114.436 50.2337 114.392 49.8346C114.363 49.4354 114.363 49.0077 114.392 48.5516C114.421 48.0811 114.465 47.6535 114.523 47.2686C114.595 46.8837 114.668 46.62 114.74 46.4774C114.856 46.3063 114.95 46.1852 115.023 46.1139C115.095 46.0426 115.189 45.9785 115.305 45.9214C115.465 46.064 115.573 46.2351 115.631 46.4346C115.689 46.62 115.747 46.791 115.805 46.9478C115.776 47.0049 115.769 47.069 115.783 47.1403C115.812 47.2116 115.827 47.2828 115.827 47.3541C115.827 47.7818 115.82 48.1881 115.805 48.573C115.805 48.9436 115.747 49.3071 115.631 49.6635ZM116.327 42.3505C116.704 41.6805 117.138 41.0817 117.631 40.5543C117.79 40.3689 117.95 40.1908 118.109 40.0197C118.268 39.8344 118.421 39.6491 118.565 39.4637L118.718 39.3996C118.747 39.5564 118.725 39.7916 118.652 40.1052C118.594 40.4046 118.508 40.7253 118.392 41.0675C118.276 41.3953 118.145 41.6947 118 41.9656C117.87 42.2364 117.74 42.4217 117.609 42.5215C117.595 42.5643 117.522 42.6783 117.392 42.8637C117.276 43.0347 117.153 43.1987 117.022 43.3555C116.892 43.5123 116.805 43.6049 116.761 43.6334L115.675 44.5102L115.436 44.3819C115.653 43.6976 115.95 43.0205 116.327 42.3505Z" fill="url(#paint0_linear_201_3946)"/>
<path d="M135.674 45.9588H130.34C131.856 48.9349 134.528 51.195 137.78 52.1637C136.985 50.5961 136.189 48.5137 135.674 45.9588Z" fill="url(#paint1_linear_201_3946)"/>
<path d="M138.186 45.9588C138.884 49.0893 140.035 51.3401 140.914 52.6972C141.036 52.6972 141.148 52.7346 141.275 52.7346C141.401 52.7346 141.513 52.7018 141.63 52.6972C142.515 51.3355 143.666 49.0893 144.358 45.9588H138.182H138.186Z" fill="url(#paint2_linear_201_3946)"/>
<path d="M153.157 37.3392H147.261C147.363 38.3125 147.434 39.3279 147.434 40.4182C147.434 41.5085 147.359 42.5193 147.256 43.4973H153.157C153.414 42.5053 153.592 41.4851 153.592 40.4182C153.592 39.3513 153.414 38.3312 153.157 37.3392Z" fill="url(#paint3_linear_201_3946)"/>
<path d="M144.77 28.6639C145.584 30.2549 146.379 32.3185 146.889 34.8735H152.214C150.698 31.8927 148.026 29.6372 144.77 28.6639Z" fill="url(#paint4_linear_201_3946)"/>
<path d="M141.641 28.1349C141.519 28.1349 141.402 28.0975 141.281 28.0975C141.159 28.0975 141.042 28.1303 140.92 28.1349C139.998 29.5434 138.871 31.7849 138.188 34.8733H144.369C143.686 31.7989 142.563 29.5528 141.641 28.1349Z" fill="url(#paint5_linear_201_3946)"/>
<path d="M144.779 37.3392H137.774C137.662 38.3078 137.582 39.3186 137.582 40.4182C137.582 41.5179 137.666 42.5287 137.779 43.4973H144.779C144.891 42.5287 144.975 41.5179 144.975 40.4182C144.975 39.3186 144.896 38.3078 144.784 37.3392H144.779Z" fill="url(#paint6_linear_201_3946)"/>
<path d="M130.34 34.8736H135.67C136.18 32.3186 136.975 30.255 137.785 28.664C134.528 29.6373 131.856 31.8928 130.34 34.8736Z" fill="url(#paint7_linear_201_3946)"/>
<path d="M135.117 40.4183C135.117 39.328 135.187 38.3126 135.29 37.3392H129.394C129.137 38.3313 128.959 39.3514 128.959 40.4183C128.959 41.4852 129.137 42.5053 129.394 43.4973H135.295C135.192 42.5193 135.117 41.5086 135.117 40.4183Z" fill="url(#paint8_linear_201_3946)"/>
<path d="M146.883 45.9588C146.368 48.5184 145.573 50.5961 144.777 52.1637C148.03 51.1904 150.701 48.9349 152.218 45.9588H146.883Z" fill="url(#paint9_linear_201_3946)"/>
<path d="M189.82 9.35169L157.7 0.7453C154.741 -0.0495412 151.704 1.70858 150.915 4.6616L148.02 15.4735H160.679C162.39 15.4735 163.901 16.2631 164.916 17.4843C165.969 17.7686 167.943 18.295 169.754 18.7792L178.876 10.2729L181.429 10.9572L175.713 20.3742C177.392 20.8216 179.103 21.2848 180.224 21.5849L183.687 19.5478L185.388 20.0057L182.698 24.0747L182.993 28.9437L181.292 28.4858L179.308 24.9906C178.187 24.6905 176.471 24.2326 174.797 23.7799L175.039 34.7971L172.486 34.1128L168.838 22.1849C167.948 21.9481 167.059 21.7059 166.222 21.4849V54.8155L169.075 43.9562L171.749 44.6721L166.217 65.7117V70.8966C166.217 73.9549 163.737 76.4394 160.674 76.4394H151.115L170.454 81.619C173.412 82.4086 176.45 80.6558 177.239 77.7027L186.209 44.2247L183.524 43.5246L184.245 40.8506L186.925 41.5506L193.736 16.1421C194.526 13.1838 192.773 10.1465 189.814 9.35169H189.82ZM170.143 39.9399L167.469 39.224L168.191 36.55L170.865 37.2659L170.143 39.9399ZM173.539 37.9818L176.218 38.6976L175.502 41.3717L172.823 40.6558L173.539 37.9818ZM171.891 76.271L169.217 75.5551L177.108 46.1091L179.782 46.825L171.891 76.271ZM180.85 42.814L178.176 42.0981L178.897 39.424L181.571 40.1399L180.85 42.814Z" fill="#11233F"/>
<path d="M189.82 9.35169L157.7 0.7453C154.741 -0.0495412 151.704 1.70858 150.915 4.6616L148.02 15.4735H160.679C162.39 15.4735 163.901 16.2631 164.916 17.4843C165.969 17.7686 167.943 18.295 169.754 18.7792L178.876 10.2729L181.429 10.9572L175.713 20.3742C177.392 20.8216 179.103 21.2848 180.224 21.5849L183.687 19.5478L185.388 20.0057L182.698 24.0747L182.993 28.9437L181.292 28.4858L179.308 24.9906C178.187 24.6905 176.471 24.2326 174.797 23.7799L175.039 34.7971L172.486 34.1128L168.838 22.1849C167.948 21.9481 167.059 21.7059 166.222 21.4849V54.8155L169.075 43.9562L171.749 44.6721L166.217 65.7117V70.8966C166.217 73.9549 163.737 76.4394 160.674 76.4394H151.115L170.454 81.619C173.412 82.4086 176.45 80.6558 177.239 77.7027L186.209 44.2247L183.524 43.5246L184.245 40.8506L186.925 41.5506L193.736 16.1421C194.526 13.1838 192.773 10.1465 189.814 9.35169H189.82ZM170.143 39.9399L167.469 39.224L168.191 36.55L170.865 37.2659L170.143 39.9399ZM173.539 37.9818L176.218 38.6976L175.502 41.3717L172.823 40.6558L173.539 37.9818ZM171.891 76.271L169.217 75.5551L177.108 46.1091L179.782 46.825L171.891 76.271ZM180.85 42.814L178.176 42.0981L178.897 39.424L181.571 40.1399L180.85 42.814Z" fill="url(#paint10_linear_201_3946)"/>
<defs>
<linearGradient id="paint0_linear_201_3946" x1="-0.00905528" y1="18.4534" x2="33.7001" y2="117.862" gradientUnits="userSpaceOnUse">
<stop stop-color="#AF8338"/>
<stop offset="0.1" stop-color="#AF8338"/>
<stop offset="0.11" stop-color="#AF8338"/>
<stop offset="0.16" stop-color="#C09951"/>
<stop offset="0.26" stop-color="#D9BB77"/>
<stop offset="0.34" stop-color="#EBD392"/>
<stop offset="0.42" stop-color="#F6E2A2"/>
<stop offset="0.48" stop-color="#FAE7A8"/>
<stop offset="0.9" stop-color="#AF8338"/>
<stop offset="0.96" stop-color="#825428"/>
<stop offset="1" stop-color="#6F4022"/>
</linearGradient>
<linearGradient id="paint1_linear_201_3946" x1="130.339" y1="45.959" x2="136.443" y2="53.2778" gradientUnits="userSpaceOnUse">
<stop stop-color="#AF8338"/>
<stop offset="0.1" stop-color="#AF8338"/>
<stop offset="0.11" stop-color="#AF8338"/>
<stop offset="0.16" stop-color="#C09951"/>
<stop offset="0.26" stop-color="#D9BB77"/>
<stop offset="0.34" stop-color="#EBD392"/>
<stop offset="0.42" stop-color="#F6E2A2"/>
<stop offset="0.48" stop-color="#FAE7A8"/>
<stop offset="0.9" stop-color="#AF8338"/>
<stop offset="0.96" stop-color="#825428"/>
<stop offset="1" stop-color="#6F4022"/>
</linearGradient>
<linearGradient id="paint2_linear_201_3946" x1="138.181" y1="45.9591" x2="144.928" y2="52.1092" gradientUnits="userSpaceOnUse">
<stop stop-color="#AF8338"/>
<stop offset="0.1" stop-color="#AF8338"/>
<stop offset="0.11" stop-color="#AF8338"/>
<stop offset="0.16" stop-color="#C09951"/>
<stop offset="0.26" stop-color="#D9BB77"/>
<stop offset="0.34" stop-color="#EBD392"/>
<stop offset="0.42" stop-color="#F6E2A2"/>
<stop offset="0.48" stop-color="#FAE7A8"/>
<stop offset="0.9" stop-color="#AF8338"/>
<stop offset="0.96" stop-color="#825428"/>
<stop offset="1" stop-color="#6F4022"/>
</linearGradient>
<linearGradient id="paint3_linear_201_3946" x1="147.256" y1="37.3394" x2="153.411" y2="43.6724" gradientUnits="userSpaceOnUse">
<stop stop-color="#AF8338"/>
<stop offset="0.1" stop-color="#AF8338"/>
<stop offset="0.11" stop-color="#AF8338"/>
<stop offset="0.16" stop-color="#C09951"/>
<stop offset="0.26" stop-color="#D9BB77"/>
<stop offset="0.34" stop-color="#EBD392"/>
<stop offset="0.42" stop-color="#F6E2A2"/>
<stop offset="0.48" stop-color="#FAE7A8"/>
<stop offset="0.9" stop-color="#AF8338"/>
<stop offset="0.96" stop-color="#825428"/>
<stop offset="1" stop-color="#6F4022"/>
</linearGradient>
<linearGradient id="paint4_linear_201_3946" x1="144.769" y1="28.6642" x2="150.877" y2="35.9877" gradientUnits="userSpaceOnUse">
<stop stop-color="#AF8338"/>
<stop offset="0.1" stop-color="#AF8338"/>
<stop offset="0.11" stop-color="#AF8338"/>
<stop offset="0.16" stop-color="#C09951"/>
<stop offset="0.26" stop-color="#D9BB77"/>
<stop offset="0.34" stop-color="#EBD392"/>
<stop offset="0.42" stop-color="#F6E2A2"/>
<stop offset="0.48" stop-color="#FAE7A8"/>
<stop offset="0.9" stop-color="#AF8338"/>
<stop offset="0.96" stop-color="#825428"/>
<stop offset="1" stop-color="#6F4022"/>
</linearGradient>
<linearGradient id="paint5_linear_201_3946" x1="138.187" y1="28.0978" x2="144.934" y2="34.2529" gradientUnits="userSpaceOnUse">
<stop stop-color="#AF8338"/>
<stop offset="0.1" stop-color="#AF8338"/>
<stop offset="0.11" stop-color="#AF8338"/>
<stop offset="0.16" stop-color="#C09951"/>
<stop offset="0.26" stop-color="#D9BB77"/>
<stop offset="0.34" stop-color="#EBD392"/>
<stop offset="0.42" stop-color="#F6E2A2"/>
<stop offset="0.48" stop-color="#FAE7A8"/>
<stop offset="0.9" stop-color="#AF8338"/>
<stop offset="0.96" stop-color="#825428"/>
<stop offset="1" stop-color="#6F4022"/>
</linearGradient>
<linearGradient id="paint6_linear_201_3946" x1="137.582" y1="37.3394" x2="143.638" y2="44.6106" gradientUnits="userSpaceOnUse">
<stop stop-color="#AF8338"/>
<stop offset="0.1" stop-color="#AF8338"/>
<stop offset="0.11" stop-color="#AF8338"/>
<stop offset="0.16" stop-color="#C09951"/>
<stop offset="0.26" stop-color="#D9BB77"/>
<stop offset="0.34" stop-color="#EBD392"/>
<stop offset="0.42" stop-color="#F6E2A2"/>
<stop offset="0.48" stop-color="#FAE7A8"/>
<stop offset="0.9" stop-color="#AF8338"/>
<stop offset="0.96" stop-color="#825428"/>
<stop offset="1" stop-color="#6F4022"/>
</linearGradient>
<linearGradient id="paint7_linear_201_3946" x1="130.339" y1="28.6643" x2="136.448" y2="35.9879" gradientUnits="userSpaceOnUse">
<stop stop-color="#AF8338"/>
<stop offset="0.1" stop-color="#AF8338"/>
<stop offset="0.11" stop-color="#AF8338"/>
<stop offset="0.16" stop-color="#C09951"/>
<stop offset="0.26" stop-color="#D9BB77"/>
<stop offset="0.34" stop-color="#EBD392"/>
<stop offset="0.42" stop-color="#F6E2A2"/>
<stop offset="0.48" stop-color="#FAE7A8"/>
<stop offset="0.9" stop-color="#AF8338"/>
<stop offset="0.96" stop-color="#825428"/>
<stop offset="1" stop-color="#6F4022"/>
</linearGradient>
<linearGradient id="paint8_linear_201_3946" x1="128.959" y1="37.3395" x2="135.114" y2="43.6724" gradientUnits="userSpaceOnUse">
<stop stop-color="#AF8338"/>
<stop offset="0.1" stop-color="#AF8338"/>
<stop offset="0.11" stop-color="#AF8338"/>
<stop offset="0.16" stop-color="#C09951"/>
<stop offset="0.26" stop-color="#D9BB77"/>
<stop offset="0.34" stop-color="#EBD392"/>
<stop offset="0.42" stop-color="#F6E2A2"/>
<stop offset="0.48" stop-color="#FAE7A8"/>
<stop offset="0.9" stop-color="#AF8338"/>
<stop offset="0.96" stop-color="#825428"/>
<stop offset="1" stop-color="#6F4022"/>
</linearGradient>
<linearGradient id="paint9_linear_201_3946" x1="144.777" y1="45.959" x2="150.881" y2="53.2778" gradientUnits="userSpaceOnUse">
<stop stop-color="#AF8338"/>
<stop offset="0.1" stop-color="#AF8338"/>
<stop offset="0.11" stop-color="#AF8338"/>
<stop offset="0.16" stop-color="#C09951"/>
<stop offset="0.26" stop-color="#D9BB77"/>
<stop offset="0.34" stop-color="#EBD392"/>
<stop offset="0.42" stop-color="#F6E2A2"/>
<stop offset="0.48" stop-color="#FAE7A8"/>
<stop offset="0.9" stop-color="#AF8338"/>
<stop offset="0.96" stop-color="#825428"/>
<stop offset="1" stop-color="#6F4022"/>
</linearGradient>
<linearGradient id="paint10_linear_201_3946" x1="148.017" y1="0.557462" x2="217.61" y2="39.8749" gradientUnits="userSpaceOnUse">
<stop stop-color="#AF8338"/>
<stop offset="0.1" stop-color="#AF8338"/>
<stop offset="0.11" stop-color="#AF8338"/>
<stop offset="0.16" stop-color="#C09951"/>
<stop offset="0.26" stop-color="#D9BB77"/>
<stop offset="0.34" stop-color="#EBD392"/>
<stop offset="0.42" stop-color="#F6E2A2"/>
<stop offset="0.48" stop-color="#FAE7A8"/>
<stop offset="0.9" stop-color="#AF8338"/>
<stop offset="0.96" stop-color="#825428"/>
<stop offset="1" stop-color="#6F4022"/>
</linearGradient>
</defs>
</svg>
