<svg width="32" height="32" viewBox="0 0 32 32" fill="none" xmlns="http://www.w3.org/2000/svg">
<rect width="32" height="32" rx="16" fill="url(#paint0_linear_213_4562)"/>
<path fill-rule="evenodd" clip-rule="evenodd" d="M16 11.6C14.6745 11.6 13.6 12.6745 13.6 14C13.6 15.3255 14.6745 16.4 16 16.4C17.3255 16.4 18.4 15.3255 18.4 14C18.4 12.6745 17.3255 11.6 16 11.6ZM12 14C12 11.7909 13.7909 10 16 10C18.2091 10 20 11.7909 20 14C20 16.2091 18.2091 18 16 18C13.7909 18 12 16.2091 12 14Z" fill="black"/>
<path fill-rule="evenodd" clip-rule="evenodd" d="M16 6.57143C14.264 6.57143 12.5992 7.31645 11.3717 8.6426C10.1442 9.96875 9.45455 11.7674 9.45455 13.6429C9.45455 16.8957 11.1359 19.8576 12.9124 22.0648C13.7918 23.1574 14.6731 24.0382 15.3347 24.6458C15.5963 24.886 15.8227 25.0827 16 25.2321C16.1773 25.0827 16.4037 24.886 16.6653 24.6458C17.3269 24.0382 18.2082 23.1574 19.0876 22.0648C20.8641 19.8576 22.5455 16.8957 22.5455 13.6429C22.5455 11.7674 21.8558 9.96875 20.6283 8.6426C19.4008 7.31645 17.736 6.57143 16 6.57143ZM16 26.2143C15.5829 26.858 15.5827 26.8578 15.5825 26.8576L15.5819 26.8572L15.5802 26.8559L15.5748 26.8518L15.5563 26.8376C15.5406 26.8255 15.5182 26.808 15.4895 26.7854C15.4322 26.7402 15.3498 26.6742 15.2459 26.5884C15.0382 26.4169 14.7442 26.1659 14.3926 25.8431C13.6905 25.1984 12.7536 24.2623 11.8148 23.0959C9.95502 20.7853 8 17.4615 8 13.6429C8 11.3506 8.84285 9.15228 10.3431 7.53143C11.8434 5.91058 13.8783 5 16 5C18.1217 5 20.1566 5.91058 21.6569 7.53143C23.1571 9.15228 24 11.3506 24 13.6429C24 17.4615 22.045 20.7853 20.1852 23.0959C19.2464 24.2623 18.3095 25.1984 17.6074 25.8431C17.2558 26.1659 16.9618 26.4169 16.7541 26.5884C16.6502 26.6742 16.5678 26.7402 16.5105 26.7854C16.4818 26.808 16.4594 26.8255 16.4437 26.8376L16.4252 26.8518L16.4198 26.8559L16.4181 26.8572L16.4175 26.8576C16.4173 26.8578 16.4171 26.858 16 26.2143ZM16 26.2143L16.4171 26.858C16.1666 27.0473 15.8334 27.0473 15.5829 26.858L16 26.2143Z" fill="black"/>
<defs>
<linearGradient id="paint0_linear_213_4562" x1="-0.00177291" y1="0.00127293" x2="31.9962" y2="31.9992" gradientUnits="userSpaceOnUse">
<stop stop-color="#AF8338"/>
<stop offset="0.1" stop-color="#AF8338"/>
<stop offset="0.11" stop-color="#AF8338"/>
<stop offset="0.16" stop-color="#C09951"/>
<stop offset="0.26" stop-color="#D9BB77"/>
<stop offset="0.34" stop-color="#EBD392"/>
<stop offset="0.42" stop-color="#F6E2A2"/>
<stop offset="0.48" stop-color="#FAE7A8"/>
<stop offset="0.9" stop-color="#AF8338"/>
<stop offset="0.96" stop-color="#825428"/>
<stop offset="1" stop-color="#6F4022"/>
</linearGradient>
</defs>
</svg>
