<svg width="30" height="30" viewBox="0 0 30 30" fill="none" xmlns="http://www.w3.org/2000/svg">
<g clip-path="url(#clip0_201_3582)">
<path d="M25.2501 28.9995V26.9995C25.2501 26.7235 25.0261 26.4996 24.7501 26.4996C24.4741 26.4996 24.2501 26.7235 24.2501 26.9995V28.9995H23.7501V27.9995C23.7501 27.7235 23.5261 27.4995 23.2501 27.4995C22.9741 27.4995 22.7501 27.7235 22.7501 27.9995V28.9995H22.2501V26.9995C22.2501 26.7235 22.0261 26.4996 21.7501 26.4996C21.4741 26.4996 21.2501 26.7235 21.2501 26.9995V28.9995H20.7372C20.6552 26.5965 20.0802 16.2077 16.2142 9.80583C17.1152 9.42734 17.7502 8.53685 17.7502 7.49987C17.7502 7.40487 17.7327 7.31437 17.7222 7.22187L19.1012 6.85238L19.4117 6.07889L20.0672 6.59338L25.8626 5.04041L25.7331 4.55742C25.2591 2.78795 21.8351 1.97896 18.5487 2.85894C16.9067 3.29894 15.3857 4.14092 14.3458 5.17541C14.3233 5.18391 14.2988 5.18791 14.2768 5.19741C13.6298 3.81343 12.3078 2.41395 10.6958 1.43847C9.30535 0.596982 7.75387 0.0899907 6.3264 0.010492C4.86992 -0.0705066 3.77794 0.314987 3.32295 1.06747L3.06395 1.49497L8.19686 4.60142L8.96935 4.28992L9.05185 5.11941L9.69034 5.5059C8.83135 5.5104 7.92887 5.6234 7.04888 5.8594C5.47891 6.27989 4.03843 7.04838 2.99345 8.02336C1.92897 9.01634 1.44848 10.0728 1.67647 10.9223L1.80597 11.4053L7.60137 9.85283L7.91187 9.07934L8.56736 9.59383L9.88084 9.24184C9.80334 9.48233 9.75034 9.73383 9.75034 9.99983C9.75034 11.3783 10.8718 12.4998 12.2503 12.4998C12.8178 12.4998 13.3353 12.3028 13.7553 11.9828C13.8548 12.5533 13.9498 13.1203 14.0348 13.6793C14.0478 13.7653 14.0623 13.8533 14.0753 13.9388C14.1828 14.6587 14.2793 15.3677 14.3618 16.0592C14.3623 16.0622 14.3638 16.0642 14.3643 16.0672C15.1372 22.5621 14.6768 27.1435 13.0193 29H12.7503V27.5C12.7503 27.224 12.5263 27 12.2503 27C11.9743 27 11.7503 27.224 11.7503 27.5V29H10.2373C10.5548 28.581 10.7503 28.065 10.7503 27.5C10.7503 26.1216 9.62884 25.0001 8.25036 25.0001C6.87189 25.0001 5.7504 26.1216 5.7504 27.5C5.7504 28.065 5.9459 28.581 6.2634 29H0.750488V30H13.2503H20.2502H29.25V29L25.2501 28.9995ZM6.75039 27.4995C6.75039 26.6725 7.42338 25.9996 8.25036 25.9996C9.07735 25.9996 9.75034 26.6725 9.75034 27.4995C9.75034 28.3265 9.07735 28.9995 8.25036 28.9995C7.42338 28.9995 6.75039 28.327 6.75039 27.4995ZM14.5803 10.8943C14.5938 10.8598 14.5988 10.8238 14.6108 10.7893C14.6463 10.6843 14.6823 10.5793 14.7033 10.4688C14.7333 10.3138 14.7503 10.1573 14.7503 9.99983C14.7503 9.98283 14.7503 9.96633 14.7498 9.94933C14.7608 9.95133 14.7723 9.95083 14.7833 9.95283C14.9068 9.97683 15.0318 9.99383 15.1592 9.99833C15.3637 10.3193 15.5572 10.6553 15.7442 10.9998H14.5998C14.5928 10.9653 14.5868 10.9288 14.5803 10.8943ZM14.7778 11.9998H16.2487C16.2622 12.0288 16.2757 12.0583 16.2892 12.0873C16.3832 12.2888 16.4752 12.4953 16.5657 12.7058C16.5947 12.7738 16.6242 12.8418 16.6527 12.9108C16.7317 13.0993 16.8092 13.2928 16.8852 13.4883C16.9172 13.5708 16.9507 13.6523 16.9817 13.7353C17.0622 13.9478 17.1407 14.1658 17.2182 14.3863C17.2907 14.5927 17.3602 14.8007 17.4287 15.0097C17.4527 15.0827 17.4772 15.1552 17.5007 15.2292C17.5292 15.3192 17.5567 15.4102 17.5847 15.5002H15.3057C15.1547 14.3173 14.9753 13.1423 14.7783 12.0048C14.7783 12.0028 14.7783 12.0013 14.7778 11.9998ZM15.4252 16.4997H17.8797C18.2047 17.6677 18.4737 18.8487 18.6957 19.9997H15.7072C15.6567 18.8542 15.5577 17.6787 15.4252 16.4997ZM15.7417 20.9996H18.8792C19.0947 22.2406 19.2567 23.4266 19.3792 24.4996H15.6067C15.7262 23.4081 15.7652 22.2286 15.7417 20.9996ZM15.3942 8.98534C15.3887 8.98584 15.3832 8.98384 15.3777 8.98434L15.2502 8.99984C14.8218 8.99984 14.5038 8.81435 14.3108 8.65735C14.1588 8.53385 14.0338 8.38385 13.9398 8.21136C13.9383 8.20886 13.9353 8.20686 13.9338 8.20436C13.8718 8.08936 13.8218 7.96736 13.7913 7.83686L13.7753 7.73436C13.7638 7.65787 13.7503 7.58037 13.7503 7.49987C13.7503 7.42437 13.7618 7.35137 13.7728 7.27887C13.7803 7.23487 13.7873 7.19137 13.7993 7.14287L13.8043 7.12187C13.8208 7.05938 13.8373 6.99738 13.8613 6.93888C13.8868 6.87688 13.9193 6.81788 13.9538 6.75938C13.9633 6.74288 13.9708 6.72538 13.9808 6.70988C14.0748 6.56338 14.1948 6.43089 14.3378 6.32039L14.4368 6.24389C14.5018 6.20139 14.5708 6.16439 14.6423 6.13239L14.7708 6.08889C14.8543 6.06039 14.9338 6.03989 15.0103 6.02539C15.0887 6.01139 15.1682 5.99989 15.2502 5.99989C15.3427 5.99989 15.4322 6.01089 15.5202 6.02739C15.5537 6.03389 15.5867 6.04289 15.6192 6.05139C15.6702 6.06439 15.7197 6.07989 15.7687 6.09789C15.8092 6.11339 15.8492 6.12889 15.8882 6.14789C15.9217 6.16389 15.9537 6.18289 15.9857 6.20089C16.2952 6.37939 16.5417 6.66438 16.6627 7.02188L16.6847 7.08587C16.7232 7.21837 16.7502 7.35537 16.7502 7.49987C16.7502 8.27785 16.1527 8.91184 15.3942 8.98534ZM18.8077 3.82493C21.3581 3.14094 23.6556 3.63743 24.4716 4.37792L20.2912 5.4984L18.9802 4.46892L18.3597 6.01589L17.4172 6.26839C17.4117 6.25839 17.4032 6.25039 17.3977 6.24039C17.3342 6.13289 17.2637 6.03289 17.1857 5.93639C17.1602 5.90439 17.1347 5.87239 17.1077 5.8419C17.0352 5.7604 16.9572 5.6859 16.8747 5.6149C16.8332 5.5789 16.7922 5.5439 16.7487 5.5109C16.6717 5.4524 16.5912 5.4004 16.5077 5.3514C16.4507 5.3179 16.3937 5.2859 16.3342 5.25691C16.2557 5.21891 16.1757 5.18591 16.0932 5.15591C16.0562 5.14241 16.0222 5.12241 15.9847 5.11041C16.7932 4.55242 17.7722 4.10242 18.8077 3.82493ZM8.28686 3.48743L4.58842 1.24897C4.98092 1.06097 5.58091 0.971976 6.2709 1.00948C7.51937 1.07897 8.94335 1.54697 10.1778 2.29445C11.9548 3.36994 13.0118 4.77991 13.4423 5.7829C13.4028 5.8244 13.3693 5.87139 13.3323 5.91589C13.2918 5.96439 13.2483 6.01089 13.2118 6.06189C13.1758 6.11239 13.1463 6.16689 13.1138 6.22039C13.1073 6.23139 13.1003 6.24189 13.0938 6.25289C12.8353 6.10339 12.5418 5.97689 12.2238 5.87139L9.99733 4.52342L9.83234 2.86494L8.28686 3.48743ZM7.48038 7.46887L6.85989 9.01584L2.68396 10.1343C2.81995 9.72133 3.16945 9.22684 3.67544 8.75435C4.58992 7.90136 5.9139 7.19837 7.30788 6.82488C8.14137 6.60188 8.96435 6.50438 9.72134 6.50438C10.5138 6.50438 11.2328 6.61238 11.8178 6.79288L12.7573 7.36137C12.7558 7.38637 12.7523 7.41187 12.7513 7.43687L12.4583 7.51537C12.4463 7.51387 12.4343 7.51587 12.4223 7.51437C12.3648 7.51087 12.3088 7.49987 12.2503 7.49987C12.2208 7.49987 12.1933 7.50737 12.1643 7.50837C12.0503 7.51037 11.9378 7.52237 11.8248 7.54287C11.7843 7.54987 11.7438 7.55537 11.7038 7.56437C11.6078 7.58687 11.5143 7.61787 11.4208 7.65237C11.3558 7.67536 11.2908 7.69586 11.2283 7.72386C11.1918 7.74086 11.1578 7.76286 11.1223 7.78136C11.0188 7.83436 10.9163 7.88736 10.8223 7.95336L8.79235 8.49735L7.48038 7.46887ZM12.2503 11.4998C11.4233 11.4998 10.7503 10.8268 10.7503 9.99983C10.7503 9.52183 10.9793 9.10034 11.3288 8.82535L11.3498 8.80935C11.4178 8.75785 11.4898 8.71385 11.5638 8.67385C11.5758 8.66735 11.5873 8.66035 11.5993 8.65435C11.6518 8.62785 11.7068 8.60835 11.7613 8.58835C11.8078 8.57235 11.8538 8.55585 11.9023 8.54435C11.9358 8.53585 11.9698 8.53035 12.0038 8.52435C12.0598 8.51485 12.1168 8.50985 12.1748 8.50685C12.2378 8.50485 12.3013 8.50235 12.3638 8.51085L12.5273 8.53185L12.5323 8.53035C12.7398 8.57185 12.9383 8.65585 13.1178 8.78585C13.1183 8.78685 13.1193 8.78785 13.1198 8.78885C13.1768 8.88234 13.2403 8.96934 13.3088 9.05434C13.3278 9.07834 13.3473 9.10234 13.3673 9.12534C13.4343 9.20284 13.5033 9.27634 13.5788 9.34484C13.6203 9.42634 13.6553 9.50833 13.6813 9.59083C13.6873 9.61133 13.6978 9.63083 13.7028 9.65133C13.7333 9.76733 13.7503 9.88333 13.7503 9.99983C13.7503 10.2113 13.7023 10.4228 13.6073 10.6273C13.6068 10.6283 13.6068 10.6293 13.6063 10.6303C13.3678 11.1423 12.8518 11.4998 12.2503 11.4998ZM14.2773 28.9995C14.8583 28.076 15.2412 26.8775 15.4702 25.4996H19.4857C19.6427 27.0915 19.7082 28.3435 19.7342 28.9995H14.2773Z" fill="black"/>
</g>
<defs>
<clipPath id="clip0_201_3582">
<rect width="30" height="30" fill="white"/>
</clipPath>
</defs>
</svg>
