<svg width="679" height="56" viewBox="0 0 679 56" fill="none" xmlns="http://www.w3.org/2000/svg">
<path d="M24.0689 43.96C20.7089 43.96 17.5889 43.44 14.7089 42.4C11.8689 41.32 9.38891 39.8 7.26891 37.84C5.18891 35.88 3.56891 33.56 2.40891 30.88C1.24891 28.2 0.668912 25.24 0.668912 22C0.668912 18.76 1.24891 15.8 2.40891 13.12C3.56891 10.44 5.18891 8.12 7.26891 6.16C9.38891 4.2 11.8689 2.7 14.7089 1.66C17.5889 0.579999 20.7089 0.0399988 24.0689 0.0399988C28.1889 0.0399988 31.8289 0.759999 34.9889 2.2C38.1889 3.64 40.8289 5.72 42.9089 8.44L33.9689 16.42C32.7289 14.86 31.3489 13.66 29.8289 12.82C28.3489 11.94 26.6689 11.5 24.7889 11.5C23.3089 11.5 21.9689 11.74 20.7689 12.22C19.5689 12.7 18.5289 13.4 17.6489 14.32C16.8089 15.24 16.1489 16.36 15.6689 17.68C15.1889 18.96 14.9489 20.4 14.9489 22C14.9489 23.6 15.1889 25.06 15.6689 26.38C16.1489 27.66 16.8089 28.76 17.6489 29.68C18.5289 30.6 19.5689 31.3 20.7689 31.78C21.9689 32.26 23.3089 32.5 24.7889 32.5C26.6689 32.5 28.3489 32.08 29.8289 31.24C31.3489 30.36 32.7289 29.14 33.9689 27.58L42.9089 35.56C40.8289 38.24 38.1889 40.32 34.9889 41.8C31.8289 43.24 28.1889 43.96 24.0689 43.96ZM64.4297 43.6C60.7097 43.6 57.4097 42.88 54.5297 41.44C51.6897 39.96 49.4497 37.94 47.8097 35.38C46.1697 32.82 45.3497 29.88 45.3497 26.56C45.3497 23.24 46.1697 20.3 47.8097 17.74C49.4497 15.18 51.6897 13.18 54.5297 11.74C57.4097 10.3 60.7097 9.58 64.4297 9.58C68.1497 9.58 71.4497 10.3 74.3297 11.74C77.2097 13.18 79.4497 15.18 81.0497 17.74C82.6897 20.3 83.5097 23.24 83.5097 26.56C83.5097 29.88 82.6897 32.82 81.0497 35.38C79.4497 37.94 77.2097 39.96 74.3297 41.44C71.4497 42.88 68.1497 43.6 64.4297 43.6ZM64.4297 33.04C65.4297 33.04 66.3297 32.8 67.1297 32.32C67.9297 31.84 68.5697 31.12 69.0497 30.16C69.5297 29.16 69.7697 27.96 69.7697 26.56C69.7697 25.12 69.5297 23.94 69.0497 23.02C68.5697 22.06 67.9297 21.34 67.1297 20.86C66.3297 20.38 65.4297 20.14 64.4297 20.14C63.4297 20.14 62.5297 20.38 61.7297 20.86C60.9297 21.34 60.2897 22.06 59.8097 23.02C59.3297 23.94 59.0897 25.12 59.0897 26.56C59.0897 27.96 59.3297 29.16 59.8097 30.16C60.2897 31.12 60.9297 31.84 61.7297 32.32C62.5297 32.8 63.4297 33.04 64.4297 33.04ZM89.505 43V10.18H107.925C112.325 10.18 115.745 10.94 118.185 12.46C120.625 13.94 121.845 16.04 121.845 18.76C121.845 21.4 120.725 23.52 118.485 25.12C116.245 26.68 113.225 27.46 109.425 27.46L110.445 24.7C114.485 24.7 117.545 25.44 119.625 26.92C121.745 28.4 122.805 30.56 122.805 33.4C122.805 36.32 121.645 38.66 119.325 40.42C117.045 42.14 113.565 43 108.885 43H89.505ZM101.385 34.6H107.685C108.685 34.6 109.425 34.38 109.905 33.94C110.385 33.5 110.625 32.9 110.625 32.14C110.625 31.34 110.385 30.76 109.905 30.4C109.425 30 108.685 29.8 107.685 29.8H101.385V34.6ZM101.385 23.14H106.725C107.765 23.14 108.505 22.94 108.945 22.54C109.425 22.14 109.665 21.56 109.665 20.8C109.665 20 109.425 19.44 108.945 19.12C108.505 18.76 107.765 18.58 106.725 18.58H101.385V23.14ZM146.739 43.6C142.739 43.6 139.239 42.86 136.239 41.38C133.279 39.9 130.979 37.88 129.339 35.32C127.699 32.72 126.879 29.8 126.879 26.56C126.879 23.24 127.679 20.3 129.279 17.74C130.919 15.18 133.139 13.18 135.939 11.74C138.779 10.3 141.959 9.58 145.479 9.58C148.719 9.58 151.699 10.22 154.419 11.5C157.179 12.78 159.379 14.68 161.019 17.2C162.699 19.72 163.539 22.84 163.539 26.56C163.539 27.04 163.519 27.58 163.479 28.18C163.439 28.74 163.399 29.26 163.359 29.74H138.099V23.2H156.159L151.059 24.94C151.059 23.66 150.819 22.58 150.339 21.7C149.899 20.78 149.279 20.08 148.479 19.6C147.679 19.08 146.719 18.82 145.599 18.82C144.479 18.82 143.499 19.08 142.659 19.6C141.859 20.08 141.239 20.78 140.799 21.7C140.359 22.58 140.139 23.66 140.139 24.94V26.98C140.139 28.38 140.419 29.58 140.979 30.58C141.539 31.58 142.339 32.34 143.379 32.86C144.419 33.34 145.679 33.58 147.159 33.58C148.679 33.58 149.919 33.38 150.879 32.98C151.879 32.58 152.919 31.98 153.999 31.18L161.079 38.32C159.479 40.04 157.499 41.36 155.139 42.28C152.819 43.16 150.019 43.6 146.739 43.6ZM176.837 43V17.86L179.777 20.74H166.817V10.18H200.357V20.74H187.397L190.337 17.86V43H176.837ZM214.266 55.24C212.466 55.24 210.626 54.96 208.746 54.4C206.906 53.88 205.426 53.18 204.306 52.3L208.806 43C209.486 43.52 210.246 43.94 211.086 44.26C211.966 44.58 212.806 44.74 213.606 44.74C214.806 44.74 215.726 44.48 216.366 43.96C217.006 43.48 217.526 42.74 217.926 41.74L219.306 38.26L220.266 36.94L230.766 10.18H243.606L230.106 43.66C228.906 46.66 227.506 49 225.906 50.68C224.346 52.36 222.586 53.54 220.626 54.22C218.706 54.9 216.586 55.24 214.266 55.24ZM217.446 44.5L203.166 10.18H217.086L226.926 35.74L217.446 44.5ZM265.225 43.6C261.225 43.6 257.725 42.86 254.725 41.38C251.765 39.9 249.465 37.88 247.825 35.32C246.185 32.72 245.365 29.8 245.365 26.56C245.365 23.24 246.165 20.3 247.765 17.74C249.405 15.18 251.625 13.18 254.425 11.74C257.265 10.3 260.445 9.58 263.965 9.58C267.205 9.58 270.185 10.22 272.905 11.5C275.665 12.78 277.865 14.68 279.505 17.2C281.185 19.72 282.025 22.84 282.025 26.56C282.025 27.04 282.005 27.58 281.965 28.18C281.925 28.74 281.885 29.26 281.845 29.74H256.585V23.2H274.645L269.545 24.94C269.545 23.66 269.305 22.58 268.825 21.7C268.385 20.78 267.765 20.08 266.965 19.6C266.165 19.08 265.205 18.82 264.085 18.82C262.965 18.82 261.985 19.08 261.145 19.6C260.345 20.08 259.725 20.78 259.285 21.7C258.845 22.58 258.625 23.66 258.625 24.94V26.98C258.625 28.38 258.905 29.58 259.465 30.58C260.025 31.58 260.825 32.34 261.865 32.86C262.905 33.34 264.165 33.58 265.645 33.58C267.165 33.58 268.405 33.38 269.365 32.98C270.365 32.58 271.405 31.98 272.485 31.18L279.565 38.32C277.965 40.04 275.985 41.36 273.625 42.28C271.305 43.16 268.505 43.6 265.225 43.6ZM288.7 43V10.18H303.04L313.48 30.64H307.84L319.66 10.18H332.38L332.5 43H320.32L320.26 23.26L322.36 24.7L313.3 40.42H307.6L298.54 23.68L300.88 23.08V43H288.7ZM360.386 43V10.18H395.606V43H382.106V17.92L385.046 20.74H370.946L373.886 17.92V43H360.386ZM420.708 43.6C416.988 43.6 413.688 42.88 410.808 41.44C407.968 39.96 405.728 37.94 404.088 35.38C402.448 32.82 401.628 29.88 401.628 26.56C401.628 23.24 402.448 20.3 404.088 17.74C405.728 15.18 407.968 13.18 410.808 11.74C413.688 10.3 416.988 9.58 420.708 9.58C424.428 9.58 427.728 10.3 430.608 11.74C433.488 13.18 435.728 15.18 437.328 17.74C438.968 20.3 439.788 23.24 439.788 26.56C439.788 29.88 438.968 32.82 437.328 35.38C435.728 37.94 433.488 39.96 430.608 41.44C427.728 42.88 424.428 43.6 420.708 43.6ZM420.708 33.04C421.708 33.04 422.608 32.8 423.408 32.32C424.208 31.84 424.848 31.12 425.328 30.16C425.808 29.16 426.048 27.96 426.048 26.56C426.048 25.12 425.808 23.94 425.328 23.02C424.848 22.06 424.208 21.34 423.408 20.86C422.608 20.38 421.708 20.14 420.708 20.14C419.708 20.14 418.808 20.38 418.008 20.86C417.208 21.34 416.568 22.06 416.088 23.02C415.608 23.94 415.368 25.12 415.368 26.56C415.368 27.96 415.608 29.16 416.088 30.16C416.568 31.12 417.208 31.84 418.008 32.32C418.808 32.8 419.708 33.04 420.708 33.04ZM463.003 43.6C459.243 43.6 455.903 42.88 452.983 41.44C450.063 40 447.763 38 446.083 35.44C444.443 32.84 443.623 29.88 443.623 26.56C443.623 23.24 444.443 20.3 446.083 17.74C447.763 15.18 450.063 13.18 452.983 11.74C455.903 10.3 459.243 9.58 463.003 9.58C467.003 9.58 470.423 10.44 473.263 12.16C476.103 13.88 478.063 16.26 479.143 19.3L468.643 24.46C467.963 22.94 467.123 21.84 466.123 21.16C465.163 20.48 464.103 20.14 462.943 20.14C461.943 20.14 461.003 20.38 460.123 20.86C459.283 21.34 458.603 22.06 458.083 23.02C457.603 23.94 457.363 25.12 457.363 26.56C457.363 28 457.603 29.2 458.083 30.16C458.603 31.12 459.283 31.84 460.123 32.32C461.003 32.8 461.943 33.04 462.943 33.04C464.103 33.04 465.163 32.7 466.123 32.02C467.123 31.34 467.963 30.24 468.643 28.72L479.143 33.88C478.063 36.92 476.103 39.3 473.263 41.02C470.423 42.74 467.003 43.6 463.003 43.6ZM502.08 43.6C498.08 43.6 494.58 42.86 491.58 41.38C488.62 39.9 486.32 37.88 484.68 35.32C483.04 32.72 482.22 29.8 482.22 26.56C482.22 23.24 483.02 20.3 484.62 17.74C486.26 15.18 488.48 13.18 491.28 11.74C494.12 10.3 497.3 9.58 500.82 9.58C504.06 9.58 507.04 10.22 509.76 11.5C512.52 12.78 514.72 14.68 516.36 17.2C518.04 19.72 518.88 22.84 518.88 26.56C518.88 27.04 518.86 27.58 518.82 28.18C518.78 28.74 518.74 29.26 518.7 29.74H493.44V23.2H511.5L506.4 24.94C506.4 23.66 506.16 22.58 505.68 21.7C505.24 20.78 504.62 20.08 503.82 19.6C503.02 19.08 502.06 18.82 500.94 18.82C499.82 18.82 498.84 19.08 498 19.6C497.2 20.08 496.58 20.78 496.14 21.7C495.7 22.58 495.48 23.66 495.48 24.94V26.98C495.48 28.38 495.76 29.58 496.32 30.58C496.88 31.58 497.68 32.34 498.72 32.86C499.76 33.34 501.02 33.58 502.5 33.58C504.02 33.58 505.26 33.38 506.22 32.98C507.22 32.58 508.26 31.98 509.34 31.18L516.42 38.32C514.82 40.04 512.84 41.36 510.48 42.28C508.16 43.16 505.36 43.6 502.08 43.6ZM532.178 43V17.86L535.118 20.74H522.158V10.18H555.698V20.74H542.738L545.678 17.86V43H532.178ZM561.398 43V10.18H574.898V25L586.238 10.18H598.718V43H585.218V28.12L573.938 43H561.398ZM614.41 43V17.86L617.35 20.74H604.39V10.18H637.93V20.74H624.97L627.91 17.86V43H614.41ZM664.391 20.08C668.791 20.08 672.171 21.04 674.531 22.96C676.891 24.88 678.071 27.6 678.071 31.12C678.071 34.8 676.691 37.7 673.931 39.82C671.211 41.94 667.471 43 662.711 43H643.631V10.18H657.131V20.08H664.391ZM661.331 33.88C662.251 33.88 662.971 33.64 663.491 33.16C664.011 32.68 664.271 31.92 664.271 30.88C664.271 29.84 664.011 29.1 663.491 28.66C662.971 28.22 662.251 28 661.331 28H657.131V33.88H661.331Z" fill="white"/>
</svg>
