<svg width="50" height="50" viewBox="0 0 50 50" fill="none" xmlns="http://www.w3.org/2000/svg">
<g clip-path="url(#clip0_2036_2853)">
<path d="M49.9999 25.0004H0V9.4832C0 9.00713 0.386034 8.62109 0.862108 8.62109H49.1379C49.614 8.62109 50 9.00713 50 9.4832L49.9999 25.0004Z" fill="#FF4B55"/>
<path d="M0 25H49.9999V40.5172C49.9999 40.9932 49.6139 41.3793 49.1378 41.3793H0.862108C0.386034 41.3793 0 40.9932 0 40.5172V25Z" fill="#464655"/>
<path d="M23.037 17.8018L23.6264 19.569L25.4893 19.5835C25.6337 19.5845 25.6935 19.7688 25.5774 19.8545L24.0788 20.9611L24.6407 22.7373C24.6843 22.8749 24.5275 22.9886 24.4101 22.9049L22.8945 21.8216L21.3789 22.9049C21.2614 22.9888 21.1048 22.8749 21.1483 22.7373L21.7102 20.9611L20.2116 19.8545C20.0956 19.7687 20.1554 19.5845 20.2997 19.5835L22.1626 19.569L22.752 17.8018C22.7977 17.665 22.9914 17.665 23.037 17.8018Z" fill="#FFE15A"/>
<path d="M31.0041 32.8066C31.0041 32.8066 20.3395 24.7613 20.0246 24.4969C19.538 24.0882 19.1625 23.3654 19.1446 22.4854C19.1446 22.4854 17.9945 23.6635 18.2197 24.883C18.4801 26.2928 19.2883 26.7957 20.33 27.4781C21.062 27.9577 26.8815 31.628 30.2787 33.769L31.0041 32.8066Z" fill="#FFE15A"/>
<path d="M34.1952 35.1647C34.0562 35.0655 32.9392 34.2399 31.3895 33.0918L30.8271 34.1145C31.9649 34.8313 32.7226 35.3085 32.7226 35.3085C32.7226 35.3085 32.8303 36.7094 33.9618 36.4759C34.3696 36.3917 34.698 35.524 34.1952 35.1647Z" fill="#FFE15A"/>
<path d="M24.9864 31.4505C24.1802 31.7342 23.3168 31.8965 22.4136 31.8965C20.1243 31.8965 18.0732 30.8992 16.6531 29.3223L15.3906 30.4585C15.8138 30.9284 16.2656 31.3713 16.7749 31.7492L16.5235 32.1847L18.3899 33.2622L18.637 32.8342C19.4802 33.2009 20.3866 33.4476 21.336 33.5552V34.0516H23.4912V33.5552C24.4406 33.4476 25.3471 33.2009 26.1902 32.8342L26.4373 33.2622L27.179 32.834C26.4547 32.3772 25.7127 31.9092 24.9864 31.4505Z" fill="#FFE15A"/>
<path d="M31.8305 23.06C31.723 22.1106 31.4763 21.2042 31.1096 20.3611L31.5376 20.1141L30.46 18.2476L30.0246 18.4989C29.4672 17.7478 28.803 17.0837 28.0518 16.5263L28.3032 16.0908L26.4368 15.0133L26.1897 15.4413C25.4903 15.1371 24.7456 14.9211 23.9707 14.793L23.6875 16.4926C27.3648 17.1017 30.1719 20.2877 30.1719 24.1377C30.1719 26.2107 29.3538 28.0892 28.0291 29.4811C28.4873 29.8271 28.9421 30.1705 29.3917 30.5099C29.6095 30.2715 29.8315 30.0366 30.0247 29.7764L30.4601 30.0278L31.5377 28.1614L31.1097 27.9143C31.4763 27.0712 31.7231 26.1647 31.8306 25.2154H32.3269V23.0602H31.8305L31.8305 23.06Z" fill="#FFE15A"/>
</g>
<defs>
<clipPath id="clip0_2036_2853">
<rect width="50" height="50" fill="white"/>
</clipPath>
</defs>
</svg>
